<?xml version="1.0" encoding="UTF-8" standalone="no"?>
<!DOCTYPE svg PUBLIC "-//W3C//DTD SVG 1.1//EN"
 "http://www.w3.org/Graphics/SVG/1.1/DTD/svg11.dtd">
<!-- Generated by graphviz version 2.43.0 (0)
 -->
<!-- Title: include/y3c/array.h Pages: 1 -->
<svg width="512pt" height="357pt"
 viewBox="0.00 0.00 511.56 357.00" xmlns="http://www.w3.org/2000/svg" xmlns:xlink="http://www.w3.org/1999/xlink">
<g id="graph0" class="graph" transform="scale(1 1) rotate(0) translate(4 353)">
<title>include/y3c/array.h</title>
<!-- Node1 -->
<g id="Node000001" class="node">
<title>Node1</title>
<g id="a_Node000001"><a xlink:title=" ">
<polygon fill="#999999" stroke="#666666" points="322,-349 214,-349 214,-330 322,-330 322,-349"/>
<text text-anchor="middle" x="268" y="-337" font-family="Helvetica,sans-Serif" font-size="10.00">include/y3c/array.h</text>
</a>
</g>
</g>
<!-- Node2 -->
<g id="Node000002" class="node">
<title>Node2</title>
<g id="a_Node000002"><a xlink:href="terminate_8h.html" target="_top" xlink:title=" ">
<polygon fill="white" stroke="#666666" points="264,-129 170,-129 170,-110 264,-110 264,-129"/>
<text text-anchor="middle" x="217" y="-117" font-family="Helvetica,sans-Serif" font-size="10.00">y3c/terminate.h</text>
</a>
</g>
</g>
<!-- Node1&#45;&gt;Node2 -->
<g id="edge1_Node000001_Node000002" class="edge">
<title>Node1&#45;&gt;Node2</title>
<g id="a_edge1_Node000001_Node000002"><a xlink:title=" ">
<path fill="none" stroke="#63b8ff" d="M267.06,-329.79C264.84,-310.06 258.71,-260.53 249,-220 242.08,-191.11 230.93,-158.49 223.78,-138.72"/>
<polygon fill="#63b8ff" stroke="#63b8ff" points="227.01,-137.34 220.28,-129.16 220.44,-139.75 227.01,-137.34"/>
</a>
</g>
</g>
<!-- Node10 -->
<g id="Node000010" class="node">
<title>Node10</title>
<g id="a_Node000010"><a xlink:href="wrap_8h.html" target="_top" xlink:title=" ">
<polygon fill="white" stroke="#666666" points="240,-239 170,-239 170,-220 240,-220 240,-239"/>
<text text-anchor="middle" x="205" y="-227" font-family="Helvetica,sans-Serif" font-size="10.00">y3c/wrap.h</text>
</a>
</g>
</g>
<!-- Node1&#45;&gt;Node10 -->
<g id="edge11_Node000001_Node000010" class="edge">
<title>Node1&#45;&gt;Node10</title>
<g id="a_edge11_Node000001_Node000010"><a xlink:title=" ">
<path fill="none" stroke="#63b8ff" d="M262.84,-329.66C252.46,-311.85 228.84,-271.37 215.21,-248.01"/>
<polygon fill="#63b8ff" stroke="#63b8ff" points="218.11,-246.03 210.05,-239.16 212.07,-249.56 218.11,-246.03"/>
</a>
</g>
</g>
<!-- Node13 -->
<g id="Node000013" class="node">
<title>Node13</title>
<g id="a_Node000013"><a xlink:href="typename_8h.html" target="_top" xlink:title=" ">
<polygon fill="white" stroke="#666666" points="391.5,-184 296.5,-184 296.5,-165 391.5,-165 391.5,-184"/>
<text text-anchor="middle" x="344" y="-172" font-family="Helvetica,sans-Serif" font-size="10.00">y3c/typename.h</text>
</a>
</g>
</g>
<!-- Node1&#45;&gt;Node13 -->
<g id="edge21_Node000001_Node000013" class="edge">
<title>Node1&#45;&gt;Node13</title>
<g id="a_edge21_Node000001_Node000013"><a xlink:title=" ">
<path fill="none" stroke="#63b8ff" d="M272.09,-329.74C284.05,-304.09 319.16,-228.78 335.48,-193.78"/>
<polygon fill="#63b8ff" stroke="#63b8ff" points="338.84,-194.85 339.89,-184.31 332.5,-191.89 338.84,-194.85"/>
</a>
</g>
</g>
<!-- Node14 -->
<g id="Node000014" class="node">
<title>Node14</title>
<g id="a_Node000014"><a xlink:href="iterator_8h.html" target="_top" xlink:title=" ">
<polygon fill="white" stroke="#666666" points="182.5,-294 101.5,-294 101.5,-275 182.5,-275 182.5,-294"/>
<text text-anchor="middle" x="142" y="-282" font-family="Helvetica,sans-Serif" font-size="10.00">y3c/iterator.h</text>
</a>
</g>
</g>
<!-- Node1&#45;&gt;Node14 -->
<g id="edge22_Node000001_Node000014" class="edge">
<title>Node1&#45;&gt;Node14</title>
<g id="a_edge22_Node000001_Node000014"><a xlink:title=" ">
<path fill="none" stroke="#63b8ff" d="M247.76,-329.98C227.3,-321.38 195.47,-307.99 172.07,-298.15"/>
<polygon fill="#63b8ff" stroke="#63b8ff" points="173.19,-294.82 162.61,-294.17 170.47,-301.27 173.19,-294.82"/>
</a>
</g>
</g>
<!-- Node15 -->
<g id="Node000015" class="node">
<title>Node15</title>
<g id="a_Node000015"><a xlink:title=" ">
<polygon fill="#e0e0e0" stroke="#999999" points="376,-294 334,-294 334,-275 376,-275 376,-294"/>
<text text-anchor="middle" x="355" y="-282" font-family="Helvetica,sans-Serif" font-size="10.00">array</text>
</a>
</g>
</g>
<!-- Node1&#45;&gt;Node15 -->
<g id="edge27_Node000001_Node000015" class="edge">
<title>Node1&#45;&gt;Node15</title>
<g id="a_edge27_Node000001_Node000015"><a xlink:title=" ">
<path fill="none" stroke="#63b8ff" d="M281.98,-329.98C295.47,-321.77 316.13,-309.18 332.04,-299.49"/>
<polygon fill="#63b8ff" stroke="#63b8ff" points="334.05,-302.36 340.77,-294.17 330.41,-296.38 334.05,-302.36"/>
</a>
</g>
</g>
<!-- Node3 -->
<g id="Node000003" class="node">
<title>Node3</title>
<g id="a_Node000003"><a xlink:href="y3c-config_8h.html" target="_top" xlink:title=" ">
<polygon fill="white" stroke="#666666" points="216,-19 140,-19 140,0 216,0 216,-19"/>
<text text-anchor="middle" x="178" y="-7" font-family="Helvetica,sans-Serif" font-size="10.00">y3c&#45;config.h</text>
</a>
</g>
</g>
<!-- Node2&#45;&gt;Node3 -->
<g id="edge2_Node000002_Node000003" class="edge">
<title>Node2&#45;&gt;Node3</title>
<g id="a_edge2_Node000002_Node000003"><a xlink:title=" ">
<path fill="none" stroke="#63b8ff" d="M204.22,-110C193.61,-102.1 179.28,-89.27 173,-74 167.09,-59.62 169.18,-41.87 172.27,-28.8"/>
<polygon fill="#63b8ff" stroke="#63b8ff" points="175.66,-29.67 174.94,-19.1 168.91,-27.81 175.66,-29.67"/>
</a>
</g>
</g>
<!-- Node4 -->
<g id="Node000004" class="node">
<title>Node4</title>
<g id="a_Node000004"><a xlink:href="what_8h.html" target="_top" xlink:title=" ">
<polygon fill="white" stroke="#666666" points="252,-74 182,-74 182,-55 252,-55 252,-74"/>
<text text-anchor="middle" x="217" y="-62" font-family="Helvetica,sans-Serif" font-size="10.00">y3c/what.h</text>
</a>
</g>
</g>
<!-- Node2&#45;&gt;Node4 -->
<g id="edge3_Node000002_Node000004" class="edge">
<title>Node2&#45;&gt;Node4</title>
<g id="a_edge3_Node000002_Node000004"><a xlink:title=" ">
<path fill="none" stroke="#63b8ff" d="M217,-109.75C217,-102.8 217,-92.85 217,-84.13"/>
<polygon fill="#63b8ff" stroke="#63b8ff" points="220.5,-84.09 217,-74.09 213.5,-84.09 220.5,-84.09"/>
</a>
</g>
</g>
<!-- Node5 -->
<g id="Node000005" class="node">
<title>Node5</title>
<g id="a_Node000005"><a xlink:title=" ">
<polygon fill="#e0e0e0" stroke="#999999" points="302,-19 258,-19 258,0 302,0 302,-19"/>
<text text-anchor="middle" x="280" y="-7" font-family="Helvetica,sans-Serif" font-size="10.00">string</text>
</a>
</g>
</g>
<!-- Node2&#45;&gt;Node5 -->
<g id="edge7_Node000002_Node000005" class="edge">
<title>Node2&#45;&gt;Node5</title>
<g id="a_edge7_Node000002_Node000005"><a xlink:title=" ">
<path fill="none" stroke="#63b8ff" d="M228.32,-109.79C238.28,-101.57 252.47,-88.39 261,-74 269.17,-60.22 274.07,-42.65 276.85,-29.48"/>
<polygon fill="#63b8ff" stroke="#63b8ff" points="280.36,-29.73 278.76,-19.26 273.48,-28.44 280.36,-29.73"/>
</a>
</g>
</g>
<!-- Node6 -->
<g id="Node000006" class="node">
<title>Node6</title>
<g id="a_Node000006"><a xlink:title=" ">
<polygon fill="#e0e0e0" stroke="#999999" points="373.5,-74 308.5,-74 308.5,-55 373.5,-55 373.5,-74"/>
<text text-anchor="middle" x="341" y="-62" font-family="Helvetica,sans-Serif" font-size="10.00">stdexcept</text>
</a>
</g>
</g>
<!-- Node2&#45;&gt;Node6 -->
<g id="edge6_Node000002_Node000006" class="edge">
<title>Node2&#45;&gt;Node6</title>
<g id="a_edge6_Node000002_Node000006"><a xlink:title=" ">
<path fill="none" stroke="#63b8ff" d="M236.92,-109.98C257.05,-101.38 288.38,-87.99 311.41,-78.15"/>
<polygon fill="#63b8ff" stroke="#63b8ff" points="312.9,-81.32 320.71,-74.17 310.14,-74.88 312.9,-81.32"/>
</a>
</g>
</g>
<!-- Node7 -->
<g id="Node000007" class="node">
<title>Node7</title>
<g id="a_Node000007"><a xlink:title=" ">
<polygon fill="#e0e0e0" stroke="#999999" points="58,-74 0,-74 0,-55 58,-55 58,-74"/>
<text text-anchor="middle" x="29" y="-62" font-family="Helvetica,sans-Serif" font-size="10.00">memory</text>
</a>
</g>
</g>
<!-- Node2&#45;&gt;Node7 -->
<g id="edge8_Node000002_Node000007" class="edge">
<title>Node2&#45;&gt;Node7</title>
<g id="a_edge8_Node000002_Node000007"><a xlink:title=" ">
<path fill="none" stroke="#63b8ff" d="M186.79,-109.98C154.58,-100.9 103.44,-86.49 68.15,-76.54"/>
<polygon fill="#63b8ff" stroke="#63b8ff" points="68.78,-73.08 58.2,-73.73 66.88,-79.81 68.78,-73.08"/>
</a>
</g>
</g>
<!-- Node8 -->
<g id="Node000008" class="node">
<title>Node8</title>
<g id="a_Node000008"><a xlink:title=" ">
<polygon fill="#e0e0e0" stroke="#999999" points="484.5,-74 391.5,-74 391.5,-55 484.5,-55 484.5,-74"/>
<text text-anchor="middle" x="438" y="-62" font-family="Helvetica,sans-Serif" font-size="10.00">unordered_map</text>
</a>
</g>
</g>
<!-- Node2&#45;&gt;Node8 -->
<g id="edge9_Node000002_Node000008" class="edge">
<title>Node2&#45;&gt;Node8</title>
<g id="a_edge9_Node000002_Node000008"><a xlink:title=" ">
<path fill="none" stroke="#63b8ff" d="M252.51,-109.98C290.49,-100.87 350.87,-86.4 392.36,-76.45"/>
<polygon fill="#63b8ff" stroke="#63b8ff" points="393.31,-79.82 402.21,-74.08 391.67,-73.01 393.31,-79.82"/>
</a>
</g>
</g>
<!-- Node9 -->
<g id="Node000009" class="node">
<title>Node9</title>
<g id="a_Node000009"><a xlink:title=" ">
<polygon fill="#e0e0e0" stroke="#999999" points="126,-74 76,-74 76,-55 126,-55 126,-74"/>
<text text-anchor="middle" x="101" y="-62" font-family="Helvetica,sans-Serif" font-size="10.00">atomic</text>
</a>
</g>
</g>
<!-- Node2&#45;&gt;Node9 -->
<g id="edge10_Node000002_Node000009" class="edge">
<title>Node2&#45;&gt;Node9</title>
<g id="a_edge10_Node000002_Node000009"><a xlink:title=" ">
<path fill="none" stroke="#63b8ff" d="M198.36,-109.98C179.7,-101.46 150.75,-88.23 129.26,-78.41"/>
<polygon fill="#63b8ff" stroke="#63b8ff" points="130.53,-75.14 119.98,-74.17 127.62,-81.51 130.53,-75.14"/>
</a>
</g>
</g>
<!-- Node4&#45;&gt;Node3 -->
<g id="edge4_Node000004_Node000003" class="edge">
<title>Node4&#45;&gt;Node3</title>
<g id="a_edge4_Node000004_Node000003"><a xlink:title=" ">
<path fill="none" stroke="#63b8ff" d="M210.56,-54.75C205.11,-47.34 197.14,-36.5 190.44,-27.41"/>
<polygon fill="#63b8ff" stroke="#63b8ff" points="193.07,-25.07 184.32,-19.09 187.43,-29.22 193.07,-25.07"/>
</a>
</g>
</g>
<!-- Node4&#45;&gt;Node5 -->
<g id="edge5_Node000004_Node000005" class="edge">
<title>Node4&#45;&gt;Node5</title>
<g id="a_edge5_Node000004_Node000005"><a xlink:title=" ">
<path fill="none" stroke="#63b8ff" d="M227.12,-54.98C236.44,-47.15 250.47,-35.34 261.74,-25.86"/>
<polygon fill="#63b8ff" stroke="#63b8ff" points="264.29,-28.29 269.69,-19.17 259.79,-22.93 264.29,-28.29"/>
</a>
</g>
</g>
<!-- Node10&#45;&gt;Node2 -->
<g id="edge12_Node000010_Node000002" class="edge">
<title>Node10&#45;&gt;Node2</title>
<g id="a_edge12_Node000010_Node000002"><a xlink:title=" ">
<path fill="none" stroke="#63b8ff" d="M205.98,-219.66C207.93,-202.17 212.3,-162.8 214.91,-139.27"/>
<polygon fill="#63b8ff" stroke="#63b8ff" points="218.41,-139.48 216.04,-129.16 211.45,-138.71 218.41,-139.48"/>
</a>
</g>
</g>
<!-- Node10&#45;&gt;Node7 -->
<g id="edge20_Node000010_Node000007" class="edge">
<title>Node10&#45;&gt;Node7</title>
<g id="a_edge20_Node000010_Node000007"><a xlink:title=" ">
<path fill="none" stroke="#63b8ff" d="M198.61,-219.7C183.25,-198.92 142.37,-145.89 100,-110 86.02,-98.16 68.61,-87.2 54.53,-79.12"/>
<polygon fill="#63b8ff" stroke="#63b8ff" points="55.84,-75.84 45.4,-74.01 52.42,-81.95 55.84,-75.84"/>
</a>
</g>
</g>
<!-- Node11 -->
<g id="Node000011" class="node">
<title>Node11</title>
<g id="a_Node000011"><a xlink:href="life_8h.html" target="_top" xlink:title=" ">
<polygon fill="white" stroke="#666666" points="113,-184 51,-184 51,-165 113,-165 113,-184"/>
<text text-anchor="middle" x="82" y="-172" font-family="Helvetica,sans-Serif" font-size="10.00">y3c/life.h</text>
</a>
</g>
</g>
<!-- Node10&#45;&gt;Node11 -->
<g id="edge13_Node000010_Node000011" class="edge">
<title>Node10&#45;&gt;Node11</title>
<g id="a_edge13_Node000010_Node000011"><a xlink:title=" ">
<path fill="none" stroke="#63b8ff" d="M185.24,-219.98C165.27,-211.38 134.2,-197.99 111.35,-188.15"/>
<polygon fill="#63b8ff" stroke="#63b8ff" points="112.69,-184.91 102.12,-184.17 109.92,-191.34 112.69,-184.91"/>
</a>
</g>
</g>
<!-- Node10&#45;&gt;Node13 -->
<g id="edge17_Node000010_Node000013" class="edge">
<title>Node10&#45;&gt;Node13</title>
<g id="a_edge17_Node000010_Node000013"><a xlink:title=" ">
<path fill="none" stroke="#63b8ff" d="M227.33,-219.98C250.2,-211.27 285.96,-197.63 311.86,-187.75"/>
<polygon fill="#63b8ff" stroke="#63b8ff" points="313.16,-191 321.26,-184.17 310.67,-184.46 313.16,-191"/>
</a>
</g>
</g>
<!-- Node11&#45;&gt;Node2 -->
<g id="edge14_Node000011_Node000002" class="edge">
<title>Node11&#45;&gt;Node2</title>
<g id="a_edge14_Node000011_Node000002"><a xlink:title=" ">
<path fill="none" stroke="#63b8ff" d="M103.69,-164.98C125.8,-156.3 160.32,-142.75 185.45,-132.88"/>
<polygon fill="#63b8ff" stroke="#63b8ff" points="186.89,-136.08 194.92,-129.17 184.33,-129.57 186.89,-136.08"/>
</a>
</g>
</g>
<!-- Node11&#45;&gt;Node7 -->
<g id="edge15_Node000011_Node000007" class="edge">
<title>Node11&#45;&gt;Node7</title>
<g id="a_edge15_Node000011_Node000007"><a xlink:title=" ">
<path fill="none" stroke="#63b8ff" d="M84.45,-164.78C87.53,-152.05 91.47,-127.95 83,-110 76.99,-97.26 65.34,-86.92 54.39,-79.44"/>
<polygon fill="#63b8ff" stroke="#63b8ff" points="56.21,-76.44 45.89,-74.05 52.46,-82.36 56.21,-76.44"/>
</a>
</g>
</g>
<!-- Node12 -->
<g id="Node000012" class="node">
<title>Node12</title>
<g id="a_Node000012"><a xlink:title=" ">
<polygon fill="#e0e0e0" stroke="#999999" points="74.5,-129 27.5,-129 27.5,-110 74.5,-110 74.5,-129"/>
<text text-anchor="middle" x="51" y="-117" font-family="Helvetica,sans-Serif" font-size="10.00">vector</text>
</a>
</g>
</g>
<!-- Node11&#45;&gt;Node12 -->
<g id="edge16_Node000011_Node000012" class="edge">
<title>Node11&#45;&gt;Node12</title>
<g id="a_edge16_Node000011_Node000012"><a xlink:title=" ">
<path fill="none" stroke="#63b8ff" d="M76.88,-164.75C72.64,-157.49 66.47,-146.95 61.22,-137.98"/>
<polygon fill="#63b8ff" stroke="#63b8ff" points="64.09,-135.95 56.02,-129.09 58.05,-139.49 64.09,-135.95"/>
</a>
</g>
</g>
<!-- Node13&#45;&gt;Node2 -->
<g id="edge18_Node000013_Node000002" class="edge">
<title>Node13&#45;&gt;Node2</title>
<g id="a_edge18_Node000013_Node000002"><a xlink:title=" ">
<path fill="none" stroke="#63b8ff" d="M323.6,-164.98C302.98,-156.38 270.89,-142.99 247.31,-133.15"/>
<polygon fill="#63b8ff" stroke="#63b8ff" points="248.35,-129.79 237.78,-129.17 245.66,-136.25 248.35,-129.79"/>
</a>
</g>
</g>
<!-- Node13&#45;&gt;Node5 -->
<g id="edge19_Node000013_Node000005" class="edge">
<title>Node13&#45;&gt;Node5</title>
<g id="a_edge19_Node000013_Node000005"><a xlink:title=" ">
<path fill="none" stroke="#63b8ff" d="M372.86,-164.94C426.98,-147.46 534.73,-105.07 494,-55 471.44,-27.26 366.14,-16.25 312.13,-12.37"/>
<polygon fill="#63b8ff" stroke="#63b8ff" points="312.27,-8.87 302.06,-11.68 311.8,-15.85 312.27,-8.87"/>
</a>
</g>
</g>
<!-- Node14&#45;&gt;Node2 -->
<g id="edge23_Node000014_Node000002" class="edge">
<title>Node14&#45;&gt;Node2</title>
<g id="a_edge23_Node000014_Node000002"><a xlink:title=" ">
<path fill="none" stroke="#63b8ff" d="M143.99,-274.66C146.93,-262.19 152.99,-238.85 161,-220 173.8,-189.88 193.38,-157.22 205.67,-137.83"/>
<polygon fill="#63b8ff" stroke="#63b8ff" points="208.75,-139.52 211.21,-129.21 202.86,-135.73 208.75,-139.52"/>
</a>
</g>
</g>
<!-- Node14&#45;&gt;Node7 -->
<g id="edge26_Node000014_Node000007" class="edge">
<title>Node14&#45;&gt;Node7</title>
<g id="a_edge26_Node000014_Node000007"><a xlink:title=" ">
<path fill="none" stroke="#63b8ff" d="M131.04,-274.98C111.07,-259 68.4,-222.62 42,-184 22.49,-155.46 13.82,-144.32 18,-110 19.06,-101.31 21.24,-91.87 23.38,-83.93"/>
<polygon fill="#63b8ff" stroke="#63b8ff" points="26.77,-84.83 26.17,-74.25 20.04,-82.89 26.77,-84.83"/>
</a>
</g>
</g>
<!-- Node14&#45;&gt;Node10 -->
<g id="edge25_Node000014_Node000010" class="edge">
<title>Node14&#45;&gt;Node10</title>
<g id="a_edge25_Node000014_Node000010"><a xlink:title=" ">
<path fill="none" stroke="#63b8ff" d="M152.12,-274.98C161.44,-267.15 175.47,-255.34 186.74,-245.86"/>
<polygon fill="#63b8ff" stroke="#63b8ff" points="189.29,-248.29 194.69,-239.17 184.79,-242.93 189.29,-248.29"/>
</a>
</g>
</g>
<!-- Node14&#45;&gt;Node11 -->
<g id="edge24_Node000014_Node000011" class="edge">
<title>Node14&#45;&gt;Node11</title>
<g id="a_edge24_Node000014_Node000011"><a xlink:title=" ">
<path fill="none" stroke="#63b8ff" d="M137.09,-274.66C127.2,-256.85 104.7,-216.37 91.73,-193.01"/>
<polygon fill="#63b8ff" stroke="#63b8ff" points="94.73,-191.2 86.81,-184.16 88.61,-194.6 94.73,-191.2"/>
</a>
</g>
</g>
</g>
</svg>
