<?xml version="1.0" encoding="UTF-8" standalone="no"?>
<!DOCTYPE svg PUBLIC "-//W3C//DTD SVG 1.1//EN"
 "http://www.w3.org/Graphics/SVG/1.1/DTD/svg11.dtd">
<!-- Generated by graphviz version 2.43.0 (0)
 -->
<!-- Title: include/y3c/array.h Pages: 1 -->
<svg width="523pt" height="302pt"
 viewBox="0.00 0.00 522.69 302.00" xmlns="http://www.w3.org/2000/svg" xmlns:xlink="http://www.w3.org/1999/xlink">
<g id="graph0" class="graph" transform="scale(1 1) rotate(0) translate(4 298)">
<title>include/y3c/array.h</title>
<!-- Node1 -->
<g id="Node000001" class="node">
<title>Node1</title>
<g id="a_Node000001"><a xlink:title=" ">
<polygon fill="#999999" stroke="#666666" points="253.69,-294 145.69,-294 145.69,-275 253.69,-275 253.69,-294"/>
<text text-anchor="middle" x="199.69" y="-282" font-family="Helvetica,sans-Serif" font-size="10.00">include/y3c/array.h</text>
</a>
</g>
</g>
<!-- Node2 -->
<g id="Node000002" class="node">
<title>Node2</title>
<g id="a_Node000002"><a xlink:href="terminate_8h.html" target="_top" xlink:title=" ">
<polygon fill="white" stroke="#666666" points="227.69,-129 133.69,-129 133.69,-110 227.69,-110 227.69,-129"/>
<text text-anchor="middle" x="180.69" y="-117" font-family="Helvetica,sans-Serif" font-size="10.00">y3c/terminate.h</text>
</a>
</g>
</g>
<!-- Node1&#45;&gt;Node2 -->
<g id="edge1_Node000001_Node000002" class="edge">
<title>Node1&#45;&gt;Node2</title>
<g id="a_edge1_Node000001_Node000002"><a xlink:title=" ">
<path fill="none" stroke="#63b8ff" d="M198.67,-274.74C195.71,-249.31 187.05,-175.08 182.93,-139.69"/>
<polygon fill="#63b8ff" stroke="#63b8ff" points="186.35,-138.83 181.72,-129.31 179.4,-139.64 186.35,-138.83"/>
</a>
</g>
</g>
<!-- Node10 -->
<g id="Node000010" class="node">
<title>Node10</title>
<g id="a_Node000010"><a xlink:href="wrap_8h.html" target="_top" xlink:title=" ">
<polygon fill="white" stroke="#666666" points="152.69,-239 82.69,-239 82.69,-220 152.69,-220 152.69,-239"/>
<text text-anchor="middle" x="117.69" y="-227" font-family="Helvetica,sans-Serif" font-size="10.00">y3c/wrap.h</text>
</a>
</g>
</g>
<!-- Node1&#45;&gt;Node10 -->
<g id="edge11_Node000001_Node000010" class="edge">
<title>Node1&#45;&gt;Node10</title>
<g id="a_edge11_Node000001_Node000010"><a xlink:title=" ">
<path fill="none" stroke="#63b8ff" d="M186.52,-274.98C173.92,-266.84 154.69,-254.41 139.75,-244.76"/>
<polygon fill="#63b8ff" stroke="#63b8ff" points="141.4,-241.66 131.11,-239.17 137.61,-247.54 141.4,-241.66"/>
</a>
</g>
</g>
<!-- Node12 -->
<g id="Node000012" class="node">
<title>Node12</title>
<g id="a_Node000012"><a xlink:href="typename_8h.html" target="_top" xlink:title=" ">
<polygon fill="white" stroke="#666666" points="304.19,-184 209.19,-184 209.19,-165 304.19,-165 304.19,-184"/>
<text text-anchor="middle" x="256.69" y="-172" font-family="Helvetica,sans-Serif" font-size="10.00">y3c/typename.h</text>
</a>
</g>
</g>
<!-- Node1&#45;&gt;Node12 -->
<g id="edge21_Node000001_Node000012" class="edge">
<title>Node1&#45;&gt;Node12</title>
<g id="a_edge21_Node000001_Node000012"><a xlink:title=" ">
<path fill="none" stroke="#63b8ff" d="M204.36,-274.66C213.76,-256.85 235.12,-216.37 247.45,-193.01"/>
<polygon fill="#63b8ff" stroke="#63b8ff" points="250.55,-194.64 252.12,-184.16 244.36,-191.37 250.55,-194.64"/>
</a>
</g>
</g>
<!-- Node13 -->
<g id="Node000013" class="node">
<title>Node13</title>
<g id="a_Node000013"><a xlink:title=" ">
<polygon fill="#e0e0e0" stroke="#999999" points="288.69,-239 246.69,-239 246.69,-220 288.69,-220 288.69,-239"/>
<text text-anchor="middle" x="267.69" y="-227" font-family="Helvetica,sans-Serif" font-size="10.00">array</text>
</a>
</g>
</g>
<!-- Node1&#45;&gt;Node13 -->
<g id="edge22_Node000001_Node000013" class="edge">
<title>Node1&#45;&gt;Node13</title>
<g id="a_edge22_Node000001_Node000013"><a xlink:title=" ">
<path fill="none" stroke="#63b8ff" d="M210.62,-274.98C220.77,-267.07 236.11,-255.11 248.34,-245.58"/>
<polygon fill="#63b8ff" stroke="#63b8ff" points="250.83,-248.08 256.57,-239.17 246.53,-242.56 250.83,-248.08"/>
</a>
</g>
</g>
<!-- Node3 -->
<g id="Node000003" class="node">
<title>Node3</title>
<g id="a_Node000003"><a xlink:href="y3c-config_8h.html" target="_top" xlink:title=" ">
<polygon fill="white" stroke="#666666" points="140.69,-19 64.69,-19 64.69,0 140.69,0 140.69,-19"/>
<text text-anchor="middle" x="102.69" y="-7" font-family="Helvetica,sans-Serif" font-size="10.00">y3c&#45;config.h</text>
</a>
</g>
</g>
<!-- Node2&#45;&gt;Node3 -->
<g id="edge2_Node000002_Node000003" class="edge">
<title>Node2&#45;&gt;Node3</title>
<g id="a_edge2_Node000002_Node000003"><a xlink:title=" ">
<path fill="none" stroke="#63b8ff" d="M164.71,-109.95C151.65,-102.19 133.61,-89.6 122.69,-74 113.27,-60.54 108.14,-42.44 105.45,-29.01"/>
<polygon fill="#63b8ff" stroke="#63b8ff" points="108.87,-28.28 103.72,-19.03 101.98,-29.48 108.87,-28.28"/>
</a>
</g>
</g>
<!-- Node4 -->
<g id="Node000004" class="node">
<title>Node4</title>
<g id="a_Node000004"><a xlink:href="what_8h.html" target="_top" xlink:title=" ">
<polygon fill="white" stroke="#666666" points="284.69,-74 214.69,-74 214.69,-55 284.69,-55 284.69,-74"/>
<text text-anchor="middle" x="249.69" y="-62" font-family="Helvetica,sans-Serif" font-size="10.00">y3c/what.h</text>
</a>
</g>
</g>
<!-- Node2&#45;&gt;Node4 -->
<g id="edge3_Node000002_Node000004" class="edge">
<title>Node2&#45;&gt;Node4</title>
<g id="a_edge3_Node000002_Node000004"><a xlink:title=" ">
<path fill="none" stroke="#63b8ff" d="M191.78,-109.98C202.18,-102 217.95,-89.88 230.41,-80.31"/>
<polygon fill="#63b8ff" stroke="#63b8ff" points="232.61,-83.04 238.4,-74.17 228.34,-77.49 232.61,-83.04"/>
</a>
</g>
</g>
<!-- Node5 -->
<g id="Node000005" class="node">
<title>Node5</title>
<g id="a_Node000005"><a xlink:title=" ">
<polygon fill="#e0e0e0" stroke="#999999" points="514.69,-19 470.69,-19 470.69,0 514.69,0 514.69,-19"/>
<text text-anchor="middle" x="492.69" y="-7" font-family="Helvetica,sans-Serif" font-size="10.00">string</text>
</a>
</g>
</g>
<!-- Node2&#45;&gt;Node5 -->
<g id="edge7_Node000002_Node000005" class="edge">
<title>Node2&#45;&gt;Node5</title>
<g id="a_edge7_Node000002_Node000005"><a xlink:title=" ">
<path fill="none" stroke="#63b8ff" d="M227.81,-117.32C301.12,-114.53 437.82,-105.17 473.69,-74 486.3,-63.04 490.72,-44.09 492.18,-29.73"/>
<polygon fill="#63b8ff" stroke="#63b8ff" points="495.69,-29.65 492.82,-19.45 488.71,-29.21 495.69,-29.65"/>
</a>
</g>
</g>
<!-- Node6 -->
<g id="Node000006" class="node">
<title>Node6</title>
<g id="a_Node000006"><a xlink:title=" ">
<polygon fill="#e0e0e0" stroke="#999999" points="196.19,-74 131.19,-74 131.19,-55 196.19,-55 196.19,-74"/>
<text text-anchor="middle" x="163.69" y="-62" font-family="Helvetica,sans-Serif" font-size="10.00">stdexcept</text>
</a>
</g>
</g>
<!-- Node2&#45;&gt;Node6 -->
<g id="edge6_Node000002_Node000006" class="edge">
<title>Node2&#45;&gt;Node6</title>
<g id="a_edge6_Node000002_Node000006"><a xlink:title=" ">
<path fill="none" stroke="#63b8ff" d="M177.88,-109.75C175.63,-102.72 172.39,-92.62 169.58,-83.84"/>
<polygon fill="#63b8ff" stroke="#63b8ff" points="172.83,-82.54 166.45,-74.09 166.17,-84.68 172.83,-82.54"/>
</a>
</g>
</g>
<!-- Node7 -->
<g id="Node000007" class="node">
<title>Node7</title>
<g id="a_Node000007"><a xlink:title=" ">
<polygon fill="#e0e0e0" stroke="#999999" points="74.69,-74 16.69,-74 16.69,-55 74.69,-55 74.69,-74"/>
<text text-anchor="middle" x="45.69" y="-62" font-family="Helvetica,sans-Serif" font-size="10.00">memory</text>
</a>
</g>
</g>
<!-- Node2&#45;&gt;Node7 -->
<g id="edge8_Node000002_Node000007" class="edge">
<title>Node2&#45;&gt;Node7</title>
<g id="a_edge8_Node000002_Node000007"><a xlink:title=" ">
<path fill="none" stroke="#63b8ff" d="M159,-109.98C136.89,-101.3 102.37,-87.75 77.24,-77.88"/>
<polygon fill="#63b8ff" stroke="#63b8ff" points="78.36,-74.57 67.78,-74.17 75.81,-81.08 78.36,-74.57"/>
</a>
</g>
</g>
<!-- Node8 -->
<g id="Node000008" class="node">
<title>Node8</title>
<g id="a_Node000008"><a xlink:title=" ">
<polygon fill="#e0e0e0" stroke="#999999" points="396.19,-74 303.19,-74 303.19,-55 396.19,-55 396.19,-74"/>
<text text-anchor="middle" x="349.69" y="-62" font-family="Helvetica,sans-Serif" font-size="10.00">unordered_map</text>
</a>
</g>
</g>
<!-- Node2&#45;&gt;Node8 -->
<g id="edge9_Node000002_Node000008" class="edge">
<title>Node2&#45;&gt;Node8</title>
<g id="a_edge9_Node000002_Node000008"><a xlink:title=" ">
<path fill="none" stroke="#63b8ff" d="M207.84,-109.98C236.22,-101.09 280.92,-87.07 312.55,-77.15"/>
<polygon fill="#63b8ff" stroke="#63b8ff" points="313.83,-80.41 322.33,-74.08 311.74,-73.73 313.83,-80.41"/>
</a>
</g>
</g>
<!-- Node9 -->
<g id="Node000009" class="node">
<title>Node9</title>
<g id="a_Node000009"><a xlink:title=" ">
<polygon fill="#e0e0e0" stroke="#999999" points="464.69,-74 414.69,-74 414.69,-55 464.69,-55 464.69,-74"/>
<text text-anchor="middle" x="439.69" y="-62" font-family="Helvetica,sans-Serif" font-size="10.00">atomic</text>
</a>
</g>
</g>
<!-- Node2&#45;&gt;Node9 -->
<g id="edge10_Node000002_Node000009" class="edge">
<title>Node2&#45;&gt;Node9</title>
<g id="a_edge10_Node000002_Node000009"><a xlink:title=" ">
<path fill="none" stroke="#63b8ff" d="M227.37,-109.97C270.84,-101.87 337.67,-89.01 404.6,-74.16"/>
<polygon fill="#63b8ff" stroke="#63b8ff" points="405.48,-77.55 414.47,-71.95 403.95,-70.72 405.48,-77.55"/>
</a>
</g>
</g>
<!-- Node4&#45;&gt;Node3 -->
<g id="edge4_Node000004_Node000003" class="edge">
<title>Node4&#45;&gt;Node3</title>
<g id="a_edge4_Node000004_Node000003"><a xlink:title=" ">
<path fill="none" stroke="#63b8ff" d="M226.07,-54.98C201.79,-46.23 163.74,-32.51 136.32,-22.62"/>
<polygon fill="#63b8ff" stroke="#63b8ff" points="137.33,-19.27 126.74,-19.17 134.96,-25.85 137.33,-19.27"/>
</a>
</g>
</g>
<!-- Node4&#45;&gt;Node5 -->
<g id="edge5_Node000004_Node000005" class="edge">
<title>Node4&#45;&gt;Node5</title>
<g id="a_edge5_Node000004_Node000005"><a xlink:title=" ">
<path fill="none" stroke="#63b8ff" d="M284.77,-55.85C331.96,-45.56 415.21,-27.4 460.74,-17.47"/>
<polygon fill="#63b8ff" stroke="#63b8ff" points="461.63,-20.86 470.66,-15.31 460.14,-14.02 461.63,-20.86"/>
</a>
</g>
</g>
<!-- Node10&#45;&gt;Node2 -->
<g id="edge12_Node000010_Node000002" class="edge">
<title>Node10&#45;&gt;Node2</title>
<g id="a_edge12_Node000010_Node000002"><a xlink:title=" ">
<path fill="none" stroke="#63b8ff" d="M122.85,-219.66C133.24,-201.85 156.85,-161.37 170.48,-138.01"/>
<polygon fill="#63b8ff" stroke="#63b8ff" points="173.63,-139.56 175.64,-129.16 167.58,-136.03 173.63,-139.56"/>
</a>
</g>
</g>
<!-- Node10&#45;&gt;Node7 -->
<g id="edge20_Node000010_Node000007" class="edge">
<title>Node10&#45;&gt;Node7</title>
<g id="a_edge20_Node000010_Node000007"><a xlink:title=" ">
<path fill="none" stroke="#63b8ff" d="M113.82,-219.74C102.49,-194.09 69.23,-118.78 53.77,-83.78"/>
<polygon fill="#63b8ff" stroke="#63b8ff" points="56.82,-82.04 49.58,-74.31 50.42,-84.87 56.82,-82.04"/>
</a>
</g>
</g>
<!-- Node11 -->
<g id="Node000011" class="node">
<title>Node11</title>
<g id="a_Node000011"><a xlink:href="life_8h.html" target="_top" xlink:title=" ">
<polygon fill="white" stroke="#666666" points="76.69,-184 14.69,-184 14.69,-165 76.69,-165 76.69,-184"/>
<text text-anchor="middle" x="45.69" y="-172" font-family="Helvetica,sans-Serif" font-size="10.00">y3c/life.h</text>
</a>
</g>
</g>
<!-- Node10&#45;&gt;Node11 -->
<g id="edge13_Node000010_Node000011" class="edge">
<title>Node10&#45;&gt;Node11</title>
<g id="a_edge13_Node000010_Node000011"><a xlink:title=" ">
<path fill="none" stroke="#63b8ff" d="M106.12,-219.98C95.27,-212 78.81,-199.88 65.81,-190.31"/>
<polygon fill="#63b8ff" stroke="#63b8ff" points="67.6,-187.28 57.47,-184.17 63.45,-192.92 67.6,-187.28"/>
</a>
</g>
</g>
<!-- Node10&#45;&gt;Node12 -->
<g id="edge17_Node000010_Node000012" class="edge">
<title>Node10&#45;&gt;Node12</title>
<g id="a_edge17_Node000010_Node000012"><a xlink:title=" ">
<path fill="none" stroke="#63b8ff" d="M140.02,-219.98C162.89,-211.27 198.65,-197.63 224.55,-187.75"/>
<polygon fill="#63b8ff" stroke="#63b8ff" points="225.86,-191 233.95,-184.17 223.36,-184.46 225.86,-191"/>
</a>
</g>
</g>
<!-- Node11&#45;&gt;Node2 -->
<g id="edge14_Node000011_Node000002" class="edge">
<title>Node11&#45;&gt;Node2</title>
<g id="a_edge14_Node000011_Node000002"><a xlink:title=" ">
<path fill="none" stroke="#63b8ff" d="M67.38,-164.98C89.49,-156.3 124.01,-142.75 149.15,-132.88"/>
<polygon fill="#63b8ff" stroke="#63b8ff" points="150.58,-136.08 158.61,-129.17 148.02,-129.57 150.58,-136.08"/>
</a>
</g>
</g>
<!-- Node11&#45;&gt;Node3 -->
<g id="edge15_Node000011_Node000003" class="edge">
<title>Node11&#45;&gt;Node3</title>
<g id="a_edge15_Node000011_Node000003"><a xlink:title=" ">
<path fill="none" stroke="#63b8ff" d="M38.21,-164.82C21.47,-144.32 -15.72,-91.83 7.69,-55 18.25,-38.4 36.8,-27.89 54.73,-21.28"/>
<polygon fill="#63b8ff" stroke="#63b8ff" points="56.2,-24.48 64.57,-18 53.98,-17.84 56.2,-24.48"/>
</a>
</g>
</g>
<!-- Node11&#45;&gt;Node7 -->
<g id="edge16_Node000011_Node000007" class="edge">
<title>Node11&#45;&gt;Node7</title>
<g id="a_edge16_Node000011_Node000007"><a xlink:title=" ">
<path fill="none" stroke="#63b8ff" d="M45.69,-164.66C45.69,-147.17 45.69,-107.8 45.69,-84.27"/>
<polygon fill="#63b8ff" stroke="#63b8ff" points="49.19,-84.16 45.69,-74.16 42.19,-84.16 49.19,-84.16"/>
</a>
</g>
</g>
<!-- Node12&#45;&gt;Node2 -->
<g id="edge18_Node000012_Node000002" class="edge">
<title>Node12&#45;&gt;Node2</title>
<g id="a_edge18_Node000012_Node000002"><a xlink:title=" ">
<path fill="none" stroke="#63b8ff" d="M244.48,-164.98C232.92,-156.92 215.32,-144.65 201.53,-135.03"/>
<polygon fill="#63b8ff" stroke="#63b8ff" points="203.33,-132.02 193.13,-129.17 199.33,-137.76 203.33,-132.02"/>
</a>
</g>
</g>
<!-- Node12&#45;&gt;Node5 -->
<g id="edge19_Node000012_Node000005" class="edge">
<title>Node12&#45;&gt;Node5</title>
<g id="a_edge19_Node000012_Node000005"><a xlink:title=" ">
<path fill="none" stroke="#63b8ff" d="M304.25,-168.82C360.43,-160.46 451.57,-137.36 493.69,-74 502.46,-60.81 501.07,-42.44 498.17,-28.85"/>
<polygon fill="#63b8ff" stroke="#63b8ff" points="501.56,-27.97 495.68,-19.16 494.78,-29.72 501.56,-27.97"/>
</a>
</g>
</g>
</g>
</svg>
