<?xml version="1.0" encoding="UTF-8" standalone="no"?>
<!DOCTYPE svg PUBLIC "-//W3C//DTD SVG 1.1//EN"
 "http://www.w3.org/Graphics/SVG/1.1/DTD/svg11.dtd">
<!-- Generated by graphviz version 2.43.0 (0)
 -->
<!-- Title: wrap_auto&lt; element_type &gt; Pages: 1 -->
<svg width="265pt" height="248pt"
 viewBox="0.00 0.00 265.00 248.00" xmlns="http://www.w3.org/2000/svg" xmlns:xlink="http://www.w3.org/1999/xlink">
<g id="graph0" class="graph" transform="scale(1 1) rotate(0) translate(4 244)">
<title>wrap_auto&lt; element_type &gt;</title>
<!-- Node1 -->
<g id="Node000001" class="node">
<title>Node1</title>
<g id="a_Node000001"><a xlink:title=" ">
<polygon fill="#999999" stroke="#666666" points="132.5,-30 13.5,-30 13.5,0 132.5,0 132.5,-30"/>
<text text-anchor="start" x="21.5" y="-18" font-family="Helvetica,sans-Serif" font-size="10.00">wrap_auto&lt; element</text>
<text text-anchor="middle" x="73" y="-7" font-family="Helvetica,sans-Serif" font-size="10.00">_type &gt;</text>
</a>
</g>
</g>
<!-- Node2 -->
<g id="Node000002" class="node">
<title>Node2</title>
<g id="a_Node000002"><a xlink:href="classy3c_1_1wrap.html" target="_top" xlink:title=" ">
<polygon fill="white" stroke="#666666" points="146,-97 0,-97 0,-67 146,-67 146,-97"/>
<text text-anchor="start" x="8" y="-85" font-family="Helvetica,sans-Serif" font-size="10.00">wrap&lt; std::remove_const</text>
<text text-anchor="middle" x="73" y="-74" font-family="Helvetica,sans-Serif" font-size="10.00">&lt; element_type &gt;::type &gt;</text>
</a>
</g>
</g>
<!-- Node2&#45;&gt;Node1 -->
<g id="edge1_Node000001_Node000002" class="edge">
<title>Node2&#45;&gt;Node1</title>
<g id="a_edge1_Node000001_Node000002"><a xlink:title=" ">
<path fill="none" stroke="#63b8ff" d="M73,-56.61C73,-47.65 73,-37.82 73,-30.08"/>
<polygon fill="#63b8ff" stroke="#63b8ff" points="69.5,-56.9 73,-66.9 76.5,-56.9 69.5,-56.9"/>
</a>
</g>
</g>
<!-- Node3 -->
<g id="Node000003" class="node">
<title>Node3</title>
<g id="a_Node000003"><a xlink:href="classy3c_1_1internal_1_1life.html" target="_top" xlink:title="オブジェクトのライフタイムを管理するクラス">
<polygon fill="white" stroke="#666666" points="89,-240 57,-240 57,-221 89,-221 89,-240"/>
<text text-anchor="middle" x="73" y="-228" font-family="Helvetica,sans-Serif" font-size="10.00">life</text>
</a>
</g>
</g>
<!-- Node3&#45;&gt;Node2 -->
<g id="edge2_Node000002_Node000003" class="edge">
<title>Node3&#45;&gt;Node2</title>
<g id="a_edge2_Node000002_Node000003"><a xlink:title=" ">
<path fill="none" stroke="#9a32cd" stroke-dasharray="5,2" d="M70.07,-210.97C68.52,-200.21 66.78,-186.37 66,-174 64.29,-146.8 68.04,-115.07 70.68,-97.18"/>
<polygon fill="#9a32cd" stroke="#9a32cd" points="66.61,-211.52 71.57,-220.88 73.54,-210.47 66.61,-211.52"/>
</a>
</g>
<text text-anchor="middle" x="78.5" y="-162" font-family="Helvetica,sans-Serif" font-size="10.00" fill="grey"> life_</text>
</g>
<!-- Node4 -->
<g id="Node000004" class="node">
<title>Node4</title>
<g id="a_Node000004"><a xlink:href="classy3c_1_1wrap.html" target="_top" xlink:title="値型wrap: base_type型のデータと、このデータの生存状態を管理するクラス">
<polygon fill="white" stroke="#666666" points="213.5,-174 100.5,-174 100.5,-155 213.5,-155 213.5,-174"/>
<text text-anchor="middle" x="157" y="-162" font-family="Helvetica,sans-Serif" font-size="10.00">wrap&lt; base_type &gt;</text>
</a>
</g>
</g>
<!-- Node3&#45;&gt;Node4 -->
<g id="edge4_Node000004_Node000003" class="edge">
<title>Node3&#45;&gt;Node4</title>
<g id="a_edge4_Node000004_Node000003"><a xlink:title=" ">
<path fill="none" stroke="#9a32cd" stroke-dasharray="5,2" d="M92.7,-214.49C109.15,-201.96 132.01,-184.54 145.58,-174.2"/>
<polygon fill="#9a32cd" stroke="#9a32cd" points="90.16,-212.02 84.33,-220.87 94.4,-217.59 90.16,-212.02"/>
</a>
</g>
<text text-anchor="middle" x="132.5" y="-195" font-family="Helvetica,sans-Serif" font-size="10.00" fill="grey"> life_</text>
</g>
<!-- Node4&#45;&gt;Node2 -->
<g id="edge3_Node000002_Node000004" class="edge">
<title>Node4&#45;&gt;Node2</title>
<g id="a_edge3_Node000002_Node000004"><a xlink:title=" ">
<path fill="none" stroke="orange" stroke-dasharray="5,2" d="M140.76,-147.94C125.44,-133.26 102.68,-111.44 87.84,-97.22"/>
<polygon fill="orange" stroke="orange" points="138.37,-150.49 148.01,-154.89 143.21,-145.44 138.37,-150.49"/>
</a>
</g>
<text text-anchor="start" x="127" y="-129" font-family="Helvetica,sans-Serif" font-size="10.00" fill="grey"> &lt; std::remove_const</text>
<text text-anchor="middle" x="192" y="-118" font-family="Helvetica,sans-Serif" font-size="10.00" fill="grey">&lt; element_type &gt;::type &gt;</text>
</g>
</g>
</svg>
