<?xml version="1.0" encoding="UTF-8" standalone="no"?>
<!DOCTYPE svg PUBLIC "-//W3C//DTD SVG 1.1//EN"
 "http://www.w3.org/Graphics/SVG/1.1/DTD/svg11.dtd">
<!-- Generated by graphviz version 2.43.0 (0)
 -->
<!-- Title: array_iterator&lt; element_type &gt; Pages: 1 -->
<svg width="153pt" height="160pt"
 viewBox="0.00 0.00 152.50 160.00" xmlns="http://www.w3.org/2000/svg" xmlns:xlink="http://www.w3.org/1999/xlink">
<g id="graph0" class="graph" transform="scale(1 1) rotate(0) translate(4 156)">
<title>array_iterator&lt; element_type &gt;</title>
<!-- Node1 -->
<g id="Node000001" class="node">
<title>Node1</title>
<g id="a_Node000001"><a xlink:title=" ">
<polygon fill="#999999" stroke="#666666" points="144.5,-30 9.5,-30 9.5,0 144.5,0 144.5,-30"/>
<text text-anchor="start" x="17.5" y="-18" font-family="Helvetica,sans-Serif" font-size="10.00">array_iterator&lt; element</text>
<text text-anchor="middle" x="77" y="-7" font-family="Helvetica,sans-Serif" font-size="10.00">_type &gt;</text>
</a>
</g>
</g>
<!-- Node2 -->
<g id="Node000002" class="node">
<title>Node2</title>
<g id="a_Node000002"><a xlink:href="classy3c_1_1wrap_3_01element__type_01_5_01_4.html" target="_top" xlink:title="ポインタ型wrap: element_type型のデータへのポインタと、 このポインタ自体の生存状態を管理するクラス">
<polygon fill="white" stroke="#666666" points="137,-86 17,-86 17,-67 137,-67 137,-86"/>
<text text-anchor="middle" x="77" y="-74" font-family="Helvetica,sans-Serif" font-size="10.00">ptr&lt; element_type &gt;</text>
</a>
</g>
</g>
<!-- Node2&#45;&gt;Node1 -->
<g id="edge1_Node000001_Node000002" class="edge">
<title>Node2&#45;&gt;Node1</title>
<g id="a_edge1_Node000001_Node000002"><a xlink:title=" ">
<path fill="none" stroke="#63b8ff" d="M77,-56.73C77,-48.09 77,-38 77,-30.02"/>
<polygon fill="#63b8ff" stroke="#63b8ff" points="73.5,-56.98 77,-66.98 80.5,-56.98 73.5,-56.98"/>
</a>
</g>
</g>
<!-- Node3 -->
<g id="Node000003" class="node">
<title>Node3</title>
<g id="a_Node000003"><a xlink:href="classy3c_1_1internal_1_1life__observer.html" target="_top" xlink:title="ライフタイムの状態を観測するクラス">
<polygon fill="white" stroke="#666666" points="80,-152 0,-152 0,-133 80,-133 80,-152"/>
<text text-anchor="middle" x="40" y="-140" font-family="Helvetica,sans-Serif" font-size="10.00">life_observer</text>
</a>
</g>
</g>
<!-- Node3&#45;&gt;Node2 -->
<g id="edge2_Node000002_Node000003" class="edge">
<title>Node3&#45;&gt;Node2</title>
<g id="a_edge2_Node000002_Node000003"><a xlink:title=" ">
<path fill="none" stroke="#9a32cd" stroke-dasharray="5,2" d="M37.29,-122.65C37.21,-116.41 38.06,-109.63 41,-104 44.95,-96.43 52.16,-90.48 59.09,-86.14"/>
<polygon fill="#9a32cd" stroke="#9a32cd" points="33.83,-123.27 38.18,-132.93 40.81,-122.66 33.83,-123.27"/>
</a>
</g>
<text text-anchor="middle" x="67" y="-107" font-family="Helvetica,sans-Serif" font-size="10.00" fill="grey"> observer_</text>
</g>
<!-- Node4 -->
<g id="Node000004" class="node">
<title>Node4</title>
<g id="a_Node000004"><a xlink:href="classy3c_1_1internal_1_1life.html" target="_top" xlink:title="オブジェクトのライフタイムを管理するクラス">
<polygon fill="white" stroke="#666666" points="131,-152 99,-152 99,-133 131,-133 131,-152"/>
<text text-anchor="middle" x="115" y="-140" font-family="Helvetica,sans-Serif" font-size="10.00">life</text>
</a>
</g>
</g>
<!-- Node4&#45;&gt;Node2 -->
<g id="edge3_Node000002_Node000004" class="edge">
<title>Node4&#45;&gt;Node2</title>
<g id="a_edge3_Node000002_Node000004"><a xlink:title=" ">
<path fill="none" stroke="#9a32cd" stroke-dasharray="5,2" d="M104.72,-123.87C101.04,-117.59 96.85,-110.47 93,-104 89.48,-98.09 85.48,-91.46 82.36,-86.32"/>
<polygon fill="#9a32cd" stroke="#9a32cd" points="101.9,-125.98 109.96,-132.84 107.94,-122.44 101.9,-125.98"/>
</a>
</g>
<text text-anchor="middle" x="111.5" y="-107" font-family="Helvetica,sans-Serif" font-size="10.00" fill="grey"> life_</text>
</g>
</g>
</svg>
