<?xml version="1.0" encoding="UTF-8" standalone="no"?>
<!DOCTYPE svg PUBLIC "-//W3C//DTD SVG 1.1//EN"
 "http://www.w3.org/Graphics/SVG/1.1/DTD/svg11.dtd">
<!-- Generated by graphviz version 2.43.0 (0)
 -->
<!-- Title: wrap&lt; base_type &gt; Pages: 1 -->
<svg width="211pt" height="182pt"
 viewBox="0.00 0.00 211.00 182.00" xmlns="http://www.w3.org/2000/svg" xmlns:xlink="http://www.w3.org/1999/xlink">
<g id="graph0" class="graph" transform="scale(1 1) rotate(0) translate(4 178)">
<title>wrap&lt; base_type &gt;</title>
<!-- Node1 -->
<g id="Node000001" class="node">
<title>Node1</title>
<g id="a_Node000001"><a xlink:title="値型wrap: base_type型のデータと、このデータの生存状態を管理するクラス">
<polygon fill="#999999" stroke="#666666" points="129.5,-174 16.5,-174 16.5,-155 129.5,-155 129.5,-174"/>
<text text-anchor="middle" x="73" y="-162" font-family="Helvetica,sans-Serif" font-size="10.00">wrap&lt; base_type &gt;</text>
</a>
</g>
</g>
<!-- Node2 -->
<g id="Node000002" class="node">
<title>Node2</title>
<g id="a_Node000002"><a xlink:href="classy3c_1_1wrap.html" target="_top" xlink:title=" ">
<polygon fill="white" stroke="#666666" points="146,-97 0,-97 0,-67 146,-67 146,-97"/>
<text text-anchor="start" x="8" y="-85" font-family="Helvetica,sans-Serif" font-size="10.00">wrap&lt; std::remove_const</text>
<text text-anchor="middle" x="73" y="-74" font-family="Helvetica,sans-Serif" font-size="10.00">&lt; element_type &gt;::type &gt;</text>
</a>
</g>
</g>
<!-- Node1&#45;&gt;Node2 -->
<g id="edge1_Node000001_Node000002" class="edge">
<title>Node1&#45;&gt;Node2</title>
<g id="a_edge1_Node000001_Node000002"><a xlink:title=" ">
<path fill="none" stroke="orange" stroke-dasharray="5,2" d="M73,-144.6C73,-130.1 73,-110.4 73,-97.22"/>
<polygon fill="orange" stroke="orange" points="69.5,-144.89 73,-154.89 76.5,-144.89 69.5,-144.89"/>
</a>
</g>
<text text-anchor="start" x="73" y="-129" font-family="Helvetica,sans-Serif" font-size="10.00" fill="grey"> &lt; std::remove_const</text>
<text text-anchor="middle" x="138" y="-118" font-family="Helvetica,sans-Serif" font-size="10.00" fill="grey">&lt; element_type &gt;::type &gt;</text>
</g>
<!-- Node3 -->
<g id="Node000003" class="node">
<title>Node3</title>
<g id="a_Node000003"><a xlink:href="classy3c_1_1wrap__auto.html" target="_top" xlink:title=" ">
<polygon fill="white" stroke="#666666" points="132.5,-30 13.5,-30 13.5,0 132.5,0 132.5,-30"/>
<text text-anchor="start" x="21.5" y="-18" font-family="Helvetica,sans-Serif" font-size="10.00">wrap_auto&lt; element</text>
<text text-anchor="middle" x="73" y="-7" font-family="Helvetica,sans-Serif" font-size="10.00">_type &gt;</text>
</a>
</g>
</g>
<!-- Node2&#45;&gt;Node3 -->
<g id="edge2_Node000002_Node000003" class="edge">
<title>Node2&#45;&gt;Node3</title>
<g id="a_edge2_Node000002_Node000003"><a xlink:title=" ">
<path fill="none" stroke="#63b8ff" d="M73,-56.61C73,-47.65 73,-37.82 73,-30.08"/>
<polygon fill="#63b8ff" stroke="#63b8ff" points="69.5,-56.9 73,-66.9 76.5,-56.9 69.5,-56.9"/>
</a>
</g>
</g>
</g>
</svg>
