<?xml version="1.0" encoding="UTF-8" standalone="no"?>
<!DOCTYPE svg PUBLIC "-//W3C//DTD SVG 1.1//EN"
 "http://www.w3.org/Graphics/SVG/1.1/DTD/svg11.dtd">
<!-- Generated by graphviz version 2.43.0 (0)
 -->
<!-- Title: wrap&lt; element_type * &gt; Pages: 1 -->
<svg width="155pt" height="93pt"
 viewBox="0.00 0.00 154.50 93.00" xmlns="http://www.w3.org/2000/svg" xmlns:xlink="http://www.w3.org/1999/xlink">
<g id="graph0" class="graph" transform="scale(1 1) rotate(0) translate(4 89)">
<title>wrap&lt; element_type * &gt;</title>
<!-- Node1 -->
<g id="Node000001" class="node">
<title>Node1</title>
<g id="a_Node000001"><a xlink:title="ポインタ型wrap: element_type型のデータへのポインタと、 このポインタ自体の生存状態を管理するクラス">
<polygon fill="#999999" stroke="#666666" points="146.5,-19 7.5,-19 7.5,0 146.5,0 146.5,-19"/>
<text text-anchor="middle" x="77" y="-7" font-family="Helvetica,sans-Serif" font-size="10.00">wrap&lt; element_type * &gt;</text>
</a>
</g>
</g>
<!-- Node2 -->
<g id="Node000002" class="node">
<title>Node2</title>
<g id="a_Node000002"><a xlink:href="classy3c_1_1internal_1_1life__observer.html" target="_top" xlink:title="ライフタイムの状態を観測するクラス">
<polygon fill="white" stroke="#666666" points="80,-85 0,-85 0,-66 80,-66 80,-85"/>
<text text-anchor="middle" x="40" y="-73" font-family="Helvetica,sans-Serif" font-size="10.00">life_observer</text>
</a>
</g>
</g>
<!-- Node2&#45;&gt;Node1 -->
<g id="edge1_Node000001_Node000002" class="edge">
<title>Node2&#45;&gt;Node1</title>
<g id="a_edge1_Node000001_Node000002"><a xlink:title=" ">
<path fill="none" stroke="#9a32cd" stroke-dasharray="5,2" d="M37.29,-55.65C37.21,-49.41 38.06,-42.63 41,-37 44.95,-29.43 52.16,-23.48 59.09,-19.14"/>
<polygon fill="#9a32cd" stroke="#9a32cd" points="33.83,-56.27 38.18,-65.93 40.81,-55.66 33.83,-56.27"/>
</a>
</g>
<text text-anchor="middle" x="67" y="-40" font-family="Helvetica,sans-Serif" font-size="10.00" fill="grey"> observer_</text>
</g>
<!-- Node3 -->
<g id="Node000003" class="node">
<title>Node3</title>
<g id="a_Node000003"><a xlink:href="classy3c_1_1internal_1_1life.html" target="_top" xlink:title="オブジェクトのライフタイムを管理するクラス">
<polygon fill="white" stroke="#666666" points="131,-85 99,-85 99,-66 131,-66 131,-85"/>
<text text-anchor="middle" x="115" y="-73" font-family="Helvetica,sans-Serif" font-size="10.00">life</text>
</a>
</g>
</g>
<!-- Node3&#45;&gt;Node1 -->
<g id="edge2_Node000001_Node000003" class="edge">
<title>Node3&#45;&gt;Node1</title>
<g id="a_edge2_Node000001_Node000003"><a xlink:title=" ">
<path fill="none" stroke="#9a32cd" stroke-dasharray="5,2" d="M104.72,-56.87C101.04,-50.59 96.85,-43.47 93,-37 89.48,-31.09 85.48,-24.46 82.36,-19.32"/>
<polygon fill="#9a32cd" stroke="#9a32cd" points="101.9,-58.98 109.96,-65.84 107.94,-55.44 101.9,-58.98"/>
</a>
</g>
<text text-anchor="middle" x="111.5" y="-40" font-family="Helvetica,sans-Serif" font-size="10.00" fill="grey"> life_</text>
</g>
</g>
</svg>
