<?xml version="1.0" encoding="UTF-8" standalone="no"?>
<!DOCTYPE svg PUBLIC "-//W3C//DTD SVG 1.1//EN"
 "http://www.w3.org/Graphics/SVG/1.1/DTD/svg11.dtd">
<!-- Generated by graphviz version 2.43.0 (0)
 -->
<!-- Title: Graphical Class Hierarchy Pages: 1 -->
<svg width="228pt" height="249pt"
 viewBox="0.00 0.00 228.00 249.00" xmlns="http://www.w3.org/2000/svg" xmlns:xlink="http://www.w3.org/1999/xlink">
<g id="graph0" class="graph" transform="scale(1 1) rotate(0) translate(4 245)">
<title>Graphical Class Hierarchy</title>
<!-- Node0 -->
<g id="Node000000" class="node">
<title>Node0</title>
<g id="a_Node000000"><a xlink:title=" ">
<polygon fill="#e0e0e0" stroke="#999999" points="65,-130 0,-130 0,-111 65,-111 65,-130"/>
<text text-anchor="middle" x="32.5" y="-118" font-family="Helvetica,sans-Serif" font-size="10.00">exception</text>
</a>
</g>
</g>
<!-- Node1 -->
<g id="Node000001" class="node">
<title>Node1</title>
<g id="a_Node000001"><a xlink:href="classy3c_1_1internal_1_1ub__access__deleted.html" target="_top" xlink:title=" ">
<polygon fill="white" stroke="#666666" points="215,-241 106,-241 106,-222 215,-222 215,-241"/>
<text text-anchor="middle" x="160.5" y="-229" font-family="Helvetica,sans-Serif" font-size="10.00">ub_access_deleted</text>
</a>
</g>
</g>
<!-- Node0&#45;&gt;Node1 -->
<g id="edge1_Node000000_Node000001" class="edge">
<title>Node0&#45;&gt;Node1</title>
<g id="a_edge1_Node000000_Node000001"><a xlink:title=" ">
<path fill="none" stroke="#63b8ff" d="M42.53,-139.49C53.5,-160.56 73.94,-194.15 101,-213.5 105.75,-216.9 111.17,-219.67 116.73,-221.92"/>
<polygon fill="#63b8ff" stroke="#63b8ff" points="45.52,-137.64 37.92,-130.26 39.26,-140.77 45.52,-137.64"/>
</a>
</g>
</g>
<!-- Node2 -->
<g id="Node000002" class="node">
<title>Node2</title>
<g id="a_Node000002"><a xlink:href="classy3c_1_1internal_1_1ub__access__nullptr.html" target="_top" xlink:title=" ">
<polygon fill="white" stroke="#666666" points="212.5,-204 108.5,-204 108.5,-185 212.5,-185 212.5,-204"/>
<text text-anchor="middle" x="160.5" y="-192" font-family="Helvetica,sans-Serif" font-size="10.00">ub_access_nullptr</text>
</a>
</g>
</g>
<!-- Node0&#45;&gt;Node2 -->
<g id="edge2_Node000000_Node000002" class="edge">
<title>Node0&#45;&gt;Node2</title>
<g id="a_edge2_Node000000_Node000002"><a xlink:title=" ">
<path fill="none" stroke="#63b8ff" d="M49.85,-137.27C62.74,-149.64 81.7,-166.07 101,-176.5 107.17,-179.83 114.05,-182.65 120.86,-184.98"/>
<polygon fill="#63b8ff" stroke="#63b8ff" points="52.24,-134.71 42.67,-130.18 47.33,-139.69 52.24,-134.71"/>
</a>
</g>
</g>
<!-- Node3 -->
<g id="Node000003" class="node">
<title>Node3</title>
<g id="a_Node000003"><a xlink:href="classy3c_1_1internal_1_1ub__invalid__iter.html" target="_top" xlink:title=" ">
<polygon fill="white" stroke="#666666" points="205,-167 116,-167 116,-148 205,-148 205,-167"/>
<text text-anchor="middle" x="160.5" y="-155" font-family="Helvetica,sans-Serif" font-size="10.00">ub_invalid_iter</text>
</a>
</g>
</g>
<!-- Node0&#45;&gt;Node3 -->
<g id="edge3_Node000000_Node000003" class="edge">
<title>Node0&#45;&gt;Node3</title>
<g id="a_edge3_Node000000_Node000003"><a xlink:title=" ">
<path fill="none" stroke="#63b8ff" d="M74.91,-132.66C91.78,-137.61 110.99,-143.25 126.84,-147.91"/>
<polygon fill="#63b8ff" stroke="#63b8ff" points="75.88,-129.3 65.3,-129.84 73.9,-136.01 75.88,-129.3"/>
</a>
</g>
</g>
<!-- Node4 -->
<g id="Node000004" class="node">
<title>Node4</title>
<g id="a_Node000004"><a xlink:href="classy3c_1_1internal_1_1ub__iter__after__end.html" target="_top" xlink:title=" ">
<polygon fill="white" stroke="#666666" points="211,-130 110,-130 110,-111 211,-111 211,-130"/>
<text text-anchor="middle" x="160.5" y="-118" font-family="Helvetica,sans-Serif" font-size="10.00">ub_iter_after_end</text>
</a>
</g>
</g>
<!-- Node0&#45;&gt;Node4 -->
<g id="edge4_Node000000_Node000004" class="edge">
<title>Node0&#45;&gt;Node4</title>
<g id="a_edge4_Node000000_Node000004"><a xlink:title=" ">
<path fill="none" stroke="#63b8ff" d="M75.44,-120.5C86.37,-120.5 98.26,-120.5 109.57,-120.5"/>
<polygon fill="#63b8ff" stroke="#63b8ff" points="75.3,-117 65.3,-120.5 75.3,-124 75.3,-117"/>
</a>
</g>
</g>
<!-- Node5 -->
<g id="Node000005" class="node">
<title>Node5</title>
<g id="a_Node000005"><a xlink:href="classy3c_1_1internal_1_1ub__iter__before__begin.html" target="_top" xlink:title=" ">
<polygon fill="white" stroke="#666666" points="220,-93 101,-93 101,-74 220,-74 220,-93"/>
<text text-anchor="middle" x="160.5" y="-81" font-family="Helvetica,sans-Serif" font-size="10.00">ub_iter_before_begin</text>
</a>
</g>
</g>
<!-- Node0&#45;&gt;Node5 -->
<g id="edge5_Node000000_Node000005" class="edge">
<title>Node0&#45;&gt;Node5</title>
<g id="a_edge5_Node000000_Node000005"><a xlink:title=" ">
<path fill="none" stroke="#63b8ff" d="M74.91,-108.34C91.78,-103.39 110.99,-97.75 126.84,-93.09"/>
<polygon fill="#63b8ff" stroke="#63b8ff" points="73.9,-104.99 65.3,-111.16 75.88,-111.7 73.9,-104.99"/>
</a>
</g>
</g>
<!-- Node6 -->
<g id="Node000006" class="node">
<title>Node6</title>
<g id="a_Node000006"><a xlink:href="classy3c_1_1internal_1_1ub__out__of__range.html" target="_top" xlink:title=" ">
<polygon fill="white" stroke="#666666" points="209.5,-56 111.5,-56 111.5,-37 209.5,-37 209.5,-56"/>
<text text-anchor="middle" x="160.5" y="-44" font-family="Helvetica,sans-Serif" font-size="10.00">ub_out_of_range</text>
</a>
</g>
</g>
<!-- Node0&#45;&gt;Node6 -->
<g id="edge6_Node000000_Node000006" class="edge">
<title>Node0&#45;&gt;Node6</title>
<g id="a_edge6_Node000000_Node000006"><a xlink:title=" ">
<path fill="none" stroke="#63b8ff" d="M50.4,-103.71C63.33,-91.67 82.09,-75.8 101,-65.5 107.85,-61.77 115.54,-58.62 123.05,-56.03"/>
<polygon fill="#63b8ff" stroke="#63b8ff" points="47.97,-101.2 43.16,-110.64 52.81,-106.26 47.97,-101.2"/>
</a>
</g>
</g>
<!-- Node7 -->
<g id="Node000007" class="node">
<title>Node7</title>
<g id="a_Node000007"><a xlink:href="classy3c_1_1internal_1_1ub__wrong__iter.html" target="_top" xlink:title=" ">
<polygon fill="white" stroke="#666666" points="203.5,-19 117.5,-19 117.5,0 203.5,0 203.5,-19"/>
<text text-anchor="middle" x="160.5" y="-7" font-family="Helvetica,sans-Serif" font-size="10.00">ub_wrong_iter</text>
</a>
</g>
</g>
<!-- Node0&#45;&gt;Node7 -->
<g id="edge7_Node000000_Node000007" class="edge">
<title>Node0&#45;&gt;Node7</title>
<g id="a_edge7_Node000000_Node000007"><a xlink:title=" ">
<path fill="none" stroke="#63b8ff" d="M42.64,-101.8C53.7,-81.02 74.23,-47.85 101,-28.5 106.37,-24.62 112.56,-21.51 118.88,-19.01"/>
<polygon fill="#63b8ff" stroke="#63b8ff" points="39.42,-100.39 37.98,-110.89 45.65,-103.58 39.42,-100.39"/>
</a>
</g>
</g>
</g>
</svg>
