<?xml version="1.0" encoding="UTF-8" standalone="no"?>
<!DOCTYPE svg PUBLIC "-//W3C//DTD SVG 1.1//EN"
 "http://www.w3.org/Graphics/SVG/1.1/DTD/svg11.dtd">
<!-- Generated by graphviz version 2.43.0 (0)
 -->
<!-- Title: Graphical Class Hierarchy Pages: 1 -->
<svg width="217pt" height="64pt"
 viewBox="0.00 0.00 217.00 64.00" xmlns="http://www.w3.org/2000/svg" xmlns:xlink="http://www.w3.org/1999/xlink">
<g id="graph0" class="graph" transform="scale(1 1) rotate(0) translate(4 60)">
<title>Graphical Class Hierarchy</title>
<!-- Node0 -->
<g id="Node000000" class="node">
<title>Node0</title>
<g id="a_Node000000"><a xlink:href="classy3c_1_1internal_1_1exception__base.html" target="_top" xlink:title="y3cの例外クラスのベース。">
<polygon fill="white" stroke="#666666" points="93,-56 0,-56 0,-37 93,-37 93,-56"/>
<text text-anchor="middle" x="46.5" y="-44" font-family="Helvetica,sans-Serif" font-size="10.00">exception_base</text>
</a>
</g>
</g>
<!-- Node1 -->
<g id="Node000001" class="node">
<title>Node1</title>
<g id="a_Node000001"><a xlink:href="classy3c_1_1out__of__range.html" target="_top" xlink:title=" ">
<polygon fill="white" stroke="#666666" points="209,-37 129,-37 129,-18 209,-18 209,-37"/>
<text text-anchor="middle" x="169" y="-25" font-family="Helvetica,sans-Serif" font-size="10.00">out_of_range</text>
</a>
</g>
</g>
<!-- Node0&#45;&gt;Node1 -->
<g id="edge1_Node000000_Node000001" class="edge">
<title>Node0&#45;&gt;Node1</title>
<g id="a_edge1_Node000000_Node000001"><a xlink:title=" ">
<path fill="none" stroke="#63b8ff" d="M103.1,-37.73C111.74,-36.37 120.51,-34.99 128.69,-33.7"/>
<polygon fill="#63b8ff" stroke="#63b8ff" points="102.39,-34.3 93.06,-39.32 103.48,-41.22 102.39,-34.3"/>
</a>
</g>
</g>
<!-- Node2 -->
<g id="Node000002" class="node">
<title>Node2</title>
<g id="a_Node000002"><a xlink:title=" ">
<polygon fill="#e0e0e0" stroke="#999999" points="86.5,-19 6.5,-19 6.5,0 86.5,0 86.5,-19"/>
<text text-anchor="middle" x="46.5" y="-7" font-family="Helvetica,sans-Serif" font-size="10.00">out_of_range</text>
</a>
</g>
</g>
<!-- Node2&#45;&gt;Node1 -->
<g id="edge2_Node000002_Node000001" class="edge">
<title>Node2&#45;&gt;Node1</title>
<g id="a_edge2_Node000002_Node000001"><a xlink:title=" ">
<path fill="none" stroke="#63b8ff" d="M96.65,-16.84C107.3,-18.43 118.44,-20.1 128.66,-21.62"/>
<polygon fill="#63b8ff" stroke="#63b8ff" points="97.03,-13.36 86.62,-15.34 96,-20.28 97.03,-13.36"/>
</a>
</g>
</g>
</g>
</svg>
