<?xml version="1.0" encoding="UTF-8" standalone="no"?>
<!DOCTYPE svg PUBLIC "-//W3C//DTD SVG 1.1//EN"
 "http://www.w3.org/Graphics/SVG/1.1/DTD/svg11.dtd">
<!-- Generated by graphviz version 2.43.0 (0)
 -->
<!-- Title: include/y3c/iterator.h Pages: 1 -->
<svg width="505pt" height="302pt"
 viewBox="0.00 0.00 505.00 302.00" xmlns="http://www.w3.org/2000/svg" xmlns:xlink="http://www.w3.org/1999/xlink">
<g id="graph0" class="graph" transform="scale(1 1) rotate(0) translate(4 298)">
<title>include/y3c/iterator.h</title>
<!-- Node1 -->
<g id="Node000001" class="node">
<title>Node1</title>
<g id="a_Node000001"><a xlink:title=" ">
<polygon fill="#999999" stroke="#666666" points="410.5,-294 291.5,-294 291.5,-275 410.5,-275 410.5,-294"/>
<text text-anchor="middle" x="351" y="-282" font-family="Helvetica,sans-Serif" font-size="10.00">include/y3c/iterator.h</text>
</a>
</g>
</g>
<!-- Node2 -->
<g id="Node000002" class="node">
<title>Node2</title>
<g id="a_Node000002"><a xlink:href="terminate_8h.html" target="_top" xlink:title=" ">
<polygon fill="white" stroke="#666666" points="257,-129 163,-129 163,-110 257,-110 257,-129"/>
<text text-anchor="middle" x="210" y="-117" font-family="Helvetica,sans-Serif" font-size="10.00">y3c/terminate.h</text>
</a>
</g>
</g>
<!-- Node1&#45;&gt;Node2 -->
<g id="edge1_Node000001_Node000002" class="edge">
<title>Node1&#45;&gt;Node2</title>
<g id="a_edge1_Node000001_Node000002"><a xlink:title=" ">
<path fill="none" stroke="#63b8ff" d="M305.5,-274.99C258.06,-263.43 186.12,-237.7 153,-184 141.27,-164.97 163.17,-146.32 183.13,-134.2"/>
<polygon fill="#63b8ff" stroke="#63b8ff" points="185.09,-137.11 192.04,-129.12 181.62,-131.03 185.09,-137.11"/>
</a>
</g>
</g>
<!-- Node7 -->
<g id="Node000007" class="node">
<title>Node7</title>
<g id="a_Node000007"><a xlink:title=" ">
<polygon fill="#e0e0e0" stroke="#999999" points="497,-74 439,-74 439,-55 497,-55 497,-74"/>
<text text-anchor="middle" x="468" y="-62" font-family="Helvetica,sans-Serif" font-size="10.00">memory</text>
</a>
</g>
</g>
<!-- Node1&#45;&gt;Node7 -->
<g id="edge22_Node000001_Node000007" class="edge">
<title>Node1&#45;&gt;Node7</title>
<g id="a_edge22_Node000001_Node000007"><a xlink:title=" ">
<path fill="none" stroke="#63b8ff" d="M358.18,-274.85C371.9,-258.06 402.32,-219.58 423,-184 436.49,-160.79 438.39,-154.07 448,-129 453.69,-114.14 459.05,-96.9 462.78,-84.13"/>
<polygon fill="#63b8ff" stroke="#63b8ff" points="466.22,-84.82 465.61,-74.24 459.49,-82.89 466.22,-84.82"/>
</a>
</g>
</g>
<!-- Node10 -->
<g id="Node000010" class="node">
<title>Node10</title>
<g id="a_Node000010"><a xlink:href="life_8h.html" target="_top" xlink:title=" ">
<polygon fill="white" stroke="#666666" points="414,-184 352,-184 352,-165 414,-165 414,-184"/>
<text text-anchor="middle" x="383" y="-172" font-family="Helvetica,sans-Serif" font-size="10.00">y3c/life.h</text>
</a>
</g>
</g>
<!-- Node1&#45;&gt;Node10 -->
<g id="edge11_Node000001_Node000010" class="edge">
<title>Node1&#45;&gt;Node10</title>
<g id="a_edge11_Node000001_Node000010"><a xlink:title=" ">
<path fill="none" stroke="#63b8ff" d="M353.62,-274.66C358.82,-257.09 370.57,-217.45 377.53,-193.95"/>
<polygon fill="#63b8ff" stroke="#63b8ff" points="380.95,-194.74 380.43,-184.16 374.24,-192.75 380.95,-194.74"/>
</a>
</g>
</g>
<!-- Node12 -->
<g id="Node000012" class="node">
<title>Node12</title>
<g id="a_Node000012"><a xlink:href="wrap_8h.html" target="_top" xlink:title=" ">
<polygon fill="white" stroke="#666666" points="355,-239 285,-239 285,-220 355,-220 355,-239"/>
<text text-anchor="middle" x="320" y="-227" font-family="Helvetica,sans-Serif" font-size="10.00">y3c/wrap.h</text>
</a>
</g>
</g>
<!-- Node1&#45;&gt;Node12 -->
<g id="edge15_Node000001_Node000012" class="edge">
<title>Node1&#45;&gt;Node12</title>
<g id="a_edge15_Node000001_Node000012"><a xlink:title=" ">
<path fill="none" stroke="#63b8ff" d="M345.88,-274.75C341.64,-267.49 335.47,-256.95 330.22,-247.98"/>
<polygon fill="#63b8ff" stroke="#63b8ff" points="333.09,-245.95 325.02,-239.09 327.05,-249.49 333.09,-245.95"/>
</a>
</g>
</g>
<!-- Node3 -->
<g id="Node000003" class="node">
<title>Node3</title>
<g id="a_Node000003"><a xlink:href="y3c-config_8h.html" target="_top" xlink:title=" ">
<polygon fill="white" stroke="#666666" points="162,-19 86,-19 86,0 162,0 162,-19"/>
<text text-anchor="middle" x="124" y="-7" font-family="Helvetica,sans-Serif" font-size="10.00">y3c&#45;config.h</text>
</a>
</g>
</g>
<!-- Node2&#45;&gt;Node3 -->
<g id="edge2_Node000002_Node000003" class="edge">
<title>Node2&#45;&gt;Node3</title>
<g id="a_edge2_Node000002_Node000003"><a xlink:title=" ">
<path fill="none" stroke="#63b8ff" d="M200.62,-109.72C191.57,-101.04 177.7,-87.18 167,-74 154.85,-59.03 142.68,-40.67 134.41,-27.55"/>
<polygon fill="#63b8ff" stroke="#63b8ff" points="137.38,-25.69 129.13,-19.05 131.43,-29.39 137.38,-25.69"/>
</a>
</g>
</g>
<!-- Node4 -->
<g id="Node000004" class="node">
<title>Node4</title>
<g id="a_Node000004"><a xlink:href="what_8h.html" target="_top" xlink:title=" ">
<polygon fill="white" stroke="#666666" points="120,-74 50,-74 50,-55 120,-55 120,-74"/>
<text text-anchor="middle" x="85" y="-62" font-family="Helvetica,sans-Serif" font-size="10.00">y3c/what.h</text>
</a>
</g>
</g>
<!-- Node2&#45;&gt;Node4 -->
<g id="edge3_Node000002_Node000004" class="edge">
<title>Node2&#45;&gt;Node4</title>
<g id="a_edge3_Node000002_Node000004"><a xlink:title=" ">
<path fill="none" stroke="#63b8ff" d="M189.92,-109.98C169.63,-101.38 138.04,-87.99 114.83,-78.15"/>
<polygon fill="#63b8ff" stroke="#63b8ff" points="116.02,-74.85 105.45,-74.17 113.29,-81.3 116.02,-74.85"/>
</a>
</g>
</g>
<!-- Node5 -->
<g id="Node000005" class="node">
<title>Node5</title>
<g id="a_Node000005"><a xlink:title=" ">
<polygon fill="#e0e0e0" stroke="#999999" points="44,-19 0,-19 0,0 44,0 44,-19"/>
<text text-anchor="middle" x="22" y="-7" font-family="Helvetica,sans-Serif" font-size="10.00">string</text>
</a>
</g>
</g>
<!-- Node2&#45;&gt;Node5 -->
<g id="edge7_Node000002_Node000005" class="edge">
<title>Node2&#45;&gt;Node5</title>
<g id="a_edge7_Node000002_Node000005"><a xlink:title=" ">
<path fill="none" stroke="#63b8ff" d="M162.76,-118.12C125.06,-115.28 73.38,-105.32 41,-74 28.99,-62.38 24.49,-43.52 22.85,-29.36"/>
<polygon fill="#63b8ff" stroke="#63b8ff" points="26.33,-28.94 22.05,-19.25 19.35,-29.49 26.33,-28.94"/>
</a>
</g>
</g>
<!-- Node6 -->
<g id="Node000006" class="node">
<title>Node6</title>
<g id="a_Node000006"><a xlink:title=" ">
<polygon fill="#e0e0e0" stroke="#999999" points="241.5,-74 176.5,-74 176.5,-55 241.5,-55 241.5,-74"/>
<text text-anchor="middle" x="209" y="-62" font-family="Helvetica,sans-Serif" font-size="10.00">stdexcept</text>
</a>
</g>
</g>
<!-- Node2&#45;&gt;Node6 -->
<g id="edge6_Node000002_Node000006" class="edge">
<title>Node2&#45;&gt;Node6</title>
<g id="a_edge6_Node000002_Node000006"><a xlink:title=" ">
<path fill="none" stroke="#63b8ff" d="M209.83,-109.75C209.7,-102.8 209.52,-92.85 209.35,-84.13"/>
<polygon fill="#63b8ff" stroke="#63b8ff" points="212.85,-84.02 209.16,-74.09 205.85,-84.15 212.85,-84.02"/>
</a>
</g>
</g>
<!-- Node2&#45;&gt;Node7 -->
<g id="edge8_Node000002_Node000007" class="edge">
<title>Node2&#45;&gt;Node7</title>
<g id="a_edge8_Node000002_Node000007"><a xlink:title=" ">
<path fill="none" stroke="#63b8ff" d="M253.47,-109.98C295.8,-101.62 362.24,-88.34 429.1,-74.16"/>
<polygon fill="#63b8ff" stroke="#63b8ff" points="429.91,-77.56 438.97,-72.06 428.46,-70.72 429.91,-77.56"/>
</a>
</g>
</g>
<!-- Node8 -->
<g id="Node000008" class="node">
<title>Node8</title>
<g id="a_Node000008"><a xlink:title=" ">
<polygon fill="#e0e0e0" stroke="#999999" points="352.5,-74 259.5,-74 259.5,-55 352.5,-55 352.5,-74"/>
<text text-anchor="middle" x="306" y="-62" font-family="Helvetica,sans-Serif" font-size="10.00">unordered_map</text>
</a>
</g>
</g>
<!-- Node2&#45;&gt;Node8 -->
<g id="edge9_Node000002_Node000008" class="edge">
<title>Node2&#45;&gt;Node8</title>
<g id="a_edge9_Node000002_Node000008"><a xlink:title=" ">
<path fill="none" stroke="#63b8ff" d="M225.42,-109.98C240.45,-101.69 263.54,-88.94 281.16,-79.22"/>
<polygon fill="#63b8ff" stroke="#63b8ff" points="283.23,-82.07 290.3,-74.17 279.85,-75.94 283.23,-82.07"/>
</a>
</g>
</g>
<!-- Node9 -->
<g id="Node000009" class="node">
<title>Node9</title>
<g id="a_Node000009"><a xlink:title=" ">
<polygon fill="#e0e0e0" stroke="#999999" points="421,-74 371,-74 371,-55 421,-55 421,-74"/>
<text text-anchor="middle" x="396" y="-62" font-family="Helvetica,sans-Serif" font-size="10.00">atomic</text>
</a>
</g>
</g>
<!-- Node2&#45;&gt;Node9 -->
<g id="edge10_Node000002_Node000009" class="edge">
<title>Node2&#45;&gt;Node9</title>
<g id="a_edge10_Node000002_Node000009"><a xlink:title=" ">
<path fill="none" stroke="#63b8ff" d="M239.88,-109.98C272.97,-100.56 326.24,-85.38 361.18,-75.42"/>
<polygon fill="#63b8ff" stroke="#63b8ff" points="362.3,-78.74 370.96,-72.63 360.38,-72.01 362.3,-78.74"/>
</a>
</g>
</g>
<!-- Node4&#45;&gt;Node3 -->
<g id="edge4_Node000004_Node000003" class="edge">
<title>Node4&#45;&gt;Node3</title>
<g id="a_edge4_Node000004_Node000003"><a xlink:title=" ">
<path fill="none" stroke="#63b8ff" d="M91.44,-54.75C96.89,-47.34 104.86,-36.5 111.56,-27.41"/>
<polygon fill="#63b8ff" stroke="#63b8ff" points="114.57,-29.22 117.68,-19.09 108.93,-25.07 114.57,-29.22"/>
</a>
</g>
</g>
<!-- Node4&#45;&gt;Node5 -->
<g id="edge5_Node000004_Node000005" class="edge">
<title>Node4&#45;&gt;Node5</title>
<g id="a_edge5_Node000004_Node000005"><a xlink:title=" ">
<path fill="none" stroke="#63b8ff" d="M74.88,-54.98C65.56,-47.15 51.53,-35.34 40.26,-25.86"/>
<polygon fill="#63b8ff" stroke="#63b8ff" points="42.21,-22.93 32.31,-19.17 37.71,-28.29 42.21,-22.93"/>
</a>
</g>
</g>
<!-- Node10&#45;&gt;Node2 -->
<g id="edge12_Node000010_Node000002" class="edge">
<title>Node10&#45;&gt;Node2</title>
<g id="a_edge12_Node000010_Node000002"><a xlink:title=" ">
<path fill="none" stroke="#63b8ff" d="M355.2,-164.98C326.03,-156.05 280,-141.94 247.6,-132.02"/>
<polygon fill="#63b8ff" stroke="#63b8ff" points="248.6,-128.66 238.01,-129.08 246.55,-135.36 248.6,-128.66"/>
</a>
</g>
</g>
<!-- Node10&#45;&gt;Node7 -->
<g id="edge13_Node000010_Node000007" class="edge">
<title>Node10&#45;&gt;Node7</title>
<g id="a_edge13_Node000010_Node000007"><a xlink:title=" ">
<path fill="none" stroke="#63b8ff" d="M380.4,-164.95C376.99,-152.02 372.61,-127.17 383,-110 393.19,-93.17 412.07,-82.39 429.46,-75.67"/>
<polygon fill="#63b8ff" stroke="#63b8ff" points="430.63,-78.97 438.9,-72.34 428.3,-72.37 430.63,-78.97"/>
</a>
</g>
</g>
<!-- Node11 -->
<g id="Node000011" class="node">
<title>Node11</title>
<g id="a_Node000011"><a xlink:title=" ">
<polygon fill="#e0e0e0" stroke="#999999" points="439.5,-129 392.5,-129 392.5,-110 439.5,-110 439.5,-129"/>
<text text-anchor="middle" x="416" y="-117" font-family="Helvetica,sans-Serif" font-size="10.00">vector</text>
</a>
</g>
</g>
<!-- Node10&#45;&gt;Node11 -->
<g id="edge14_Node000010_Node000011" class="edge">
<title>Node10&#45;&gt;Node11</title>
<g id="a_edge14_Node000010_Node000011"><a xlink:title=" ">
<path fill="none" stroke="#63b8ff" d="M388.45,-164.75C393.01,-157.42 399.67,-146.73 405.29,-137.7"/>
<polygon fill="#63b8ff" stroke="#63b8ff" points="408.34,-139.43 410.65,-129.09 402.4,-135.73 408.34,-139.43"/>
</a>
</g>
</g>
<!-- Node12&#45;&gt;Node2 -->
<g id="edge16_Node000012_Node000002" class="edge">
<title>Node12&#45;&gt;Node2</title>
<g id="a_edge16_Node000012_Node000002"><a xlink:title=" ">
<path fill="none" stroke="#63b8ff" d="M313.5,-219.82C303.81,-207.15 284.72,-183.11 266,-165 254.87,-154.24 241.3,-143.4 230.31,-135.12"/>
<polygon fill="#63b8ff" stroke="#63b8ff" points="232.26,-132.21 222.14,-129.07 228.09,-137.84 232.26,-132.21"/>
</a>
</g>
</g>
<!-- Node12&#45;&gt;Node7 -->
<g id="edge21_Node000012_Node000007" class="edge">
<title>Node12&#45;&gt;Node7</title>
<g id="a_edge21_Node000012_Node000007"><a xlink:title=" ">
<path fill="none" stroke="#63b8ff" d="M321.6,-219.71C326,-198.02 340.25,-141.43 374,-110 389.68,-95.4 411.02,-84.77 429.41,-77.57"/>
<polygon fill="#63b8ff" stroke="#63b8ff" points="430.83,-80.78 438.98,-74.02 428.39,-74.22 430.83,-80.78"/>
</a>
</g>
</g>
<!-- Node12&#45;&gt;Node10 -->
<g id="edge17_Node000012_Node000010" class="edge">
<title>Node12&#45;&gt;Node10</title>
<g id="a_edge17_Node000012_Node000010"><a xlink:title=" ">
<path fill="none" stroke="#63b8ff" d="M330.12,-219.98C339.44,-212.15 353.47,-200.34 364.74,-190.86"/>
<polygon fill="#63b8ff" stroke="#63b8ff" points="367.29,-193.29 372.69,-184.17 362.79,-187.93 367.29,-193.29"/>
</a>
</g>
</g>
<!-- Node13 -->
<g id="Node000013" class="node">
<title>Node13</title>
<g id="a_Node000013"><a xlink:href="typename_8h.html" target="_top" xlink:title=" ">
<polygon fill="white" stroke="#666666" points="257.5,-184 162.5,-184 162.5,-165 257.5,-165 257.5,-184"/>
<text text-anchor="middle" x="210" y="-172" font-family="Helvetica,sans-Serif" font-size="10.00">y3c/typename.h</text>
</a>
</g>
</g>
<!-- Node12&#45;&gt;Node13 -->
<g id="edge18_Node000012_Node000013" class="edge">
<title>Node12&#45;&gt;Node13</title>
<g id="a_edge18_Node000012_Node000013"><a xlink:title=" ">
<path fill="none" stroke="#63b8ff" d="M302.33,-219.98C284.71,-211.5 257.42,-198.35 237.07,-188.54"/>
<polygon fill="#63b8ff" stroke="#63b8ff" points="238.52,-185.36 227.99,-184.17 235.48,-191.66 238.52,-185.36"/>
</a>
</g>
</g>
<!-- Node13&#45;&gt;Node2 -->
<g id="edge19_Node000013_Node000002" class="edge">
<title>Node13&#45;&gt;Node2</title>
<g id="a_edge19_Node000013_Node000002"><a xlink:title=" ">
<path fill="none" stroke="#63b8ff" d="M210,-164.75C210,-157.8 210,-147.85 210,-139.13"/>
<polygon fill="#63b8ff" stroke="#63b8ff" points="213.5,-139.09 210,-129.09 206.5,-139.09 213.5,-139.09"/>
</a>
</g>
</g>
<!-- Node13&#45;&gt;Node5 -->
<g id="edge20_Node000013_Node000005" class="edge">
<title>Node13&#45;&gt;Node5</title>
<g id="a_edge20_Node000013_Node000005"><a xlink:title=" ">
<path fill="none" stroke="#63b8ff" d="M172.92,-164.97C129.49,-152.82 59.26,-126.01 26,-74 17.54,-60.77 17.24,-42.65 18.65,-29.15"/>
<polygon fill="#63b8ff" stroke="#63b8ff" points="22.14,-29.5 20.09,-19.1 15.21,-28.51 22.14,-29.5"/>
</a>
</g>
</g>
</g>
</svg>
