<?xml version="1.0" encoding="UTF-8" standalone="no"?>
<!DOCTYPE svg PUBLIC "-//W3C//DTD SVG 1.1//EN"
 "http://www.w3.org/Graphics/SVG/1.1/DTD/svg11.dtd">
<!-- Generated by graphviz version 2.43.0 (0)
 -->
<!-- Title: include/y3c/life.h Pages: 1 -->
<svg width="497pt" height="192pt"
 viewBox="0.00 0.00 497.00 192.00" xmlns="http://www.w3.org/2000/svg" xmlns:xlink="http://www.w3.org/1999/xlink">
<g id="graph0" class="graph" transform="scale(1 1) rotate(0) translate(4 188)">
<title>include/y3c/life.h</title>
<!-- Node1 -->
<g id="Node000001" class="node">
<title>Node1</title>
<g id="a_Node000001"><a xlink:title=" ">
<polygon fill="#999999" stroke="#666666" points="442,-184 342,-184 342,-165 442,-165 442,-184"/>
<text text-anchor="middle" x="392" y="-172" font-family="Helvetica,sans-Serif" font-size="10.00">include/y3c/life.h</text>
</a>
</g>
</g>
<!-- Node2 -->
<g id="Node000002" class="node">
<title>Node2</title>
<g id="a_Node000002"><a xlink:href="terminate_8h.html" target="_top" xlink:title=" ">
<polygon fill="white" stroke="#666666" points="296,-129 202,-129 202,-110 296,-110 296,-129"/>
<text text-anchor="middle" x="249" y="-117" font-family="Helvetica,sans-Serif" font-size="10.00">y3c/terminate.h</text>
</a>
</g>
</g>
<!-- Node1&#45;&gt;Node2 -->
<g id="edge1_Node000001_Node000002" class="edge">
<title>Node1&#45;&gt;Node2</title>
<g id="a_edge1_Node000001_Node000002"><a xlink:title=" ">
<path fill="none" stroke="#63b8ff" d="M369.02,-164.98C345.5,-156.27 308.71,-142.63 282.06,-132.75"/>
<polygon fill="#63b8ff" stroke="#63b8ff" points="282.99,-129.36 272.39,-129.17 280.55,-135.93 282.99,-129.36"/>
</a>
</g>
</g>
<!-- Node7 -->
<g id="Node000007" class="node">
<title>Node7</title>
<g id="a_Node000007"><a xlink:title=" ">
<polygon fill="#e0e0e0" stroke="#999999" points="489,-74 431,-74 431,-55 489,-55 489,-74"/>
<text text-anchor="middle" x="460" y="-62" font-family="Helvetica,sans-Serif" font-size="10.00">memory</text>
</a>
</g>
</g>
<!-- Node1&#45;&gt;Node7 -->
<g id="edge11_Node000001_Node000007" class="edge">
<title>Node1&#45;&gt;Node7</title>
<g id="a_edge11_Node000001_Node000007"><a xlink:title=" ">
<path fill="none" stroke="#63b8ff" d="M393.3,-164.68C395.51,-151.83 400.88,-127.58 412,-110 419.24,-98.56 430.13,-88.13 439.71,-80.25"/>
<polygon fill="#63b8ff" stroke="#63b8ff" points="441.95,-82.94 447.67,-74.02 437.64,-77.43 441.95,-82.94"/>
</a>
</g>
</g>
<!-- Node10 -->
<g id="Node000010" class="node">
<title>Node10</title>
<g id="a_Node000010"><a xlink:title=" ">
<polygon fill="#e0e0e0" stroke="#999999" points="467.5,-129 420.5,-129 420.5,-110 467.5,-110 467.5,-129"/>
<text text-anchor="middle" x="444" y="-117" font-family="Helvetica,sans-Serif" font-size="10.00">vector</text>
</a>
</g>
</g>
<!-- Node1&#45;&gt;Node10 -->
<g id="edge12_Node000001_Node000010" class="edge">
<title>Node1&#45;&gt;Node10</title>
<g id="a_edge12_Node000001_Node000010"><a xlink:title=" ">
<path fill="none" stroke="#63b8ff" d="M400.59,-164.75C408.16,-157.03 419.38,-145.6 428.51,-136.28"/>
<polygon fill="#63b8ff" stroke="#63b8ff" points="431.07,-138.68 435.57,-129.09 426.07,-133.78 431.07,-138.68"/>
</a>
</g>
</g>
<!-- Node3 -->
<g id="Node000003" class="node">
<title>Node3</title>
<g id="a_Node000003"><a xlink:href="y3c-config_8h.html" target="_top" xlink:title=" ">
<polygon fill="white" stroke="#666666" points="76,-19 0,-19 0,0 76,0 76,-19"/>
<text text-anchor="middle" x="38" y="-7" font-family="Helvetica,sans-Serif" font-size="10.00">y3c&#45;config.h</text>
</a>
</g>
</g>
<!-- Node2&#45;&gt;Node3 -->
<g id="edge2_Node000002_Node000003" class="edge">
<title>Node2&#45;&gt;Node3</title>
<g id="a_edge2_Node000002_Node000003"><a xlink:title=" ">
<path fill="none" stroke="#63b8ff" d="M201.71,-115.56C144.68,-110.9 53.86,-99.6 33,-74 22.76,-61.43 25.89,-42.43 30.43,-28.49"/>
<polygon fill="#63b8ff" stroke="#63b8ff" points="33.76,-29.59 33.99,-19 27.2,-27.14 33.76,-29.59"/>
</a>
</g>
</g>
<!-- Node4 -->
<g id="Node000004" class="node">
<title>Node4</title>
<g id="a_Node000004"><a xlink:href="what_8h.html" target="_top" xlink:title=" ">
<polygon fill="white" stroke="#666666" points="112,-74 42,-74 42,-55 112,-55 112,-74"/>
<text text-anchor="middle" x="77" y="-62" font-family="Helvetica,sans-Serif" font-size="10.00">y3c/what.h</text>
</a>
</g>
</g>
<!-- Node2&#45;&gt;Node4 -->
<g id="edge3_Node000002_Node000004" class="edge">
<title>Node2&#45;&gt;Node4</title>
<g id="a_edge3_Node000002_Node000004"><a xlink:title=" ">
<path fill="none" stroke="#63b8ff" d="M221.37,-109.98C192.49,-101.09 146.99,-87.07 114.8,-77.15"/>
<polygon fill="#63b8ff" stroke="#63b8ff" points="115.44,-73.68 104.85,-74.08 113.38,-80.37 115.44,-73.68"/>
</a>
</g>
</g>
<!-- Node5 -->
<g id="Node000005" class="node">
<title>Node5</title>
<g id="a_Node000005"><a xlink:title=" ">
<polygon fill="#e0e0e0" stroke="#999999" points="150,-19 106,-19 106,0 150,0 150,-19"/>
<text text-anchor="middle" x="128" y="-7" font-family="Helvetica,sans-Serif" font-size="10.00">string</text>
</a>
</g>
</g>
<!-- Node2&#45;&gt;Node5 -->
<g id="edge7_Node000002_Node000005" class="edge">
<title>Node2&#45;&gt;Node5</title>
<g id="a_edge7_Node000002_Node000005"><a xlink:title=" ">
<path fill="none" stroke="#63b8ff" d="M220.5,-109.87C201.15,-102.82 176.09,-91.18 159,-74 146.57,-61.51 138.33,-43.05 133.49,-29.25"/>
<polygon fill="#63b8ff" stroke="#63b8ff" points="136.72,-27.83 130.33,-19.38 130.05,-29.97 136.72,-27.83"/>
</a>
</g>
</g>
<!-- Node6 -->
<g id="Node000006" class="node">
<title>Node6</title>
<g id="a_Node000006"><a xlink:title=" ">
<polygon fill="#e0e0e0" stroke="#999999" points="233.5,-74 168.5,-74 168.5,-55 233.5,-55 233.5,-74"/>
<text text-anchor="middle" x="201" y="-62" font-family="Helvetica,sans-Serif" font-size="10.00">stdexcept</text>
</a>
</g>
</g>
<!-- Node2&#45;&gt;Node6 -->
<g id="edge6_Node000002_Node000006" class="edge">
<title>Node2&#45;&gt;Node6</title>
<g id="a_edge6_Node000002_Node000006"><a xlink:title=" ">
<path fill="none" stroke="#63b8ff" d="M241.07,-109.75C234.15,-102.11 223.93,-90.82 215.55,-81.56"/>
<polygon fill="#63b8ff" stroke="#63b8ff" points="218.09,-79.15 208.78,-74.09 212.9,-83.85 218.09,-79.15"/>
</a>
</g>
</g>
<!-- Node2&#45;&gt;Node7 -->
<g id="edge8_Node000002_Node000007" class="edge">
<title>Node2&#45;&gt;Node7</title>
<g id="a_edge8_Node000002_Node000007"><a xlink:title=" ">
<path fill="none" stroke="#63b8ff" d="M282.9,-109.98C320.62,-100.51 381.47,-85.23 421.1,-75.27"/>
<polygon fill="#63b8ff" stroke="#63b8ff" points="422.09,-78.63 430.94,-72.8 420.39,-71.84 422.09,-78.63"/>
</a>
</g>
</g>
<!-- Node8 -->
<g id="Node000008" class="node">
<title>Node8</title>
<g id="a_Node000008"><a xlink:title=" ">
<polygon fill="#e0e0e0" stroke="#999999" points="344.5,-74 251.5,-74 251.5,-55 344.5,-55 344.5,-74"/>
<text text-anchor="middle" x="298" y="-62" font-family="Helvetica,sans-Serif" font-size="10.00">unordered_map</text>
</a>
</g>
</g>
<!-- Node2&#45;&gt;Node8 -->
<g id="edge9_Node000002_Node000008" class="edge">
<title>Node2&#45;&gt;Node8</title>
<g id="a_edge9_Node000002_Node000008"><a xlink:title=" ">
<path fill="none" stroke="#63b8ff" d="M257.09,-109.75C264.16,-102.11 274.59,-90.82 283.15,-81.56"/>
<polygon fill="#63b8ff" stroke="#63b8ff" points="285.84,-83.81 290.06,-74.09 280.7,-79.06 285.84,-83.81"/>
</a>
</g>
</g>
<!-- Node9 -->
<g id="Node000009" class="node">
<title>Node9</title>
<g id="a_Node000009"><a xlink:title=" ">
<polygon fill="#e0e0e0" stroke="#999999" points="413,-74 363,-74 363,-55 413,-55 413,-74"/>
<text text-anchor="middle" x="388" y="-62" font-family="Helvetica,sans-Serif" font-size="10.00">atomic</text>
</a>
</g>
</g>
<!-- Node2&#45;&gt;Node9 -->
<g id="edge10_Node000002_Node000009" class="edge">
<title>Node2&#45;&gt;Node9</title>
<g id="a_edge10_Node000002_Node000009"><a xlink:title=" ">
<path fill="none" stroke="#63b8ff" d="M271.33,-109.98C294.2,-101.27 329.96,-87.63 355.86,-77.75"/>
<polygon fill="#63b8ff" stroke="#63b8ff" points="357.16,-81 365.26,-74.17 354.67,-74.46 357.16,-81"/>
</a>
</g>
</g>
<!-- Node4&#45;&gt;Node3 -->
<g id="edge4_Node000004_Node000003" class="edge">
<title>Node4&#45;&gt;Node3</title>
<g id="a_edge4_Node000004_Node000003"><a xlink:title=" ">
<path fill="none" stroke="#63b8ff" d="M70.56,-54.75C65.11,-47.34 57.14,-36.5 50.44,-27.41"/>
<polygon fill="#63b8ff" stroke="#63b8ff" points="53.07,-25.07 44.32,-19.09 47.43,-29.22 53.07,-25.07"/>
</a>
</g>
</g>
<!-- Node4&#45;&gt;Node5 -->
<g id="edge5_Node000004_Node000005" class="edge">
<title>Node4&#45;&gt;Node5</title>
<g id="a_edge5_Node000004_Node000005"><a xlink:title=" ">
<path fill="none" stroke="#63b8ff" d="M85.42,-54.75C92.77,-47.11 103.63,-35.82 112.54,-26.56"/>
<polygon fill="#63b8ff" stroke="#63b8ff" points="115.32,-28.72 119.74,-19.09 110.28,-23.87 115.32,-28.72"/>
</a>
</g>
</g>
</g>
</svg>
