<?xml version="1.0" encoding="UTF-8" standalone="no"?>
<!DOCTYPE svg PUBLIC "-//W3C//DTD SVG 1.1//EN"
 "http://www.w3.org/Graphics/SVG/1.1/DTD/svg11.dtd">
<!-- Generated by graphviz version 2.43.0 (0)
 -->
<!-- Title: include/y3c/life.h Pages: 1 -->
<svg width="330pt" height="203pt"
 viewBox="0.00 0.00 329.50 203.00" xmlns="http://www.w3.org/2000/svg" xmlns:xlink="http://www.w3.org/1999/xlink">
<g id="graph0" class="graph" transform="scale(1 1) rotate(0) translate(4 199)">
<title>include/y3c/life.h</title>
<!-- Node1 -->
<g id="Node000001" class="node">
<title>Node1</title>
<g id="a_Node000001"><a xlink:title=" ">
<polygon fill="#999999" stroke="#666666" points="265,-195 165,-195 165,-176 265,-176 265,-195"/>
<text text-anchor="middle" x="215" y="-183" font-family="Helvetica,sans-Serif" font-size="10.00">include/y3c/life.h</text>
</a>
</g>
</g>
<!-- Node2 -->
<g id="Node000002" class="node">
<title>Node2</title>
<g id="a_Node000002"><a xlink:href="iterator_8h.html" target="_top" xlink:title=" ">
<polygon fill="white" stroke="#666666" points="321.5,-79.5 202.5,-79.5 202.5,-60.5 321.5,-60.5 321.5,-79.5"/>
<text text-anchor="middle" x="262" y="-67.5" font-family="Helvetica,sans-Serif" font-size="10.00">include/y3c/iterator.h</text>
</a>
</g>
</g>
<!-- Node1&#45;&gt;Node2 -->
<g id="edge1_Node000001_Node000002" class="edge">
<title>Node1&#45;&gt;Node2</title>
<g id="a_edge1_Node000001_Node000002"><a xlink:title=" ">
<path fill="none" stroke="#63b8ff" d="M224.4,-166.63C228.48,-158.59 233.19,-148.92 237,-140 246.1,-118.67 254.9,-92.79 259.22,-79.62"/>
<polygon fill="#63b8ff" stroke="#63b8ff" points="221.16,-165.28 219.68,-175.77 227.38,-168.49 221.16,-165.28"/>
</a>
</g>
</g>
<!-- Node5 -->
<g id="Node000005" class="node">
<title>Node5</title>
<g id="a_Node000005"><a xlink:href="wrap_8h.html" target="_top" xlink:title=" ">
<polygon fill="white" stroke="#666666" points="228,-140 120,-140 120,-121 228,-121 228,-140"/>
<text text-anchor="middle" x="174" y="-128" font-family="Helvetica,sans-Serif" font-size="10.00">include/y3c/wrap.h</text>
</a>
</g>
</g>
<!-- Node1&#45;&gt;Node5 -->
<g id="edge4_Node000001_Node000005" class="edge">
<title>Node1&#45;&gt;Node5</title>
<g id="a_edge4_Node000001_Node000005"><a xlink:title=" ">
<path fill="none" stroke="#63b8ff" d="M201.98,-167.67C194.88,-158.5 186.4,-147.52 180.64,-140.09"/>
<polygon fill="#63b8ff" stroke="#63b8ff" points="199.34,-169.98 208.23,-175.75 204.88,-165.7 199.34,-169.98"/>
</a>
</g>
</g>
<!-- Node3 -->
<g id="Node000003" class="node">
<title>Node3</title>
<g id="a_Node000003"><a xlink:href="array_8h.html" target="_top" xlink:title=" ">
<polygon fill="white" stroke="#666666" points="317,-19 209,-19 209,0 317,0 317,-19"/>
<text text-anchor="middle" x="263" y="-7" font-family="Helvetica,sans-Serif" font-size="10.00">include/y3c/array.h</text>
</a>
</g>
</g>
<!-- Node2&#45;&gt;Node3 -->
<g id="edge2_Node000002_Node000003" class="edge">
<title>Node2&#45;&gt;Node3</title>
<g id="a_edge2_Node000002_Node000003"><a xlink:title=" ">
<path fill="none" stroke="#63b8ff" d="M262.32,-50.16C262.5,-39.74 262.71,-27.3 262.85,-19.17"/>
<polygon fill="#63b8ff" stroke="#63b8ff" points="258.82,-50.31 262.15,-60.37 265.82,-50.43 258.82,-50.31"/>
</a>
</g>
</g>
<!-- Node4 -->
<g id="Node000004" class="node">
<title>Node4</title>
<g id="a_Node000004"><a xlink:href="vector_8h.html" target="_top" xlink:title=" ">
<polygon fill="white" stroke="#666666" points="191,-19 77,-19 77,0 191,0 191,-19"/>
<text text-anchor="middle" x="134" y="-7" font-family="Helvetica,sans-Serif" font-size="10.00">include/y3c/vector.h</text>
</a>
</g>
</g>
<!-- Node2&#45;&gt;Node4 -->
<g id="edge3_Node000002_Node000004" class="edge">
<title>Node2&#45;&gt;Node4</title>
<g id="a_edge3_Node000002_Node000004"><a xlink:title=" ">
<path fill="none" stroke="#63b8ff" d="M234.17,-56.28C209.47,-44.99 174.07,-28.81 152.63,-19.02"/>
<polygon fill="#63b8ff" stroke="#63b8ff" points="232.84,-59.52 243.39,-60.49 235.75,-53.15 232.84,-59.52"/>
</a>
</g>
</g>
<!-- Node5&#45;&gt;Node2 -->
<g id="edge6_Node000005_Node000002" class="edge">
<title>Node5&#45;&gt;Node2</title>
<g id="a_edge6_Node000005_Node000002"><a xlink:title=" ">
<path fill="none" stroke="#63b8ff" d="M195.57,-115.16C212.29,-104.05 234.9,-89.01 248.96,-79.67"/>
<polygon fill="#63b8ff" stroke="#63b8ff" points="193.37,-112.42 186.98,-120.87 197.25,-118.25 193.37,-112.42"/>
</a>
</g>
</g>
<!-- Node5&#45;&gt;Node3 -->
<g id="edge5_Node000005_Node000003" class="edge">
<title>Node5&#45;&gt;Node3</title>
<g id="a_edge5_Node000005_Node000003"><a xlink:title=" ">
<path fill="none" stroke="#63b8ff" d="M175.31,-110.52C177.25,-94.41 182.06,-71.37 194,-55 206.1,-38.42 226.42,-26.41 241.88,-19.08"/>
<polygon fill="#63b8ff" stroke="#63b8ff" points="171.79,-110.55 174.34,-120.83 178.76,-111.2 171.79,-110.55"/>
</a>
</g>
</g>
<!-- Node5&#45;&gt;Node4 -->
<g id="edge8_Node000005_Node000004" class="edge">
<title>Node5&#45;&gt;Node4</title>
<g id="a_edge8_Node000005_Node000004"><a xlink:title=" ">
<path fill="none" stroke="#63b8ff" d="M167.85,-111.21C159.12,-85.23 143.46,-38.65 136.96,-19.3"/>
<polygon fill="#63b8ff" stroke="#63b8ff" points="164.62,-112.58 171.12,-120.94 171.25,-110.35 164.62,-112.58"/>
</a>
</g>
</g>
<!-- Node6 -->
<g id="Node000006" class="node">
<title>Node6</title>
<g id="a_Node000006"><a xlink:href="shared__ptr_8h.html" target="_top" xlink:title=" ">
<polygon fill="white" stroke="#666666" points="108,-85 0,-85 0,-55 108,-55 108,-85"/>
<text text-anchor="start" x="8" y="-73" font-family="Helvetica,sans-Serif" font-size="10.00">include/y3c/shared</text>
<text text-anchor="middle" x="54" y="-62" font-family="Helvetica,sans-Serif" font-size="10.00">_ptr.h</text>
</a>
</g>
</g>
<!-- Node5&#45;&gt;Node6 -->
<g id="edge7_Node000005_Node000006" class="edge">
<title>Node5&#45;&gt;Node6</title>
<g id="a_edge7_Node000005_Node000006"><a xlink:title=" ">
<path fill="none" stroke="#63b8ff" d="M147.52,-116.59C128.44,-107.29 102.72,-94.75 83.08,-85.18"/>
<polygon fill="#63b8ff" stroke="#63b8ff" points="146.03,-119.76 156.55,-120.99 149.1,-113.47 146.03,-119.76"/>
</a>
</g>
</g>
</g>
</svg>
