<?xml version="1.0" encoding="UTF-8" standalone="no"?>
<!DOCTYPE svg PUBLIC "-//W3C//DTD SVG 1.1//EN"
 "http://www.w3.org/Graphics/SVG/1.1/DTD/svg11.dtd">
<!-- Generated by graphviz version 2.43.0 (0)
 -->
<!-- Title: include/y3c/life.h Pages: 1 -->
<svg width="492pt" height="192pt"
 viewBox="0.00 0.00 492.14 192.00" xmlns="http://www.w3.org/2000/svg" xmlns:xlink="http://www.w3.org/1999/xlink">
<g id="graph0" class="graph" transform="scale(1 1) rotate(0) translate(4 188)">
<title>include/y3c/life.h</title>
<!-- Node1 -->
<g id="Node000001" class="node">
<title>Node1</title>
<g id="a_Node000001"><a xlink:title=" ">
<polygon fill="#999999" stroke="#666666" points="484.14,-184 384.14,-184 384.14,-165 484.14,-165 484.14,-184"/>
<text text-anchor="middle" x="434.14" y="-172" font-family="Helvetica,sans-Serif" font-size="10.00">include/y3c/life.h</text>
</a>
</g>
</g>
<!-- Node2 -->
<g id="Node000002" class="node">
<title>Node2</title>
<g id="a_Node000002"><a xlink:href="terminate_8h.html" target="_top" xlink:title=" ">
<polygon fill="white" stroke="#666666" points="322.14,-129 228.14,-129 228.14,-110 322.14,-110 322.14,-129"/>
<text text-anchor="middle" x="275.14" y="-117" font-family="Helvetica,sans-Serif" font-size="10.00">y3c/terminate.h</text>
</a>
</g>
</g>
<!-- Node1&#45;&gt;Node2 -->
<g id="edge1_Node000001_Node000002" class="edge">
<title>Node1&#45;&gt;Node2</title>
<g id="a_edge1_Node000001_Node000002"><a xlink:title=" ">
<path fill="none" stroke="#63b8ff" d="M408.59,-164.98C382.01,-156.13 340.2,-142.19 310.47,-132.28"/>
<polygon fill="#63b8ff" stroke="#63b8ff" points="311.48,-128.92 300.89,-129.08 309.27,-135.56 311.48,-128.92"/>
</a>
</g>
</g>
<!-- Node3 -->
<g id="Node000003" class="node">
<title>Node3</title>
<g id="a_Node000003"><a xlink:href="y3c-config_8h.html" target="_top" xlink:title=" ">
<polygon fill="white" stroke="#666666" points="415.14,-19 339.14,-19 339.14,0 415.14,0 415.14,-19"/>
<text text-anchor="middle" x="377.14" y="-7" font-family="Helvetica,sans-Serif" font-size="10.00">y3c&#45;config.h</text>
</a>
</g>
</g>
<!-- Node1&#45;&gt;Node3 -->
<g id="edge11_Node000001_Node000003" class="edge">
<title>Node1&#45;&gt;Node3</title>
<g id="a_edge11_Node000001_Node000003"><a xlink:title=" ">
<path fill="none" stroke="#63b8ff" d="M441.62,-164.82C458.36,-144.32 495.56,-91.83 472.14,-55 461.59,-38.4 443.03,-27.89 425.1,-21.28"/>
<polygon fill="#63b8ff" stroke="#63b8ff" points="425.85,-17.84 415.26,-18 423.64,-24.48 425.85,-17.84"/>
</a>
</g>
</g>
<!-- Node7 -->
<g id="Node000007" class="node">
<title>Node7</title>
<g id="a_Node000007"><a xlink:title=" ">
<polygon fill="#e0e0e0" stroke="#999999" points="463.14,-74 405.14,-74 405.14,-55 463.14,-55 463.14,-74"/>
<text text-anchor="middle" x="434.14" y="-62" font-family="Helvetica,sans-Serif" font-size="10.00">memory</text>
</a>
</g>
</g>
<!-- Node1&#45;&gt;Node7 -->
<g id="edge12_Node000001_Node000007" class="edge">
<title>Node1&#45;&gt;Node7</title>
<g id="a_edge12_Node000001_Node000007"><a xlink:title=" ">
<path fill="none" stroke="#63b8ff" d="M434.14,-164.66C434.14,-147.17 434.14,-107.8 434.14,-84.27"/>
<polygon fill="#63b8ff" stroke="#63b8ff" points="437.64,-84.16 434.14,-74.16 430.64,-84.16 437.64,-84.16"/>
</a>
</g>
</g>
<!-- Node2&#45;&gt;Node3 -->
<g id="edge2_Node000002_Node000003" class="edge">
<title>Node2&#45;&gt;Node3</title>
<g id="a_edge2_Node000002_Node000003"><a xlink:title=" ">
<path fill="none" stroke="#63b8ff" d="M302.69,-109.99C320.87,-103.04 343.87,-91.48 358.14,-74 368.49,-61.33 373.2,-43.14 375.35,-29.48"/>
<polygon fill="#63b8ff" stroke="#63b8ff" points="378.85,-29.64 376.61,-19.28 371.91,-28.78 378.85,-29.64"/>
</a>
</g>
</g>
<!-- Node4 -->
<g id="Node000004" class="node">
<title>Node4</title>
<g id="a_Node000004"><a xlink:href="what_8h.html" target="_top" xlink:title=" ">
<polygon fill="white" stroke="#666666" points="349.14,-74 279.14,-74 279.14,-55 349.14,-55 349.14,-74"/>
<text text-anchor="middle" x="314.14" y="-62" font-family="Helvetica,sans-Serif" font-size="10.00">y3c/what.h</text>
</a>
</g>
</g>
<!-- Node2&#45;&gt;Node4 -->
<g id="edge3_Node000002_Node000004" class="edge">
<title>Node2&#45;&gt;Node4</title>
<g id="a_edge3_Node000002_Node000004"><a xlink:title=" ">
<path fill="none" stroke="#63b8ff" d="M281.58,-109.75C287.03,-102.34 295,-91.5 301.7,-82.41"/>
<polygon fill="#63b8ff" stroke="#63b8ff" points="304.71,-84.22 307.82,-74.09 299.07,-80.07 304.71,-84.22"/>
</a>
</g>
</g>
<!-- Node5 -->
<g id="Node000005" class="node">
<title>Node5</title>
<g id="a_Node000005"><a xlink:title=" ">
<polygon fill="#e0e0e0" stroke="#999999" points="166.14,-19 122.14,-19 122.14,0 166.14,0 166.14,-19"/>
<text text-anchor="middle" x="144.14" y="-7" font-family="Helvetica,sans-Serif" font-size="10.00">string</text>
</a>
</g>
</g>
<!-- Node2&#45;&gt;Node5 -->
<g id="edge7_Node000002_Node000005" class="edge">
<title>Node2&#45;&gt;Node5</title>
<g id="a_edge7_Node000002_Node000005"><a xlink:title=" ">
<path fill="none" stroke="#63b8ff" d="M227.86,-117.7C158.64,-115.42 34.89,-106.74 7.14,-74 -24.43,-36.75 62.45,-20.09 112.14,-13.78"/>
<polygon fill="#63b8ff" stroke="#63b8ff" points="112.61,-17.25 122.12,-12.58 111.78,-10.3 112.61,-17.25"/>
</a>
</g>
</g>
<!-- Node6 -->
<g id="Node000006" class="node">
<title>Node6</title>
<g id="a_Node000006"><a xlink:title=" ">
<polygon fill="#e0e0e0" stroke="#999999" points="81.64,-74 16.64,-74 16.64,-55 81.64,-55 81.64,-74"/>
<text text-anchor="middle" x="49.14" y="-62" font-family="Helvetica,sans-Serif" font-size="10.00">stdexcept</text>
</a>
</g>
</g>
<!-- Node2&#45;&gt;Node6 -->
<g id="edge6_Node000002_Node000006" class="edge">
<title>Node2&#45;&gt;Node6</title>
<g id="a_edge6_Node000002_Node000006"><a xlink:title=" ">
<path fill="none" stroke="#63b8ff" d="M238.83,-109.98C198.63,-100.56 133.91,-85.38 91.45,-75.42"/>
<polygon fill="#63b8ff" stroke="#63b8ff" points="92.23,-72.01 81.69,-73.13 90.63,-78.82 92.23,-72.01"/>
</a>
</g>
</g>
<!-- Node2&#45;&gt;Node7 -->
<g id="edge8_Node000002_Node000007" class="edge">
<title>Node2&#45;&gt;Node7</title>
<g id="a_edge8_Node000002_Node000007"><a xlink:title=" ">
<path fill="none" stroke="#63b8ff" d="M300.69,-109.98C327.26,-101.13 369.08,-87.19 398.81,-77.28"/>
<polygon fill="#63b8ff" stroke="#63b8ff" points="400.01,-80.56 408.39,-74.08 397.8,-73.92 400.01,-80.56"/>
</a>
</g>
</g>
<!-- Node8 -->
<g id="Node000008" class="node">
<title>Node8</title>
<g id="a_Node000008"><a xlink:title=" ">
<polygon fill="#e0e0e0" stroke="#999999" points="192.64,-74 99.64,-74 99.64,-55 192.64,-55 192.64,-74"/>
<text text-anchor="middle" x="146.14" y="-62" font-family="Helvetica,sans-Serif" font-size="10.00">unordered_map</text>
</a>
</g>
</g>
<!-- Node2&#45;&gt;Node8 -->
<g id="edge9_Node000002_Node000008" class="edge">
<title>Node2&#45;&gt;Node8</title>
<g id="a_edge9_Node000002_Node000008"><a xlink:title=" ">
<path fill="none" stroke="#63b8ff" d="M254.41,-109.98C233.38,-101.34 200.59,-87.87 176.6,-78.02"/>
<polygon fill="#63b8ff" stroke="#63b8ff" points="177.82,-74.73 167.24,-74.17 175.16,-81.21 177.82,-74.73"/>
</a>
</g>
</g>
<!-- Node9 -->
<g id="Node000009" class="node">
<title>Node9</title>
<g id="a_Node000009"><a xlink:title=" ">
<polygon fill="#e0e0e0" stroke="#999999" points="261.14,-74 211.14,-74 211.14,-55 261.14,-55 261.14,-74"/>
<text text-anchor="middle" x="236.14" y="-62" font-family="Helvetica,sans-Serif" font-size="10.00">atomic</text>
</a>
</g>
</g>
<!-- Node2&#45;&gt;Node9 -->
<g id="edge10_Node000002_Node000009" class="edge">
<title>Node2&#45;&gt;Node9</title>
<g id="a_edge10_Node000002_Node000009"><a xlink:title=" ">
<path fill="none" stroke="#63b8ff" d="M268.7,-109.75C263.25,-102.34 255.27,-91.5 248.58,-82.41"/>
<polygon fill="#63b8ff" stroke="#63b8ff" points="251.21,-80.07 242.46,-74.09 245.57,-84.22 251.21,-80.07"/>
</a>
</g>
</g>
<!-- Node4&#45;&gt;Node3 -->
<g id="edge4_Node000004_Node000003" class="edge">
<title>Node4&#45;&gt;Node3</title>
<g id="a_edge4_Node000004_Node000003"><a xlink:title=" ">
<path fill="none" stroke="#63b8ff" d="M324.26,-54.98C333.57,-47.15 347.61,-35.34 358.88,-25.86"/>
<polygon fill="#63b8ff" stroke="#63b8ff" points="361.43,-28.29 366.83,-19.17 356.93,-22.93 361.43,-28.29"/>
</a>
</g>
</g>
<!-- Node4&#45;&gt;Node5 -->
<g id="edge5_Node000004_Node000005" class="edge">
<title>Node4&#45;&gt;Node5</title>
<g id="a_edge5_Node000004_Node000005"><a xlink:title=" ">
<path fill="none" stroke="#63b8ff" d="M286.83,-54.98C256.59,-45.56 207.92,-30.38 175.98,-20.43"/>
<polygon fill="#63b8ff" stroke="#63b8ff" points="176.83,-17.03 166.24,-17.39 174.75,-23.71 176.83,-17.03"/>
</a>
</g>
</g>
</g>
</svg>
