<?xml version="1.0" encoding="UTF-8" standalone="no"?>
<!DOCTYPE svg PUBLIC "-//W3C//DTD SVG 1.1//EN"
 "http://www.w3.org/Graphics/SVG/1.1/DTD/svg11.dtd">
<!-- Generated by graphviz version 2.43.0 (0)
 -->
<!-- Title: include/y3c/shared_ptr.h Pages: 1 -->
<svg width="554pt" height="313pt"
 viewBox="0.00 0.00 554.00 313.00" xmlns="http://www.w3.org/2000/svg" xmlns:xlink="http://www.w3.org/1999/xlink">
<g id="graph0" class="graph" transform="scale(1 1) rotate(0) translate(4 309)">
<title>include/y3c/shared_ptr.h</title>
<!-- Node1 -->
<g id="Node000001" class="node">
<title>Node1</title>
<g id="a_Node000001"><a xlink:title=" ">
<polygon fill="#999999" stroke="#666666" points="441,-305 333,-305 333,-275 441,-275 441,-305"/>
<text text-anchor="start" x="341" y="-293" font-family="Helvetica,sans-Serif" font-size="10.00">include/y3c/shared</text>
<text text-anchor="middle" x="387" y="-282" font-family="Helvetica,sans-Serif" font-size="10.00">_ptr.h</text>
</a>
</g>
</g>
<!-- Node2 -->
<g id="Node000002" class="node">
<title>Node2</title>
<g id="a_Node000002"><a xlink:href="terminate_8h.html" target="_top" xlink:title=" ">
<polygon fill="white" stroke="#666666" points="403,-129 309,-129 309,-110 403,-110 403,-129"/>
<text text-anchor="middle" x="356" y="-117" font-family="Helvetica,sans-Serif" font-size="10.00">y3c/terminate.h</text>
</a>
</g>
</g>
<!-- Node1&#45;&gt;Node2 -->
<g id="edge1_Node000001_Node000002" class="edge">
<title>Node1&#45;&gt;Node2</title>
<g id="a_edge1_Node000001_Node000002"><a xlink:title=" ">
<path fill="none" stroke="#63b8ff" d="M383.24,-274.62C380.71,-264.67 377.41,-251.08 375,-239 367.98,-203.88 361.82,-162.51 358.53,-139.1"/>
<polygon fill="#63b8ff" stroke="#63b8ff" points="362,-138.59 357.16,-129.16 355.06,-139.55 362,-138.59"/>
</a>
</g>
</g>
<!-- Node7 -->
<g id="Node000007" class="node">
<title>Node7</title>
<g id="a_Node000007"><a xlink:title=" ">
<polygon fill="#e0e0e0" stroke="#999999" points="546,-74 488,-74 488,-55 546,-55 546,-74"/>
<text text-anchor="middle" x="517" y="-62" font-family="Helvetica,sans-Serif" font-size="10.00">memory</text>
</a>
</g>
</g>
<!-- Node1&#45;&gt;Node7 -->
<g id="edge22_Node000001_Node000007" class="edge">
<title>Node1&#45;&gt;Node7</title>
<g id="a_edge22_Node000001_Node000007"><a xlink:title=" ">
<path fill="none" stroke="#63b8ff" d="M413.12,-274.85C442.36,-257.54 488.67,-225.34 512,-184 528.58,-154.61 533.43,-143.45 529,-110 527.84,-101.27 525.47,-91.83 523.13,-83.9"/>
<polygon fill="#63b8ff" stroke="#63b8ff" points="526.43,-82.72 520.09,-74.23 519.75,-84.82 526.43,-82.72"/>
</a>
</g>
</g>
<!-- Node10 -->
<g id="Node000010" class="node">
<title>Node10</title>
<g id="a_Node000010"><a xlink:href="wrap_8h.html" target="_top" xlink:title=" ">
<polygon fill="white" stroke="#666666" points="454,-239 384,-239 384,-220 454,-220 454,-239"/>
<text text-anchor="middle" x="419" y="-227" font-family="Helvetica,sans-Serif" font-size="10.00">y3c/wrap.h</text>
</a>
</g>
</g>
<!-- Node1&#45;&gt;Node10 -->
<g id="edge11_Node000001_Node000010" class="edge">
<title>Node1&#45;&gt;Node10</title>
<g id="a_edge11_Node000001_Node000010"><a xlink:title=" ">
<path fill="none" stroke="#63b8ff" d="M394.75,-274.84C399.15,-266.78 404.71,-256.62 409.4,-248.06"/>
<polygon fill="#63b8ff" stroke="#63b8ff" points="412.48,-249.72 414.2,-239.27 406.34,-246.36 412.48,-249.72"/>
</a>
</g>
</g>
<!-- Node12 -->
<g id="Node000012" class="node">
<title>Node12</title>
<g id="a_Node000012"><a xlink:href="typename_8h.html" target="_top" xlink:title=" ">
<polygon fill="white" stroke="#666666" points="327.5,-184 232.5,-184 232.5,-165 327.5,-165 327.5,-184"/>
<text text-anchor="middle" x="280" y="-172" font-family="Helvetica,sans-Serif" font-size="10.00">y3c/typename.h</text>
</a>
</g>
</g>
<!-- Node1&#45;&gt;Node12 -->
<g id="edge21_Node000001_Node000012" class="edge">
<title>Node1&#45;&gt;Node12</title>
<g id="a_edge21_Node000001_Node000012"><a xlink:title=" ">
<path fill="none" stroke="#63b8ff" d="M373.45,-274.63C353.41,-253.37 316.02,-213.71 295.12,-191.54"/>
<polygon fill="#63b8ff" stroke="#63b8ff" points="297.64,-189.1 288.23,-184.23 292.54,-193.91 297.64,-189.1"/>
</a>
</g>
</g>
<!-- Node3 -->
<g id="Node000003" class="node">
<title>Node3</title>
<g id="a_Node000003"><a xlink:href="y3c-config_8h.html" target="_top" xlink:title=" ">
<polygon fill="white" stroke="#666666" points="450,-19 374,-19 374,0 450,0 450,-19"/>
<text text-anchor="middle" x="412" y="-7" font-family="Helvetica,sans-Serif" font-size="10.00">y3c&#45;config.h</text>
</a>
</g>
</g>
<!-- Node2&#45;&gt;Node3 -->
<g id="edge2_Node000002_Node000003" class="edge">
<title>Node2&#45;&gt;Node3</title>
<g id="a_edge2_Node000002_Node000003"><a xlink:title=" ">
<path fill="none" stroke="#63b8ff" d="M365.14,-109.76C373.47,-101.32 385.59,-87.81 393,-74 400.57,-59.88 405.53,-42.34 408.47,-29.27"/>
<polygon fill="#63b8ff" stroke="#63b8ff" points="411.97,-29.64 410.56,-19.14 405.11,-28.23 411.97,-29.64"/>
</a>
</g>
</g>
<!-- Node4 -->
<g id="Node000004" class="node">
<title>Node4</title>
<g id="a_Node000004"><a xlink:href="what_8h.html" target="_top" xlink:title=" ">
<polygon fill="white" stroke="#666666" points="204,-74 134,-74 134,-55 204,-55 204,-74"/>
<text text-anchor="middle" x="169" y="-62" font-family="Helvetica,sans-Serif" font-size="10.00">y3c/what.h</text>
</a>
</g>
</g>
<!-- Node2&#45;&gt;Node4 -->
<g id="edge3_Node000002_Node000004" class="edge">
<title>Node2&#45;&gt;Node4</title>
<g id="a_edge3_Node000002_Node000004"><a xlink:title=" ">
<path fill="none" stroke="#63b8ff" d="M325.96,-109.98C294.29,-101.01 244.23,-86.82 209.19,-76.89"/>
<polygon fill="#63b8ff" stroke="#63b8ff" points="209.86,-73.44 199.28,-74.08 207.95,-80.18 209.86,-73.44"/>
</a>
</g>
</g>
<!-- Node5 -->
<g id="Node000005" class="node">
<title>Node5</title>
<g id="a_Node000005"><a xlink:title=" ">
<polygon fill="#e0e0e0" stroke="#999999" points="44,-19 0,-19 0,0 44,0 44,-19"/>
<text text-anchor="middle" x="22" y="-7" font-family="Helvetica,sans-Serif" font-size="10.00">string</text>
</a>
</g>
</g>
<!-- Node2&#45;&gt;Node5 -->
<g id="edge7_Node000002_Node000005" class="edge">
<title>Node2&#45;&gt;Node5</title>
<g id="a_edge7_Node000002_Node000005"><a xlink:title=" ">
<path fill="none" stroke="#63b8ff" d="M308.84,-117.9C230.99,-115.94 80.26,-107.76 41,-74 28.19,-62.99 23.83,-43.73 22.43,-29.3"/>
<polygon fill="#63b8ff" stroke="#63b8ff" points="25.91,-28.8 21.84,-19.02 18.92,-29.2 25.91,-28.8"/>
</a>
</g>
</g>
<!-- Node6 -->
<g id="Node000006" class="node">
<title>Node6</title>
<g id="a_Node000006"><a xlink:title=" ">
<polygon fill="#e0e0e0" stroke="#999999" points="115.5,-74 50.5,-74 50.5,-55 115.5,-55 115.5,-74"/>
<text text-anchor="middle" x="83" y="-62" font-family="Helvetica,sans-Serif" font-size="10.00">stdexcept</text>
</a>
</g>
</g>
<!-- Node2&#45;&gt;Node6 -->
<g id="edge6_Node000002_Node000006" class="edge">
<title>Node2&#45;&gt;Node6</title>
<g id="a_edge6_Node000002_Node000006"><a xlink:title=" ">
<path fill="none" stroke="#63b8ff" d="M310.83,-109.93C266.34,-101.46 196.17,-88.02 125.52,-74.09"/>
<polygon fill="#63b8ff" stroke="#63b8ff" points="126.04,-70.62 115.55,-72.12 124.69,-77.49 126.04,-70.62"/>
</a>
</g>
</g>
<!-- Node2&#45;&gt;Node7 -->
<g id="edge8_Node000002_Node000007" class="edge">
<title>Node2&#45;&gt;Node7</title>
<g id="a_edge8_Node000002_Node000007"><a xlink:title=" ">
<path fill="none" stroke="#63b8ff" d="M381.87,-109.98C408.78,-101.13 451.12,-87.19 481.23,-77.28"/>
<polygon fill="#63b8ff" stroke="#63b8ff" points="482.53,-80.53 490.93,-74.08 480.34,-73.88 482.53,-80.53"/>
</a>
</g>
</g>
<!-- Node8 -->
<g id="Node000008" class="node">
<title>Node8</title>
<g id="a_Node000008"><a xlink:title=" ">
<polygon fill="#e0e0e0" stroke="#999999" points="315.5,-74 222.5,-74 222.5,-55 315.5,-55 315.5,-74"/>
<text text-anchor="middle" x="269" y="-62" font-family="Helvetica,sans-Serif" font-size="10.00">unordered_map</text>
</a>
</g>
</g>
<!-- Node2&#45;&gt;Node8 -->
<g id="edge9_Node000002_Node000008" class="edge">
<title>Node2&#45;&gt;Node8</title>
<g id="a_edge9_Node000002_Node000008"><a xlink:title=" ">
<path fill="none" stroke="#63b8ff" d="M342.02,-109.98C328.53,-101.77 307.87,-89.18 291.96,-79.49"/>
<polygon fill="#63b8ff" stroke="#63b8ff" points="293.59,-76.38 283.23,-74.17 289.95,-82.36 293.59,-76.38"/>
</a>
</g>
</g>
<!-- Node9 -->
<g id="Node000009" class="node">
<title>Node9</title>
<g id="a_Node000009"><a xlink:title=" ">
<polygon fill="#e0e0e0" stroke="#999999" points="384,-74 334,-74 334,-55 384,-55 384,-74"/>
<text text-anchor="middle" x="359" y="-62" font-family="Helvetica,sans-Serif" font-size="10.00">atomic</text>
</a>
</g>
</g>
<!-- Node2&#45;&gt;Node9 -->
<g id="edge10_Node000002_Node000009" class="edge">
<title>Node2&#45;&gt;Node9</title>
<g id="a_edge10_Node000002_Node000009"><a xlink:title=" ">
<path fill="none" stroke="#63b8ff" d="M356.5,-109.75C356.89,-102.8 357.45,-92.85 357.95,-84.13"/>
<polygon fill="#63b8ff" stroke="#63b8ff" points="361.44,-84.27 358.51,-74.09 354.45,-83.88 361.44,-84.27"/>
</a>
</g>
</g>
<!-- Node4&#45;&gt;Node3 -->
<g id="edge4_Node000004_Node000003" class="edge">
<title>Node4&#45;&gt;Node3</title>
<g id="a_edge4_Node000004_Node000003"><a xlink:title=" ">
<path fill="none" stroke="#63b8ff" d="M204.07,-55.85C246.07,-46.69 316.64,-31.3 363.76,-21.02"/>
<polygon fill="#63b8ff" stroke="#63b8ff" points="364.7,-24.4 373.73,-18.85 363.21,-17.56 364.7,-24.4"/>
</a>
</g>
</g>
<!-- Node4&#45;&gt;Node5 -->
<g id="edge5_Node000004_Node000005" class="edge">
<title>Node4&#45;&gt;Node5</title>
<g id="a_edge5_Node000004_Node000005"><a xlink:title=" ">
<path fill="none" stroke="#63b8ff" d="M145.38,-54.98C120.52,-46.02 81.23,-31.86 53.69,-21.92"/>
<polygon fill="#63b8ff" stroke="#63b8ff" points="54.71,-18.57 44.12,-18.47 52.34,-25.16 54.71,-18.57"/>
</a>
</g>
</g>
<!-- Node10&#45;&gt;Node2 -->
<g id="edge12_Node000010_Node000002" class="edge">
<title>Node10&#45;&gt;Node2</title>
<g id="a_edge12_Node000010_Node000002"><a xlink:title=" ">
<path fill="none" stroke="#63b8ff" d="M413.84,-219.66C403.46,-201.85 379.84,-161.37 366.21,-138.01"/>
<polygon fill="#63b8ff" stroke="#63b8ff" points="369.11,-136.03 361.05,-129.16 363.07,-139.56 369.11,-136.03"/>
</a>
</g>
</g>
<!-- Node10&#45;&gt;Node7 -->
<g id="edge20_Node000010_Node000007" class="edge">
<title>Node10&#45;&gt;Node7</title>
<g id="a_edge20_Node000010_Node000007"><a xlink:title=" ">
<path fill="none" stroke="#63b8ff" d="M443.36,-219.93C459.9,-212.85 480.9,-201.15 493,-184 514.21,-153.95 517.63,-109.51 517.67,-84.46"/>
<polygon fill="#63b8ff" stroke="#63b8ff" points="521.17,-84.1 517.5,-74.16 514.17,-84.22 521.17,-84.1"/>
</a>
</g>
</g>
<!-- Node11 -->
<g id="Node000011" class="node">
<title>Node11</title>
<g id="a_Node000011"><a xlink:href="life_8h.html" target="_top" xlink:title=" ">
<polygon fill="white" stroke="#666666" points="484,-184 422,-184 422,-165 484,-165 484,-184"/>
<text text-anchor="middle" x="453" y="-172" font-family="Helvetica,sans-Serif" font-size="10.00">y3c/life.h</text>
</a>
</g>
</g>
<!-- Node10&#45;&gt;Node11 -->
<g id="edge13_Node000010_Node000011" class="edge">
<title>Node10&#45;&gt;Node11</title>
<g id="a_edge13_Node000010_Node000011"><a xlink:title=" ">
<path fill="none" stroke="#63b8ff" d="M424.61,-219.75C429.32,-212.42 436.17,-201.73 441.97,-192.7"/>
<polygon fill="#63b8ff" stroke="#63b8ff" points="445.04,-194.4 447.49,-184.09 439.14,-190.62 445.04,-194.4"/>
</a>
</g>
</g>
<!-- Node10&#45;&gt;Node12 -->
<g id="edge17_Node000010_Node000012" class="edge">
<title>Node10&#45;&gt;Node12</title>
<g id="a_edge17_Node000010_Node000012"><a xlink:title=" ">
<path fill="none" stroke="#63b8ff" d="M396.67,-219.98C373.8,-211.27 338.04,-197.63 312.14,-187.75"/>
<polygon fill="#63b8ff" stroke="#63b8ff" points="313.33,-184.46 302.74,-184.17 310.84,-191 313.33,-184.46"/>
</a>
</g>
</g>
<!-- Node11&#45;&gt;Node2 -->
<g id="edge14_Node000011_Node000002" class="edge">
<title>Node11&#45;&gt;Node2</title>
<g id="a_edge14_Node000011_Node000002"><a xlink:title=" ">
<path fill="none" stroke="#63b8ff" d="M437.42,-164.98C422.23,-156.69 398.9,-143.94 381.1,-134.22"/>
<polygon fill="#63b8ff" stroke="#63b8ff" points="382.32,-130.89 371.87,-129.17 378.97,-137.04 382.32,-130.89"/>
</a>
</g>
</g>
<!-- Node11&#45;&gt;Node3 -->
<g id="edge15_Node000011_Node000003" class="edge">
<title>Node11&#45;&gt;Node3</title>
<g id="a_edge15_Node000011_Node000003"><a xlink:title=" ">
<path fill="none" stroke="#63b8ff" d="M450.8,-164.74C444.37,-139.2 425.57,-64.43 416.71,-29.23"/>
<polygon fill="#63b8ff" stroke="#63b8ff" points="420.05,-28.15 414.22,-19.31 413.26,-29.86 420.05,-28.15"/>
</a>
</g>
</g>
<!-- Node11&#45;&gt;Node7 -->
<g id="edge16_Node000011_Node000007" class="edge">
<title>Node11&#45;&gt;Node7</title>
<g id="a_edge16_Node000011_Node000007"><a xlink:title=" ">
<path fill="none" stroke="#63b8ff" d="M458.24,-164.66C468.79,-146.85 492.78,-106.37 506.63,-83.01"/>
<polygon fill="#63b8ff" stroke="#63b8ff" points="509.78,-84.55 511.87,-74.16 503.76,-80.98 509.78,-84.55"/>
</a>
</g>
</g>
<!-- Node12&#45;&gt;Node2 -->
<g id="edge18_Node000012_Node000002" class="edge">
<title>Node12&#45;&gt;Node2</title>
<g id="a_edge18_Node000012_Node000002"><a xlink:title=" ">
<path fill="none" stroke="#63b8ff" d="M292.21,-164.98C303.78,-156.92 321.38,-144.65 335.16,-135.03"/>
<polygon fill="#63b8ff" stroke="#63b8ff" points="337.37,-137.76 343.57,-129.17 333.36,-132.02 337.37,-137.76"/>
</a>
</g>
</g>
<!-- Node12&#45;&gt;Node5 -->
<g id="edge19_Node000012_Node000005" class="edge">
<title>Node12&#45;&gt;Node5</title>
<g id="a_edge19_Node000012_Node000005"><a xlink:title=" ">
<path fill="none" stroke="#63b8ff" d="M232.35,-169.99C172.85,-162.8 73.04,-140.86 25,-74 15.84,-61.26 15.93,-43.08 17.82,-29.44"/>
<polygon fill="#63b8ff" stroke="#63b8ff" points="21.33,-29.73 19.67,-19.26 14.44,-28.48 21.33,-29.73"/>
</a>
</g>
</g>
</g>
</svg>
