<?xml version="1.0" encoding="UTF-8" standalone="no"?>
<!DOCTYPE svg PUBLIC "-//W3C//DTD SVG 1.1//EN"
 "http://www.w3.org/Graphics/SVG/1.1/DTD/svg11.dtd">
<!-- Generated by graphviz version 2.43.0 (0)
 -->
<!-- Title: include/y3c/shared_ptr.h Pages: 1 -->
<svg width="513pt" height="313pt"
 viewBox="0.00 0.00 513.19 313.00" xmlns="http://www.w3.org/2000/svg" xmlns:xlink="http://www.w3.org/1999/xlink">
<g id="graph0" class="graph" transform="scale(1 1) rotate(0) translate(4 309)">
<title>include/y3c/shared_ptr.h</title>
<!-- Node1 -->
<g id="Node000001" class="node">
<title>Node1</title>
<g id="a_Node000001"><a xlink:title=" ">
<polygon fill="#999999" stroke="#666666" points="234,-305 126,-305 126,-275 234,-275 234,-305"/>
<text text-anchor="start" x="134" y="-293" font-family="Helvetica,sans-Serif" font-size="10.00">include/y3c/shared</text>
<text text-anchor="middle" x="180" y="-282" font-family="Helvetica,sans-Serif" font-size="10.00">_ptr.h</text>
</a>
</g>
</g>
<!-- Node2 -->
<g id="Node000002" class="node">
<title>Node2</title>
<g id="a_Node000002"><a xlink:href="terminate_8h.html" target="_top" xlink:title=" ">
<polygon fill="white" stroke="#666666" points="259,-129 165,-129 165,-110 259,-110 259,-129"/>
<text text-anchor="middle" x="212" y="-117" font-family="Helvetica,sans-Serif" font-size="10.00">y3c/terminate.h</text>
</a>
</g>
</g>
<!-- Node1&#45;&gt;Node2 -->
<g id="edge1_Node000001_Node000002" class="edge">
<title>Node1&#45;&gt;Node2</title>
<g id="a_edge1_Node000001_Node000002"><a xlink:title=" ">
<path fill="none" stroke="#63b8ff" d="M184.12,-274.65C186.88,-264.7 190.46,-251.11 193,-239 200.35,-203.95 206.39,-162.55 209.57,-139.12"/>
<polygon fill="#63b8ff" stroke="#63b8ff" points="213.05,-139.55 210.9,-129.18 206.11,-138.63 213.05,-139.55"/>
</a>
</g>
</g>
<!-- Node7 -->
<g id="Node000007" class="node">
<title>Node7</title>
<g id="a_Node000007"><a xlink:title=" ">
<polygon fill="#e0e0e0" stroke="#999999" points="58,-74 0,-74 0,-55 58,-55 58,-74"/>
<text text-anchor="middle" x="29" y="-62" font-family="Helvetica,sans-Serif" font-size="10.00">memory</text>
</a>
</g>
</g>
<!-- Node1&#45;&gt;Node7 -->
<g id="edge22_Node000001_Node000007" class="edge">
<title>Node1&#45;&gt;Node7</title>
<g id="a_edge22_Node000001_Node000007"><a xlink:title=" ">
<path fill="none" stroke="#63b8ff" d="M155.08,-274.88C139.84,-265.66 120.38,-252.79 105,-239 81.28,-217.72 75.76,-211.1 59,-184 44.97,-161.32 41.67,-154.82 35,-129 31.23,-114.39 29.77,-97.34 29.23,-84.59"/>
<polygon fill="#63b8ff" stroke="#63b8ff" points="32.72,-84.18 28.96,-74.28 25.73,-84.37 32.72,-84.18"/>
</a>
</g>
</g>
<!-- Node10 -->
<g id="Node000010" class="node">
<title>Node10</title>
<g id="a_Node000010"><a xlink:href="wrap_8h.html" target="_top" xlink:title=" ">
<polygon fill="white" stroke="#666666" points="184,-239 114,-239 114,-220 184,-220 184,-239"/>
<text text-anchor="middle" x="149" y="-227" font-family="Helvetica,sans-Serif" font-size="10.00">y3c/wrap.h</text>
</a>
</g>
</g>
<!-- Node1&#45;&gt;Node10 -->
<g id="edge11_Node000001_Node000010" class="edge">
<title>Node1&#45;&gt;Node10</title>
<g id="a_edge11_Node000001_Node000010"><a xlink:title=" ">
<path fill="none" stroke="#63b8ff" d="M172.5,-274.84C168.27,-266.87 162.96,-256.84 158.45,-248.33"/>
<polygon fill="#63b8ff" stroke="#63b8ff" points="161.42,-246.46 153.65,-239.27 155.23,-249.74 161.42,-246.46"/>
</a>
</g>
</g>
<!-- Node13 -->
<g id="Node000013" class="node">
<title>Node13</title>
<g id="a_Node000013"><a xlink:href="typename_8h.html" target="_top" xlink:title=" ">
<polygon fill="white" stroke="#666666" points="335.5,-184 240.5,-184 240.5,-165 335.5,-165 335.5,-184"/>
<text text-anchor="middle" x="288" y="-172" font-family="Helvetica,sans-Serif" font-size="10.00">y3c/typename.h</text>
</a>
</g>
</g>
<!-- Node1&#45;&gt;Node13 -->
<g id="edge21_Node000001_Node000013" class="edge">
<title>Node1&#45;&gt;Node13</title>
<g id="a_edge21_Node000001_Node000013"><a xlink:title=" ">
<path fill="none" stroke="#63b8ff" d="M193.68,-274.63C213.9,-253.37 251.65,-213.71 272.74,-191.54"/>
<polygon fill="#63b8ff" stroke="#63b8ff" points="275.34,-193.89 279.69,-184.23 270.26,-189.06 275.34,-193.89"/>
</a>
</g>
</g>
<!-- Node3 -->
<g id="Node000003" class="node">
<title>Node3</title>
<g id="a_Node000003"><a xlink:href="y3c-config_8h.html" target="_top" xlink:title=" ">
<polygon fill="white" stroke="#666666" points="148,-19 72,-19 72,0 148,0 148,-19"/>
<text text-anchor="middle" x="110" y="-7" font-family="Helvetica,sans-Serif" font-size="10.00">y3c&#45;config.h</text>
</a>
</g>
</g>
<!-- Node2&#45;&gt;Node3 -->
<g id="edge2_Node000002_Node000003" class="edge">
<title>Node2&#45;&gt;Node3</title>
<g id="a_edge2_Node000002_Node000003"><a xlink:title=" ">
<path fill="none" stroke="#63b8ff" d="M164.84,-111.17C142.75,-105.12 118.4,-94.08 105,-74 96.19,-60.79 98.83,-42.42 102.86,-28.83"/>
<polygon fill="#63b8ff" stroke="#63b8ff" points="106.24,-29.75 106.19,-19.15 99.63,-27.47 106.24,-29.75"/>
</a>
</g>
</g>
<!-- Node4 -->
<g id="Node000004" class="node">
<title>Node4</title>
<g id="a_Node000004"><a xlink:href="what_8h.html" target="_top" xlink:title=" ">
<polygon fill="white" stroke="#666666" points="184,-74 114,-74 114,-55 184,-55 184,-74"/>
<text text-anchor="middle" x="149" y="-62" font-family="Helvetica,sans-Serif" font-size="10.00">y3c/what.h</text>
</a>
</g>
</g>
<!-- Node2&#45;&gt;Node4 -->
<g id="edge3_Node000002_Node000004" class="edge">
<title>Node2&#45;&gt;Node4</title>
<g id="a_edge3_Node000002_Node000004"><a xlink:title=" ">
<path fill="none" stroke="#63b8ff" d="M201.88,-109.98C192.56,-102.15 178.53,-90.34 167.26,-80.86"/>
<polygon fill="#63b8ff" stroke="#63b8ff" points="169.21,-77.93 159.31,-74.17 164.71,-83.29 169.21,-77.93"/>
</a>
</g>
</g>
<!-- Node5 -->
<g id="Node000005" class="node">
<title>Node5</title>
<g id="a_Node000005"><a xlink:title=" ">
<polygon fill="#e0e0e0" stroke="#999999" points="234,-19 190,-19 190,0 234,0 234,-19"/>
<text text-anchor="middle" x="212" y="-7" font-family="Helvetica,sans-Serif" font-size="10.00">string</text>
</a>
</g>
</g>
<!-- Node2&#45;&gt;Node5 -->
<g id="edge7_Node000002_Node000005" class="edge">
<title>Node2&#45;&gt;Node5</title>
<g id="a_edge7_Node000002_Node000005"><a xlink:title=" ">
<path fill="none" stroke="#63b8ff" d="M212,-109.66C212,-92.17 212,-52.8 212,-29.27"/>
<polygon fill="#63b8ff" stroke="#63b8ff" points="215.5,-29.16 212,-19.16 208.5,-29.16 215.5,-29.16"/>
</a>
</g>
</g>
<!-- Node6 -->
<g id="Node000006" class="node">
<title>Node6</title>
<g id="a_Node000006"><a xlink:title=" ">
<polygon fill="#e0e0e0" stroke="#999999" points="305.5,-74 240.5,-74 240.5,-55 305.5,-55 305.5,-74"/>
<text text-anchor="middle" x="273" y="-62" font-family="Helvetica,sans-Serif" font-size="10.00">stdexcept</text>
</a>
</g>
</g>
<!-- Node2&#45;&gt;Node6 -->
<g id="edge6_Node000002_Node000006" class="edge">
<title>Node2&#45;&gt;Node6</title>
<g id="a_edge6_Node000002_Node000006"><a xlink:title=" ">
<path fill="none" stroke="#63b8ff" d="M221.8,-109.98C230.82,-102.15 244.41,-90.34 255.32,-80.86"/>
<polygon fill="#63b8ff" stroke="#63b8ff" points="257.77,-83.37 263.02,-74.17 253.18,-78.09 257.77,-83.37"/>
</a>
</g>
</g>
<!-- Node2&#45;&gt;Node7 -->
<g id="edge8_Node000002_Node000007" class="edge">
<title>Node2&#45;&gt;Node7</title>
<g id="a_edge8_Node000002_Node000007"><a xlink:title=" ">
<path fill="none" stroke="#63b8ff" d="M182.6,-109.98C151.42,-100.96 102.04,-86.65 67.72,-76.71"/>
<polygon fill="#63b8ff" stroke="#63b8ff" points="68.61,-73.33 58.03,-73.91 66.66,-80.05 68.61,-73.33"/>
</a>
</g>
</g>
<!-- Node8 -->
<g id="Node000008" class="node">
<title>Node8</title>
<g id="a_Node000008"><a xlink:title=" ">
<polygon fill="#e0e0e0" stroke="#999999" points="416.5,-74 323.5,-74 323.5,-55 416.5,-55 416.5,-74"/>
<text text-anchor="middle" x="370" y="-62" font-family="Helvetica,sans-Serif" font-size="10.00">unordered_map</text>
</a>
</g>
</g>
<!-- Node2&#45;&gt;Node8 -->
<g id="edge9_Node000002_Node000008" class="edge">
<title>Node2&#45;&gt;Node8</title>
<g id="a_edge9_Node000002_Node000008"><a xlink:title=" ">
<path fill="none" stroke="#63b8ff" d="M237.39,-109.98C263.8,-101.13 305.35,-87.19 334.89,-77.28"/>
<polygon fill="#63b8ff" stroke="#63b8ff" points="336.05,-80.58 344.42,-74.08 333.82,-73.94 336.05,-80.58"/>
</a>
</g>
</g>
<!-- Node9 -->
<g id="Node000009" class="node">
<title>Node9</title>
<g id="a_Node000009"><a xlink:title=" ">
<polygon fill="#e0e0e0" stroke="#999999" points="485,-74 435,-74 435,-55 485,-55 485,-74"/>
<text text-anchor="middle" x="460" y="-62" font-family="Helvetica,sans-Serif" font-size="10.00">atomic</text>
</a>
</g>
</g>
<!-- Node2&#45;&gt;Node9 -->
<g id="edge10_Node000002_Node000009" class="edge">
<title>Node2&#45;&gt;Node9</title>
<g id="a_edge10_Node000002_Node000009"><a xlink:title=" ">
<path fill="none" stroke="#63b8ff" d="M255.56,-109.97C296.76,-101.79 360.57,-88.81 424.87,-74.19"/>
<polygon fill="#63b8ff" stroke="#63b8ff" points="425.81,-77.57 434.78,-71.93 424.25,-70.74 425.81,-77.57"/>
</a>
</g>
</g>
<!-- Node4&#45;&gt;Node3 -->
<g id="edge4_Node000004_Node000003" class="edge">
<title>Node4&#45;&gt;Node3</title>
<g id="a_edge4_Node000004_Node000003"><a xlink:title=" ">
<path fill="none" stroke="#63b8ff" d="M142.56,-54.75C137.11,-47.34 129.14,-36.5 122.44,-27.41"/>
<polygon fill="#63b8ff" stroke="#63b8ff" points="125.07,-25.07 116.32,-19.09 119.43,-29.22 125.07,-25.07"/>
</a>
</g>
</g>
<!-- Node4&#45;&gt;Node5 -->
<g id="edge5_Node000004_Node000005" class="edge">
<title>Node4&#45;&gt;Node5</title>
<g id="a_edge5_Node000004_Node000005"><a xlink:title=" ">
<path fill="none" stroke="#63b8ff" d="M159.12,-54.98C168.44,-47.15 182.47,-35.34 193.74,-25.86"/>
<polygon fill="#63b8ff" stroke="#63b8ff" points="196.29,-28.29 201.69,-19.17 191.79,-22.93 196.29,-28.29"/>
</a>
</g>
</g>
<!-- Node10&#45;&gt;Node2 -->
<g id="edge12_Node000010_Node000002" class="edge">
<title>Node10&#45;&gt;Node2</title>
<g id="a_edge12_Node000010_Node000002"><a xlink:title=" ">
<path fill="none" stroke="#63b8ff" d="M154.16,-219.66C164.54,-201.85 188.16,-161.37 201.79,-138.01"/>
<polygon fill="#63b8ff" stroke="#63b8ff" points="204.93,-139.56 206.95,-129.16 198.89,-136.03 204.93,-139.56"/>
</a>
</g>
</g>
<!-- Node10&#45;&gt;Node7 -->
<g id="edge20_Node000010_Node000007" class="edge">
<title>Node10&#45;&gt;Node7</title>
<g id="a_edge20_Node000010_Node000007"><a xlink:title=" ">
<path fill="none" stroke="#63b8ff" d="M126.89,-219.88C110.58,-212.53 88.9,-200.51 75,-184 49.98,-154.28 37.62,-109.4 32.34,-84.26"/>
<polygon fill="#63b8ff" stroke="#63b8ff" points="35.73,-83.38 30.39,-74.23 28.86,-84.71 35.73,-83.38"/>
</a>
</g>
</g>
<!-- Node11 -->
<g id="Node000011" class="node">
<title>Node11</title>
<g id="a_Node000011"><a xlink:href="life_8h.html" target="_top" xlink:title=" ">
<polygon fill="white" stroke="#666666" points="146,-184 84,-184 84,-165 146,-165 146,-184"/>
<text text-anchor="middle" x="115" y="-172" font-family="Helvetica,sans-Serif" font-size="10.00">y3c/life.h</text>
</a>
</g>
</g>
<!-- Node10&#45;&gt;Node11 -->
<g id="edge13_Node000010_Node000011" class="edge">
<title>Node10&#45;&gt;Node11</title>
<g id="a_edge13_Node000010_Node000011"><a xlink:title=" ">
<path fill="none" stroke="#63b8ff" d="M143.39,-219.75C138.68,-212.42 131.83,-201.73 126.03,-192.7"/>
<polygon fill="#63b8ff" stroke="#63b8ff" points="128.86,-190.62 120.51,-184.09 122.96,-194.4 128.86,-190.62"/>
</a>
</g>
</g>
<!-- Node10&#45;&gt;Node13 -->
<g id="edge17_Node000010_Node000013" class="edge">
<title>Node10&#45;&gt;Node13</title>
<g id="a_edge17_Node000010_Node000013"><a xlink:title=" ">
<path fill="none" stroke="#63b8ff" d="M171.33,-219.98C194.2,-211.27 229.96,-197.63 255.86,-187.75"/>
<polygon fill="#63b8ff" stroke="#63b8ff" points="257.16,-191 265.26,-184.17 254.67,-184.46 257.16,-191"/>
</a>
</g>
</g>
<!-- Node11&#45;&gt;Node2 -->
<g id="edge14_Node000011_Node000002" class="edge">
<title>Node11&#45;&gt;Node2</title>
<g id="a_edge14_Node000011_Node000002"><a xlink:title=" ">
<path fill="none" stroke="#63b8ff" d="M130.58,-164.98C145.77,-156.69 169.1,-143.94 186.9,-134.22"/>
<polygon fill="#63b8ff" stroke="#63b8ff" points="189.03,-137.04 196.13,-129.17 185.68,-130.89 189.03,-137.04"/>
</a>
</g>
</g>
<!-- Node11&#45;&gt;Node7 -->
<g id="edge15_Node000011_Node000007" class="edge">
<title>Node11&#45;&gt;Node7</title>
<g id="a_edge15_Node000011_Node000007"><a xlink:title=" ">
<path fill="none" stroke="#63b8ff" d="M107.96,-164.66C93.59,-146.61 60.67,-105.28 42.2,-82.08"/>
<polygon fill="#63b8ff" stroke="#63b8ff" points="44.86,-79.8 35.89,-74.16 39.39,-84.16 44.86,-79.8"/>
</a>
</g>
</g>
<!-- Node12 -->
<g id="Node000012" class="node">
<title>Node12</title>
<g id="a_Node000012"><a xlink:title=" ">
<polygon fill="#e0e0e0" stroke="#999999" points="146.5,-129 99.5,-129 99.5,-110 146.5,-110 146.5,-129"/>
<text text-anchor="middle" x="123" y="-117" font-family="Helvetica,sans-Serif" font-size="10.00">vector</text>
</a>
</g>
</g>
<!-- Node11&#45;&gt;Node12 -->
<g id="edge16_Node000011_Node000012" class="edge">
<title>Node11&#45;&gt;Node12</title>
<g id="a_edge16_Node000011_Node000012"><a xlink:title=" ">
<path fill="none" stroke="#63b8ff" d="M116.32,-164.75C117.37,-157.8 118.87,-147.85 120.19,-139.13"/>
<polygon fill="#63b8ff" stroke="#63b8ff" points="123.67,-139.5 121.7,-129.09 116.75,-138.45 123.67,-139.5"/>
</a>
</g>
</g>
<!-- Node13&#45;&gt;Node2 -->
<g id="edge18_Node000013_Node000002" class="edge">
<title>Node13&#45;&gt;Node2</title>
<g id="a_edge18_Node000013_Node000002"><a xlink:title=" ">
<path fill="none" stroke="#63b8ff" d="M275.79,-164.98C264.22,-156.92 246.62,-144.65 232.84,-135.03"/>
<polygon fill="#63b8ff" stroke="#63b8ff" points="234.64,-132.02 224.43,-129.17 230.63,-137.76 234.64,-132.02"/>
</a>
</g>
</g>
<!-- Node13&#45;&gt;Node5 -->
<g id="edge19_Node000013_Node000005" class="edge">
<title>Node13&#45;&gt;Node5</title>
<g id="a_edge19_Node000013_Node000005"><a xlink:title=" ">
<path fill="none" stroke="#63b8ff" d="M335.75,-165.1C411.1,-149.85 544.12,-113.65 494,-55 462.2,-17.79 311.62,-11.51 244.46,-10.58"/>
<polygon fill="#63b8ff" stroke="#63b8ff" points="244.09,-7.08 234.06,-10.47 244.02,-14.08 244.09,-7.08"/>
</a>
</g>
</g>
</g>
</svg>
