<?xml version="1.0" encoding="UTF-8" standalone="no"?>
<!DOCTYPE svg PUBLIC "-//W3C//DTD SVG 1.1//EN"
 "http://www.w3.org/Graphics/SVG/1.1/DTD/svg11.dtd">
<!-- Generated by graphviz version 2.43.0 (0)
 -->
<!-- Title: Dwarf_Regtable3_s Pages: 1 -->
<svg width="150pt" height="170pt"
 viewBox="0.00 0.00 150.00 170.00" xmlns="http://www.w3.org/2000/svg" xmlns:xlink="http://www.w3.org/1999/xlink">
<g id="graph0" class="graph" transform="scale(1 1) rotate(0) translate(4 166)">
<title>Dwarf_Regtable3_s</title>
<!-- Node1 -->
<g id="Node000001" class="node">
<title>Node1</title>
<g id="a_Node000001"><a xlink:title=" ">
<polygon fill="#999999" stroke="#666666" points="126.5,-19 15.5,-19 15.5,0 126.5,0 126.5,-19"/>
<text text-anchor="middle" x="71" y="-7" font-family="Helvetica,sans-Serif" font-size="10.00">Dwarf_Regtable3_s</text>
</a>
</g>
</g>
<!-- Node2 -->
<g id="Node000002" class="node">
<title>Node2</title>
<g id="a_Node000002"><a xlink:href="structDwarf__Regtable__Entry3__s.html" target="_top" xlink:title=" ">
<polygon fill="white" stroke="#666666" points="142,-96 0,-96 0,-77 142,-77 142,-96"/>
<text text-anchor="middle" x="71" y="-84" font-family="Helvetica,sans-Serif" font-size="10.00">Dwarf_Regtable_Entry3_s</text>
</a>
</g>
</g>
<!-- Node2&#45;&gt;Node1 -->
<g id="edge1_Node000001_Node000002" class="edge">
<title>Node2&#45;&gt;Node1</title>
<g id="a_edge1_Node000001_Node000002"><a xlink:title=" ">
<path fill="none" stroke="#9a32cd" stroke-dasharray="5,2" d="M71,-66.52C71,-51.24 71,-30.48 71,-19"/>
<polygon fill="#9a32cd" stroke="#9a32cd" points="67.5,-66.9 71,-76.9 74.5,-66.9 67.5,-66.9"/>
</a>
</g>
<text text-anchor="middle" x="101.5" y="-51" font-family="Helvetica,sans-Serif" font-size="10.00" fill="grey"> rt3_cfa_rule</text>
<text text-anchor="middle" x="101.5" y="-40" font-family="Helvetica,sans-Serif" font-size="10.00" fill="grey">rt3_rules</text>
</g>
<!-- Node3 -->
<g id="Node000003" class="node">
<title>Node3</title>
<g id="a_Node000003"><a xlink:href="structDwarf__Block__s.html" target="_top" xlink:title=" ">
<polygon fill="white" stroke="#666666" points="115.5,-162 26.5,-162 26.5,-143 115.5,-143 115.5,-162"/>
<text text-anchor="middle" x="71" y="-150" font-family="Helvetica,sans-Serif" font-size="10.00">Dwarf_Block_s</text>
</a>
</g>
</g>
<!-- Node3&#45;&gt;Node2 -->
<g id="edge2_Node000002_Node000003" class="edge">
<title>Node3&#45;&gt;Node2</title>
<g id="a_edge2_Node000002_Node000003"><a xlink:title=" ">
<path fill="none" stroke="#9a32cd" stroke-dasharray="5,2" d="M71,-132.58C71,-120.63 71,-105.72 71,-96.41"/>
<polygon fill="#9a32cd" stroke="#9a32cd" points="67.5,-132.87 71,-142.87 74.5,-132.87 67.5,-132.87"/>
</a>
</g>
<text text-anchor="middle" x="95.5" y="-117" font-family="Helvetica,sans-Serif" font-size="10.00" fill="grey"> dw_block</text>
</g>
</g>
</svg>
