<?xml version="1.0" encoding="UTF-8" standalone="no"?>
<!DOCTYPE svg PUBLIC "-//W3C//DTD SVG 1.1//EN"
 "http://www.w3.org/Graphics/SVG/1.1/DTD/svg11.dtd">
<!-- Generated by graphviz version 2.43.0 (0)
 -->
<!-- Title: include/y3c/terminate.h Pages: 1 -->
<svg width="747pt" height="258pt"
 viewBox="0.00 0.00 747.35 258.00" xmlns="http://www.w3.org/2000/svg" xmlns:xlink="http://www.w3.org/1999/xlink">
<g id="graph0" class="graph" transform="scale(1 1) rotate(0) translate(4 254)">
<title>include/y3c/terminate.h</title>
<!-- Node1 -->
<g id="Node000001" class="node">
<title>Node1</title>
<g id="a_Node000001"><a xlink:title=" ">
<polygon fill="#999999" stroke="#666666" points="323.35,-250 191.35,-250 191.35,-231 323.35,-231 323.35,-250"/>
<text text-anchor="middle" x="257.35" y="-238" font-family="Helvetica,sans-Serif" font-size="10.00">include/y3c/terminate.h</text>
</a>
</g>
</g>
<!-- Node2 -->
<g id="Node000002" class="node">
<title>Node2</title>
<g id="a_Node000002"><a xlink:href="array_8h.html" target="_top" xlink:title=" ">
<polygon fill="white" stroke="#666666" points="171.35,-19 63.35,-19 63.35,0 171.35,0 171.35,-19"/>
<text text-anchor="middle" x="117.35" y="-7" font-family="Helvetica,sans-Serif" font-size="10.00">include/y3c/array.h</text>
</a>
</g>
</g>
<!-- Node1&#45;&gt;Node2 -->
<g id="edge1_Node000001_Node000002" class="edge">
<title>Node1&#45;&gt;Node2</title>
<g id="a_edge1_Node000001_Node000002"><a xlink:title=" ">
<path fill="none" stroke="#63b8ff" d="M180.82,-235.7C143.55,-230.54 99.88,-219.24 67.35,-195 22.18,-161.34 18.84,-139.44 4.35,-85 0.93,-72.12 -3.15,-66.02 4.35,-55 17.71,-35.39 41.14,-24.43 63.23,-18.29"/>
<polygon fill="#63b8ff" stroke="#63b8ff" points="180.79,-239.22 191.15,-237 181.66,-232.28 180.79,-239.22"/>
</a>
</g>
</g>
<!-- Node3 -->
<g id="Node000003" class="node">
<title>Node3</title>
<g id="a_Node000003"><a xlink:href="iterator_8h.html" target="_top" xlink:title=" ">
<polygon fill="white" stroke="#666666" points="132.85,-79.5 13.85,-79.5 13.85,-60.5 132.85,-60.5 132.85,-79.5"/>
<text text-anchor="middle" x="73.35" y="-67.5" font-family="Helvetica,sans-Serif" font-size="10.00">include/y3c/iterator.h</text>
</a>
</g>
</g>
<!-- Node1&#45;&gt;Node3 -->
<g id="edge2_Node000001_Node000003" class="edge">
<title>Node1&#45;&gt;Node3</title>
<g id="a_edge2_Node000001_Node000003"><a xlink:title=" ">
<path fill="none" stroke="#63b8ff" d="M182.1,-229.25C140.86,-221.98 95.51,-210.71 82.35,-195 53.95,-161.08 65.26,-101.97 70.9,-79.76"/>
<polygon fill="#63b8ff" stroke="#63b8ff" points="181.75,-232.74 192.19,-230.96 182.92,-225.84 181.75,-232.74"/>
</a>
</g>
</g>
<!-- Node4 -->
<g id="Node000004" class="node">
<title>Node4</title>
<g id="a_Node000004"><a xlink:href="vector_8h.html" target="_top" xlink:title=" ">
<polygon fill="white" stroke="#666666" points="380.35,-19 266.35,-19 266.35,0 380.35,0 380.35,-19"/>
<text text-anchor="middle" x="323.35" y="-7" font-family="Helvetica,sans-Serif" font-size="10.00">include/y3c/vector.h</text>
</a>
</g>
</g>
<!-- Node1&#45;&gt;Node4 -->
<g id="edge18_Node000001_Node000004" class="edge">
<title>Node1&#45;&gt;Node4</title>
<g id="a_edge18_Node000001_Node000004"><a xlink:title=" ">
<path fill="none" stroke="#63b8ff" d="M331.75,-229.28C372.08,-222.05 416.13,-210.81 428.35,-195 452.97,-163.16 511.59,-210.55 395.35,-55 382.78,-38.17 361.78,-26.25 345.7,-19.02"/>
<polygon fill="#63b8ff" stroke="#63b8ff" points="331.12,-225.83 321.87,-230.99 332.32,-232.73 331.12,-225.83"/>
</a>
</g>
</g>
<!-- Node5 -->
<g id="Node000005" class="node">
<title>Node5</title>
<g id="a_Node000005"><a xlink:href="life_8h.html" target="_top" xlink:title=" ">
<polygon fill="white" stroke="#666666" points="191.35,-195 91.35,-195 91.35,-176 191.35,-176 191.35,-195"/>
<text text-anchor="middle" x="141.35" y="-183" font-family="Helvetica,sans-Serif" font-size="10.00">include/y3c/life.h</text>
</a>
</g>
</g>
<!-- Node1&#45;&gt;Node5 -->
<g id="edge5_Node000001_Node000005" class="edge">
<title>Node1&#45;&gt;Node5</title>
<g id="a_edge5_Node000001_Node000005"><a xlink:title=" ">
<path fill="none" stroke="#63b8ff" d="M229.48,-226.77C208.09,-216.99 179.12,-203.75 160.33,-195.17"/>
<polygon fill="#63b8ff" stroke="#63b8ff" points="228.17,-230.01 238.72,-230.98 231.08,-223.65 228.17,-230.01"/>
</a>
</g>
</g>
<!-- Node6 -->
<g id="Node000006" class="node">
<title>Node6</title>
<g id="a_Node000006"><a xlink:href="wrap_8h.html" target="_top" xlink:title=" ">
<polygon fill="white" stroke="#666666" points="233.35,-140 125.35,-140 125.35,-121 233.35,-121 233.35,-140"/>
<text text-anchor="middle" x="179.35" y="-128" font-family="Helvetica,sans-Serif" font-size="10.00">include/y3c/wrap.h</text>
</a>
</g>
</g>
<!-- Node1&#45;&gt;Node6 -->
<g id="edge19_Node000001_Node000006" class="edge">
<title>Node1&#45;&gt;Node6</title>
<g id="a_edge19_Node000001_Node000006"><a xlink:title=" ">
<path fill="none" stroke="#63b8ff" d="M244.99,-222.38C228.11,-199.01 198.47,-157.97 185.61,-140.16"/>
<polygon fill="#63b8ff" stroke="#63b8ff" points="242.28,-224.6 250.97,-230.66 247.95,-220.51 242.28,-224.6"/>
</a>
</g>
</g>
<!-- Node7 -->
<g id="Node000007" class="node">
<title>Node7</title>
<g id="a_Node000007"><a xlink:href="shared__ptr_8h.html" target="_top" xlink:title=" ">
<polygon fill="white" stroke="#666666" points="335.35,-85 227.35,-85 227.35,-55 335.35,-55 335.35,-85"/>
<text text-anchor="start" x="235.35" y="-73" font-family="Helvetica,sans-Serif" font-size="10.00">include/y3c/shared</text>
<text text-anchor="middle" x="281.35" y="-62" font-family="Helvetica,sans-Serif" font-size="10.00">_ptr.h</text>
</a>
</g>
</g>
<!-- Node1&#45;&gt;Node7 -->
<g id="edge12_Node000001_Node000007" class="edge">
<title>Node1&#45;&gt;Node7</title>
<g id="a_edge12_Node000001_Node000007"><a xlink:title=" ">
<path fill="none" stroke="#63b8ff" d="M260,-220.95C264.83,-187.02 275,-115.65 279.33,-85.22"/>
<polygon fill="#63b8ff" stroke="#63b8ff" points="256.52,-220.52 258.58,-230.91 263.45,-221.51 256.52,-220.52"/>
</a>
</g>
</g>
<!-- Node8 -->
<g id="Node000008" class="node">
<title>Node8</title>
<g id="a_Node000008"><a xlink:href="typename_8h.html" target="_top" xlink:title=" ">
<polygon fill="white" stroke="#666666" points="419.35,-195 285.35,-195 285.35,-176 419.35,-176 419.35,-195"/>
<text text-anchor="middle" x="352.35" y="-183" font-family="Helvetica,sans-Serif" font-size="10.00">include/y3c/typename.h</text>
</a>
</g>
</g>
<!-- Node1&#45;&gt;Node8 -->
<g id="edge13_Node000001_Node000008" class="edge">
<title>Node1&#45;&gt;Node8</title>
<g id="a_edge13_Node000001_Node000008"><a xlink:title=" ">
<path fill="none" stroke="#63b8ff" d="M281.61,-225.97C298.98,-216.28 321.85,-203.52 336.81,-195.17"/>
<polygon fill="#63b8ff" stroke="#63b8ff" points="279.65,-223.06 272.62,-230.98 283.06,-229.17 279.65,-223.06"/>
</a>
</g>
</g>
<!-- Node9 -->
<g id="Node000009" class="node">
<title>Node9</title>
<g id="a_Node000009"><a xlink:href="final__message_8cc.html" target="_top" xlink:title=" ">
<polygon fill="white" stroke="#666666" points="593.35,-195 475.35,-195 475.35,-176 593.35,-176 593.35,-195"/>
<text text-anchor="middle" x="534.35" y="-183" font-family="Helvetica,sans-Serif" font-size="10.00">src/final_message.cc</text>
</a>
</g>
</g>
<!-- Node1&#45;&gt;Node9 -->
<g id="edge20_Node000001_Node000009" class="edge">
<title>Node1&#45;&gt;Node9</title>
<g id="a_edge20_Node000001_Node000009"><a xlink:title=" ">
<path fill="none" stroke="#63b8ff" d="M311.89,-229.07C363.82,-219.13 441.05,-204.35 489.5,-195.08"/>
<polygon fill="#63b8ff" stroke="#63b8ff" points="311.02,-225.67 301.86,-230.98 312.34,-232.54 311.02,-225.67"/>
</a>
</g>
</g>
<!-- Node10 -->
<g id="Node000010" class="node">
<title>Node10</title>
<g id="a_Node000010"><a xlink:href="terminate__detail_8cc.html" target="_top" xlink:title=" ">
<polygon fill="white" stroke="#666666" points="739.35,-195 611.35,-195 611.35,-176 739.35,-176 739.35,-195"/>
<text text-anchor="middle" x="675.35" y="-183" font-family="Helvetica,sans-Serif" font-size="10.00">src/terminate_detail.cc</text>
</a>
</g>
</g>
<!-- Node1&#45;&gt;Node10 -->
<g id="edge21_Node000001_Node000010" class="edge">
<title>Node1&#45;&gt;Node10</title>
<g id="a_edge21_Node000001_Node000010"><a xlink:title=" ">
<path fill="none" stroke="#63b8ff" d="M333.54,-229.84C413.07,-219.76 536.4,-204.12 611.15,-194.64"/>
<polygon fill="#63b8ff" stroke="#63b8ff" points="333.07,-226.37 323.59,-231.1 333.95,-233.32 333.07,-226.37"/>
</a>
</g>
</g>
<!-- Node3&#45;&gt;Node2 -->
<g id="edge3_Node000003_Node000002" class="edge">
<title>Node3&#45;&gt;Node2</title>
<g id="a_edge3_Node000003_Node000002"><a xlink:title=" ">
<path fill="none" stroke="#63b8ff" d="M86.04,-52.13C94.15,-41.35 104.33,-27.82 110.84,-19.17"/>
<polygon fill="#63b8ff" stroke="#63b8ff" points="83.06,-50.27 79.85,-60.37 88.66,-54.48 83.06,-50.27"/>
</a>
</g>
</g>
<!-- Node3&#45;&gt;Node4 -->
<g id="edge4_Node000003_Node000004" class="edge">
<title>Node3&#45;&gt;Node4</title>
<g id="a_edge4_Node000003_Node000004"><a xlink:title=" ">
<path fill="none" stroke="#63b8ff" d="M119.59,-58.18C167.9,-46.88 242.69,-29.38 286.96,-19.02"/>
<polygon fill="#63b8ff" stroke="#63b8ff" points="118.65,-54.81 109.71,-60.49 120.24,-61.62 118.65,-54.81"/>
</a>
</g>
</g>
<!-- Node5&#45;&gt;Node3 -->
<g id="edge6_Node000005_Node000003" class="edge">
<title>Node5&#45;&gt;Node3</title>
<g id="a_edge6_Node000005_Node000003"><a xlink:title=" ">
<path fill="none" stroke="#63b8ff" d="M131.06,-167.32C116.31,-142.69 89.7,-98.29 78.53,-79.63"/>
<polygon fill="#63b8ff" stroke="#63b8ff" points="128.1,-169.19 136.24,-175.97 134.11,-165.59 128.1,-169.19"/>
</a>
</g>
</g>
<!-- Node5&#45;&gt;Node6 -->
<g id="edge7_Node000005_Node000006" class="edge">
<title>Node5&#45;&gt;Node6</title>
<g id="a_edge7_Node000005_Node000006"><a xlink:title=" ">
<path fill="none" stroke="#63b8ff" d="M153.62,-167.39C160.16,-158.27 167.92,-147.45 173.2,-140.09"/>
<polygon fill="#63b8ff" stroke="#63b8ff" points="150.61,-165.58 147.63,-175.75 156.3,-169.66 150.61,-165.58"/>
</a>
</g>
</g>
<!-- Node6&#45;&gt;Node2 -->
<g id="edge8_Node000006_Node000002" class="edge">
<title>Node6&#45;&gt;Node2</title>
<g id="a_edge8_Node000006_Node000002"><a xlink:title=" ">
<path fill="none" stroke="#63b8ff" d="M170.71,-111.46C163.37,-96.29 152.45,-74.09 142.35,-55 135.73,-42.47 127.62,-28.22 122.47,-19.29"/>
<polygon fill="#63b8ff" stroke="#63b8ff" points="167.68,-113.22 175.17,-120.71 173.98,-110.18 167.68,-113.22"/>
</a>
</g>
</g>
<!-- Node6&#45;&gt;Node3 -->
<g id="edge9_Node000006_Node000003" class="edge">
<title>Node6&#45;&gt;Node3</title>
<g id="a_edge9_Node000006_Node000003"><a xlink:title=" ">
<path fill="none" stroke="#63b8ff" d="M154.75,-115.92C134.5,-104.74 106.39,-89.23 89.06,-79.67"/>
<polygon fill="#63b8ff" stroke="#63b8ff" points="153.27,-119.1 163.71,-120.87 156.65,-112.97 153.27,-119.1"/>
</a>
</g>
</g>
<!-- Node6&#45;&gt;Node4 -->
<g id="edge11_Node000006_Node000004" class="edge">
<title>Node6&#45;&gt;Node4</title>
<g id="a_edge11_Node000006_Node000004"><a xlink:title=" ">
<path fill="none" stroke="#63b8ff" d="M184.91,-111.3C190.81,-94.68 201.62,-70.42 218.35,-55 237.72,-37.15 265.3,-25.84 287.34,-19.09"/>
<polygon fill="#63b8ff" stroke="#63b8ff" points="181.53,-110.35 181.73,-120.95 188.18,-112.55 181.53,-110.35"/>
</a>
</g>
</g>
<!-- Node6&#45;&gt;Node7 -->
<g id="edge10_Node000006_Node000007" class="edge">
<title>Node6&#45;&gt;Node7</title>
<g id="a_edge10_Node000006_Node000007"><a xlink:title=" ">
<path fill="none" stroke="#63b8ff" d="M203.22,-115.81C219.31,-106.58 240.5,-94.43 256.74,-85.11"/>
<polygon fill="#63b8ff" stroke="#63b8ff" points="201.34,-112.86 194.41,-120.87 204.82,-118.93 201.34,-112.86"/>
</a>
</g>
</g>
<!-- Node8&#45;&gt;Node2 -->
<g id="edge14_Node000008_Node000002" class="edge">
<title>Node8&#45;&gt;Node2</title>
<g id="a_edge14_Node000008_Node000002"><a xlink:title=" ">
<path fill="none" stroke="#63b8ff" d="M357.51,-165.99C364.02,-138.24 371.36,-85.82 344.35,-55 322.12,-29.63 231.31,-18.39 171.5,-13.67"/>
<polygon fill="#63b8ff" stroke="#63b8ff" points="354.06,-165.38 354.96,-175.94 360.84,-167.12 354.06,-165.38"/>
</a>
</g>
</g>
<!-- Node8&#45;&gt;Node4 -->
<g id="edge16_Node000008_Node000004" class="edge">
<title>Node8&#45;&gt;Node4</title>
<g id="a_edge16_Node000008_Node000004"><a xlink:title=" ">
<path fill="none" stroke="#63b8ff" d="M364.59,-167.54C369.6,-159.59 374.81,-149.74 377.35,-140 386.92,-103.45 393.47,-89.17 377.35,-55 369.74,-38.85 353.06,-26.57 340.24,-19.05"/>
<polygon fill="#63b8ff" stroke="#63b8ff" points="361.66,-165.63 358.98,-175.88 367.47,-169.54 361.66,-165.63"/>
</a>
</g>
</g>
<!-- Node8&#45;&gt;Node6 -->
<g id="edge17_Node000008_Node000006" class="edge">
<title>Node8&#45;&gt;Node6</title>
<g id="a_edge17_Node000008_Node000006"><a xlink:title=" ">
<path fill="none" stroke="#63b8ff" d="M314.58,-172.93C282.27,-163.03 236.5,-149.01 207.37,-140.08"/>
<polygon fill="#63b8ff" stroke="#63b8ff" points="313.97,-176.4 324.56,-175.98 316.02,-169.71 313.97,-176.4"/>
</a>
</g>
</g>
<!-- Node8&#45;&gt;Node7 -->
<g id="edge15_Node000008_Node000007" class="edge">
<title>Node8&#45;&gt;Node7</title>
<g id="a_edge15_Node000008_Node000007"><a xlink:title=" ">
<path fill="none" stroke="#63b8ff" d="M341.71,-167.48C327.69,-145.07 303.3,-106.08 290.23,-85.18"/>
<polygon fill="#63b8ff" stroke="#63b8ff" points="338.75,-169.35 347.02,-175.97 344.68,-165.63 338.75,-169.35"/>
</a>
</g>
</g>
</g>
</svg>
