<?xml version="1.0" encoding="UTF-8" standalone="no"?>
<!DOCTYPE svg PUBLIC "-//W3C//DTD SVG 1.1//EN"
 "http://www.w3.org/Graphics/SVG/1.1/DTD/svg11.dtd">
<!-- Generated by graphviz version 2.43.0 (0)
 -->
<!-- Title: include/y3c/terminate.h Pages: 1 -->
<svg width="637pt" height="203pt"
 viewBox="0.00 0.00 636.70 203.00" xmlns="http://www.w3.org/2000/svg" xmlns:xlink="http://www.w3.org/1999/xlink">
<g id="graph0" class="graph" transform="scale(1 1) rotate(0) translate(4 199)">
<title>include/y3c/terminate.h</title>
<!-- Node1 -->
<g id="Node000001" class="node">
<title>Node1</title>
<g id="a_Node000001"><a xlink:title=" ">
<polygon fill="#999999" stroke="#666666" points="307.7,-195 175.7,-195 175.7,-176 307.7,-176 307.7,-195"/>
<text text-anchor="middle" x="241.7" y="-183" font-family="Helvetica,sans-Serif" font-size="10.00">include/y3c/terminate.h</text>
</a>
</g>
</g>
<!-- Node2 -->
<g id="Node000002" class="node">
<title>Node2</title>
<g id="a_Node000002"><a xlink:href="array_8h.html" target="_top" xlink:title=" ">
<polygon fill="white" stroke="#666666" points="199.7,-24.5 91.7,-24.5 91.7,-5.5 199.7,-5.5 199.7,-24.5"/>
<text text-anchor="middle" x="145.7" y="-12.5" font-family="Helvetica,sans-Serif" font-size="10.00">include/y3c/array.h</text>
</a>
</g>
</g>
<!-- Node1&#45;&gt;Node2 -->
<g id="edge1_Node000001_Node000002" class="edge">
<title>Node1&#45;&gt;Node2</title>
<g id="a_edge1_Node000001_Node000002"><a xlink:title=" ">
<path fill="none" stroke="#63b8ff" d="M165.47,-180.13C105.65,-174.92 29.3,-163.72 9.7,-140 -30.71,-91.11 73.32,-43.49 122.08,-24.56"/>
<polygon fill="#63b8ff" stroke="#63b8ff" points="165.42,-183.64 175.67,-180.98 166,-176.66 165.42,-183.64"/>
</a>
</g>
</g>
<!-- Node3 -->
<g id="Node000003" class="node">
<title>Node3</title>
<g id="a_Node000003"><a xlink:href="life_8h.html" target="_top" xlink:title=" ">
<polygon fill="white" stroke="#666666" points="118.7,-140 18.7,-140 18.7,-121 118.7,-121 118.7,-140"/>
<text text-anchor="middle" x="68.7" y="-128" font-family="Helvetica,sans-Serif" font-size="10.00">include/y3c/life.h</text>
</a>
</g>
</g>
<!-- Node1&#45;&gt;Node3 -->
<g id="edge2_Node000001_Node000003" class="edge">
<title>Node1&#45;&gt;Node3</title>
<g id="a_edge2_Node000001_Node000003"><a xlink:title=" ">
<path fill="none" stroke="#63b8ff" d="M203.92,-172.93C171.61,-163.03 125.84,-149.01 96.71,-140.08"/>
<polygon fill="#63b8ff" stroke="#63b8ff" points="203.32,-176.4 213.9,-175.98 205.37,-169.71 203.32,-176.4"/>
</a>
</g>
</g>
<!-- Node4 -->
<g id="Node000004" class="node">
<title>Node4</title>
<g id="a_Node000004"><a xlink:href="wrap_8h.html" target="_top" xlink:title=" ">
<polygon fill="white" stroke="#666666" points="200.7,-85 92.7,-85 92.7,-66 200.7,-66 200.7,-85"/>
<text text-anchor="middle" x="146.7" y="-73" font-family="Helvetica,sans-Serif" font-size="10.00">include/y3c/wrap.h</text>
</a>
</g>
</g>
<!-- Node1&#45;&gt;Node4 -->
<g id="edge11_Node000001_Node000004" class="edge">
<title>Node1&#45;&gt;Node4</title>
<g id="a_edge11_Node000001_Node000004"><a xlink:title=" ">
<path fill="none" stroke="#63b8ff" d="M208.07,-171.58C193.19,-164.33 176.62,-153.91 165.7,-140 152.76,-123.53 148.62,-98.38 147.3,-85.22"/>
<polygon fill="#63b8ff" stroke="#63b8ff" points="206.98,-174.93 217.53,-175.89 209.88,-168.56 206.98,-174.93"/>
</a>
</g>
</g>
<!-- Node5 -->
<g id="Node000005" class="node">
<title>Node5</title>
<g id="a_Node000005"><a xlink:href="shared__ptr_8h.html" target="_top" xlink:title=" ">
<polygon fill="white" stroke="#666666" points="325.7,-30 217.7,-30 217.7,0 325.7,0 325.7,-30"/>
<text text-anchor="start" x="225.7" y="-18" font-family="Helvetica,sans-Serif" font-size="10.00">include/y3c/shared</text>
<text text-anchor="middle" x="271.7" y="-7" font-family="Helvetica,sans-Serif" font-size="10.00">_ptr.h</text>
</a>
</g>
</g>
<!-- Node1&#45;&gt;Node5 -->
<g id="edge6_Node000001_Node000005" class="edge">
<title>Node1&#45;&gt;Node5</title>
<g id="a_edge6_Node000001_Node000005"><a xlink:title=" ">
<path fill="none" stroke="#63b8ff" d="M279.53,-171.81C294.15,-164.84 309.34,-154.58 317.7,-140 339.05,-102.75 304.67,-53.76 284.58,-30.05"/>
<polygon fill="#63b8ff" stroke="#63b8ff" points="277.86,-168.72 270.09,-175.92 280.65,-175.14 277.86,-168.72"/>
</a>
</g>
</g>
<!-- Node6 -->
<g id="Node000006" class="node">
<title>Node6</title>
<g id="a_Node000006"><a xlink:href="typename_8h.html" target="_top" xlink:title=" ">
<polygon fill="white" stroke="#666666" points="308.7,-140 174.7,-140 174.7,-121 308.7,-121 308.7,-140"/>
<text text-anchor="middle" x="241.7" y="-128" font-family="Helvetica,sans-Serif" font-size="10.00">include/y3c/typename.h</text>
</a>
</g>
</g>
<!-- Node1&#45;&gt;Node6 -->
<g id="edge7_Node000001_Node000006" class="edge">
<title>Node1&#45;&gt;Node6</title>
<g id="a_edge7_Node000001_Node000006"><a xlink:title=" ">
<path fill="none" stroke="#63b8ff" d="M241.7,-165.66C241.7,-156.93 241.7,-146.99 241.7,-140.09"/>
<polygon fill="#63b8ff" stroke="#63b8ff" points="238.2,-165.75 241.7,-175.75 245.2,-165.75 238.2,-165.75"/>
</a>
</g>
</g>
<!-- Node7 -->
<g id="Node000007" class="node">
<title>Node7</title>
<g id="a_Node000007"><a xlink:href="final__message_8cc.html" target="_top" xlink:title=" ">
<polygon fill="white" stroke="#666666" points="482.7,-140 364.7,-140 364.7,-121 482.7,-121 482.7,-140"/>
<text text-anchor="middle" x="423.7" y="-128" font-family="Helvetica,sans-Serif" font-size="10.00">src/final_message.cc</text>
</a>
</g>
</g>
<!-- Node1&#45;&gt;Node7 -->
<g id="edge12_Node000001_Node000007" class="edge">
<title>Node1&#45;&gt;Node7</title>
<g id="a_edge12_Node000001_Node000007"><a xlink:title=" ">
<path fill="none" stroke="#63b8ff" d="M280.56,-173.18C314.6,-163.27 363.32,-149.08 394.23,-140.08"/>
<polygon fill="#63b8ff" stroke="#63b8ff" points="279.56,-169.83 270.94,-175.98 281.52,-176.55 279.56,-169.83"/>
</a>
</g>
</g>
<!-- Node8 -->
<g id="Node000008" class="node">
<title>Node8</title>
<g id="a_Node000008"><a xlink:href="terminate__detail_8cc.html" target="_top" xlink:title=" ">
<polygon fill="white" stroke="#666666" points="628.7,-140 500.7,-140 500.7,-121 628.7,-121 628.7,-140"/>
<text text-anchor="middle" x="564.7" y="-128" font-family="Helvetica,sans-Serif" font-size="10.00">src/terminate_detail.cc</text>
</a>
</g>
</g>
<!-- Node1&#45;&gt;Node8 -->
<g id="edge13_Node000001_Node000008" class="edge">
<title>Node1&#45;&gt;Node8</title>
<g id="a_edge13_Node000001_Node000008"><a xlink:title=" ">
<path fill="none" stroke="#63b8ff" d="M303.8,-174.31C364.45,-164.36 455.71,-149.38 512.66,-140.04"/>
<polygon fill="#63b8ff" stroke="#63b8ff" points="302.9,-170.91 293.59,-175.98 304.03,-177.82 302.9,-170.91"/>
</a>
</g>
</g>
<!-- Node3&#45;&gt;Node4 -->
<g id="edge3_Node000003_Node000004" class="edge">
<title>Node3&#45;&gt;Node4</title>
<g id="a_edge3_Node000003_Node000004"><a xlink:title=" ">
<path fill="none" stroke="#63b8ff" d="M89.82,-115.15C103.91,-105.57 121.99,-93.29 133.94,-85.17"/>
<polygon fill="#63b8ff" stroke="#63b8ff" points="87.53,-112.47 81.23,-120.98 91.47,-118.26 87.53,-112.47"/>
</a>
</g>
</g>
<!-- Node4&#45;&gt;Node2 -->
<g id="edge4_Node000004_Node000002" class="edge">
<title>Node4&#45;&gt;Node2</title>
<g id="a_edge4_Node000004_Node000002"><a xlink:title=" ">
<path fill="none" stroke="#63b8ff" d="M146.38,-55.66C146.2,-45.24 145.99,-32.8 145.85,-24.67"/>
<polygon fill="#63b8ff" stroke="#63b8ff" points="142.88,-55.93 146.55,-65.87 149.88,-55.81 142.88,-55.93"/>
</a>
</g>
</g>
<!-- Node4&#45;&gt;Node5 -->
<g id="edge5_Node000004_Node000005" class="edge">
<title>Node4&#45;&gt;Node5</title>
<g id="a_edge5_Node000004_Node000005"><a xlink:title=" ">
<path fill="none" stroke="#63b8ff" d="M174.01,-61.72C193.91,-52.41 220.85,-39.8 241.4,-30.18"/>
<polygon fill="#63b8ff" stroke="#63b8ff" points="172.45,-58.58 164.87,-65.99 175.42,-64.92 172.45,-58.58"/>
</a>
</g>
</g>
<!-- Node6&#45;&gt;Node2 -->
<g id="edge8_Node000006_Node000002" class="edge">
<title>Node6&#45;&gt;Node2</title>
<g id="a_edge8_Node000006_Node000002"><a xlink:title=" ">
<path fill="none" stroke="#63b8ff" d="M234.93,-111.01C229.45,-97.61 220.82,-79.55 209.7,-66 195.48,-48.67 174.23,-33.58 160.18,-24.63"/>
<polygon fill="#63b8ff" stroke="#63b8ff" points="231.76,-112.52 238.64,-120.58 238.29,-109.99 231.76,-112.52"/>
</a>
</g>
</g>
<!-- Node6&#45;&gt;Node4 -->
<g id="edge10_Node000006_Node000004" class="edge">
<title>Node6&#45;&gt;Node4</title>
<g id="a_edge10_Node000006_Node000004"><a xlink:title=" ">
<path fill="none" stroke="#63b8ff" d="M217.44,-115.97C200.07,-106.28 177.21,-93.52 162.24,-85.17"/>
<polygon fill="#63b8ff" stroke="#63b8ff" points="216,-119.17 226.44,-120.98 219.41,-113.06 216,-119.17"/>
</a>
</g>
</g>
<!-- Node6&#45;&gt;Node5 -->
<g id="edge9_Node000006_Node000005" class="edge">
<title>Node6&#45;&gt;Node5</title>
<g id="a_edge9_Node000006_Node000005"><a xlink:title=" ">
<path fill="none" stroke="#63b8ff" d="M246.52,-111.27C252.49,-88.69 262.53,-50.7 267.95,-30.18"/>
<polygon fill="#63b8ff" stroke="#63b8ff" points="243.13,-110.41 243.95,-120.97 249.89,-112.2 243.13,-110.41"/>
</a>
</g>
</g>
</g>
</svg>
