<?xml version="1.0" encoding="UTF-8" standalone="no"?>
<!DOCTYPE svg PUBLIC "-//W3C//DTD SVG 1.1//EN"
 "http://www.w3.org/Graphics/SVG/1.1/DTD/svg11.dtd">
<!-- Generated by graphviz version 2.43.0 (0)
 -->
<!-- Title: include/y3c/typename.h Pages: 1 -->
<svg width="261pt" height="148pt"
 viewBox="0.00 0.00 261.00 148.00" xmlns="http://www.w3.org/2000/svg" xmlns:xlink="http://www.w3.org/1999/xlink">
<g id="graph0" class="graph" transform="scale(1 1) rotate(0) translate(4 144)">
<title>include/y3c/typename.h</title>
<!-- Node1 -->
<g id="Node000001" class="node">
<title>Node1</title>
<g id="a_Node000001"><a xlink:title=" ">
<polygon fill="#999999" stroke="#666666" points="194,-140 60,-140 60,-121 194,-121 194,-140"/>
<text text-anchor="middle" x="127" y="-128" font-family="Helvetica,sans-Serif" font-size="10.00">include/y3c/typename.h</text>
</a>
</g>
</g>
<!-- Node2 -->
<g id="Node000002" class="node">
<title>Node2</title>
<g id="a_Node000002"><a xlink:href="array_8h.html" target="_top" xlink:title=" ">
<polygon fill="white" stroke="#666666" points="108,-24.5 0,-24.5 0,-5.5 108,-5.5 108,-24.5"/>
<text text-anchor="middle" x="54" y="-12.5" font-family="Helvetica,sans-Serif" font-size="10.00">include/y3c/array.h</text>
</a>
</g>
</g>
<!-- Node1&#45;&gt;Node2 -->
<g id="edge1_Node000001_Node000002" class="edge">
<title>Node1&#45;&gt;Node2</title>
<g id="a_edge1_Node000001_Node000002"><a xlink:title=" ">
<path fill="none" stroke="#63b8ff" d="M98.59,-116.14C85.97,-108.74 72.17,-98.32 64,-85 52.36,-66.01 52.29,-38.67 53.17,-24.8"/>
<polygon fill="#63b8ff" stroke="#63b8ff" points="97.01,-119.27 107.46,-120.99 100.37,-113.13 97.01,-119.27"/>
</a>
</g>
</g>
<!-- Node3 -->
<g id="Node000003" class="node">
<title>Node3</title>
<g id="a_Node000003"><a xlink:href="shared__ptr_8h.html" target="_top" xlink:title=" ">
<polygon fill="white" stroke="#666666" points="253,-30 145,-30 145,0 253,0 253,-30"/>
<text text-anchor="start" x="153" y="-18" font-family="Helvetica,sans-Serif" font-size="10.00">include/y3c/shared</text>
<text text-anchor="middle" x="199" y="-7" font-family="Helvetica,sans-Serif" font-size="10.00">_ptr.h</text>
</a>
</g>
</g>
<!-- Node1&#45;&gt;Node3 -->
<g id="edge2_Node000001_Node000003" class="edge">
<title>Node1&#45;&gt;Node3</title>
<g id="a_edge2_Node000001_Node000003"><a xlink:title=" ">
<path fill="none" stroke="#63b8ff" d="M155.76,-116.04C168.32,-108.66 181.99,-98.29 190,-85 200.17,-68.14 201.04,-44.78 200.33,-30.03"/>
<polygon fill="#63b8ff" stroke="#63b8ff" points="154,-113.01 146.91,-120.88 157.36,-119.15 154,-113.01"/>
</a>
</g>
</g>
<!-- Node4 -->
<g id="Node000004" class="node">
<title>Node4</title>
<g id="a_Node000004"><a xlink:href="wrap_8h.html" target="_top" xlink:title=" ">
<polygon fill="white" stroke="#666666" points="181,-85 73,-85 73,-66 181,-66 181,-85"/>
<text text-anchor="middle" x="127" y="-73" font-family="Helvetica,sans-Serif" font-size="10.00">include/y3c/wrap.h</text>
</a>
</g>
</g>
<!-- Node1&#45;&gt;Node4 -->
<g id="edge3_Node000001_Node000004" class="edge">
<title>Node1&#45;&gt;Node4</title>
<g id="a_edge3_Node000001_Node000004"><a xlink:title=" ">
<path fill="none" stroke="#63b8ff" d="M127,-110.66C127,-101.93 127,-91.99 127,-85.09"/>
<polygon fill="#63b8ff" stroke="#63b8ff" points="123.5,-110.75 127,-120.75 130.5,-110.75 123.5,-110.75"/>
</a>
</g>
</g>
<!-- Node4&#45;&gt;Node2 -->
<g id="edge4_Node000004_Node000002" class="edge">
<title>Node4&#45;&gt;Node2</title>
<g id="a_edge4_Node000004_Node000002"><a xlink:title=" ">
<path fill="none" stroke="#63b8ff" d="M108.33,-59.54C94.54,-48.49 76.26,-33.84 64.82,-24.67"/>
<polygon fill="#63b8ff" stroke="#63b8ff" points="106.24,-62.35 116.23,-65.87 110.61,-56.88 106.24,-62.35"/>
</a>
</g>
</g>
<!-- Node4&#45;&gt;Node3 -->
<g id="edge5_Node000004_Node000003" class="edge">
<title>Node4&#45;&gt;Node3</title>
<g id="a_edge5_Node000004_Node000003"><a xlink:title=" ">
<path fill="none" stroke="#63b8ff" d="M145.46,-59.5C156.6,-50.45 170.69,-39 181.63,-30.11"/>
<polygon fill="#63b8ff" stroke="#63b8ff" points="143.18,-56.85 137.62,-65.87 147.59,-62.28 143.18,-56.85"/>
</a>
</g>
</g>
</g>
</svg>
