<?xml version="1.0" encoding="UTF-8" standalone="no"?>
<!DOCTYPE svg PUBLIC "-//W3C//DTD SVG 1.1//EN"
 "http://www.w3.org/Graphics/SVG/1.1/DTD/svg11.dtd">
<!-- Generated by graphviz version 2.43.0 (0)
 -->
<!-- Title: include/y3c/typename.h Pages: 1 -->
<svg width="392pt" height="203pt"
 viewBox="0.00 0.00 391.55 203.00" xmlns="http://www.w3.org/2000/svg" xmlns:xlink="http://www.w3.org/1999/xlink">
<g id="graph0" class="graph" transform="scale(1 1) rotate(0) translate(4 199)">
<title>include/y3c/typename.h</title>
<!-- Node1 -->
<g id="Node000001" class="node">
<title>Node1</title>
<g id="a_Node000001"><a xlink:title=" ">
<polygon fill="#999999" stroke="#666666" points="338,-195 204,-195 204,-176 338,-176 338,-195"/>
<text text-anchor="middle" x="271" y="-183" font-family="Helvetica,sans-Serif" font-size="10.00">include/y3c/typename.h</text>
</a>
</g>
</g>
<!-- Node2 -->
<g id="Node000002" class="node">
<title>Node2</title>
<g id="a_Node000002"><a xlink:href="array_8h.html" target="_top" xlink:title=" ">
<polygon fill="white" stroke="#666666" points="108,-19 0,-19 0,0 108,0 108,-19"/>
<text text-anchor="middle" x="54" y="-7" font-family="Helvetica,sans-Serif" font-size="10.00">include/y3c/array.h</text>
</a>
</g>
</g>
<!-- Node1&#45;&gt;Node2 -->
<g id="edge1_Node000001_Node000002" class="edge">
<title>Node1&#45;&gt;Node2</title>
<g id="a_edge1_Node000001_Node000002"><a xlink:title=" ">
<path fill="none" stroke="#63b8ff" d="M203.27,-173.65C152.38,-161.54 86.14,-136.39 54,-85 41.11,-64.38 47.15,-33.87 51.27,-19.11"/>
<polygon fill="#63b8ff" stroke="#63b8ff" points="202.7,-177.11 213.23,-175.91 204.25,-170.29 202.7,-177.11"/>
</a>
</g>
</g>
<!-- Node3 -->
<g id="Node000003" class="node">
<title>Node3</title>
<g id="a_Node000003"><a xlink:href="shared__ptr_8h.html" target="_top" xlink:title=" ">
<polygon fill="white" stroke="#666666" points="366,-85 258,-85 258,-55 366,-55 366,-85"/>
<text text-anchor="start" x="266" y="-73" font-family="Helvetica,sans-Serif" font-size="10.00">include/y3c/shared</text>
<text text-anchor="middle" x="312" y="-62" font-family="Helvetica,sans-Serif" font-size="10.00">_ptr.h</text>
</a>
</g>
</g>
<!-- Node1&#45;&gt;Node3 -->
<g id="edge2_Node000001_Node000003" class="edge">
<title>Node1&#45;&gt;Node3</title>
<g id="a_edge2_Node000001_Node000003"><a xlink:title=" ">
<path fill="none" stroke="#63b8ff" d="M280.74,-166.77C284.88,-158.75 289.55,-149.06 293,-140 300.03,-121.54 305.66,-99.39 308.91,-85.26"/>
<polygon fill="#63b8ff" stroke="#63b8ff" points="277.51,-165.39 275.89,-175.86 283.68,-168.68 277.51,-165.39"/>
</a>
</g>
</g>
<!-- Node4 -->
<g id="Node000004" class="node">
<title>Node4</title>
<g id="a_Node000004"><a xlink:href="vector_8h.html" target="_top" xlink:title=" ">
<polygon fill="white" stroke="#666666" points="287,-19 173,-19 173,0 287,0 287,-19"/>
<text text-anchor="middle" x="230" y="-7" font-family="Helvetica,sans-Serif" font-size="10.00">include/y3c/vector.h</text>
</a>
</g>
</g>
<!-- Node1&#45;&gt;Node4 -->
<g id="edge3_Node000001_Node000004" class="edge">
<title>Node1&#45;&gt;Node4</title>
<g id="a_edge3_Node000001_Node000004"><a xlink:title=" ">
<path fill="none" stroke="#63b8ff" d="M296.32,-170.95C336.48,-147.69 407.12,-98.46 375,-55 354.89,-27.79 318.43,-16.68 287.11,-12.37"/>
<polygon fill="#63b8ff" stroke="#63b8ff" points="294.54,-167.93 287.55,-175.9 297.98,-174.03 294.54,-167.93"/>
</a>
</g>
</g>
<!-- Node5 -->
<g id="Node000005" class="node">
<title>Node5</title>
<g id="a_Node000005"><a xlink:href="wrap_8h.html" target="_top" xlink:title=" ">
<polygon fill="white" stroke="#666666" points="284,-140 176,-140 176,-121 284,-121 284,-140"/>
<text text-anchor="middle" x="230" y="-128" font-family="Helvetica,sans-Serif" font-size="10.00">include/y3c/wrap.h</text>
</a>
</g>
</g>
<!-- Node1&#45;&gt;Node5 -->
<g id="edge4_Node000001_Node000005" class="edge">
<title>Node1&#45;&gt;Node5</title>
<g id="a_edge4_Node000001_Node000005"><a xlink:title=" ">
<path fill="none" stroke="#63b8ff" d="M257.98,-167.67C250.88,-158.5 242.4,-147.52 236.64,-140.09"/>
<polygon fill="#63b8ff" stroke="#63b8ff" points="255.34,-169.98 264.23,-175.75 260.88,-165.7 255.34,-169.98"/>
</a>
</g>
</g>
<!-- Node5&#45;&gt;Node2 -->
<g id="edge5_Node000005_Node000002" class="edge">
<title>Node5&#45;&gt;Node2</title>
<g id="a_edge5_Node000005_Node000002"><a xlink:title=" ">
<path fill="none" stroke="#63b8ff" d="M165.84,-125.73C134.28,-120.62 97.98,-109.36 74,-85 56.15,-66.87 53.78,-34.61 53.74,-19.19"/>
<polygon fill="#63b8ff" stroke="#63b8ff" points="165.5,-129.22 175.9,-127.18 166.5,-122.29 165.5,-129.22"/>
</a>
</g>
</g>
<!-- Node5&#45;&gt;Node3 -->
<g id="edge9_Node000005_Node000003" class="edge">
<title>Node5&#45;&gt;Node3</title>
<g id="a_edge9_Node000005_Node000003"><a xlink:title=" ">
<path fill="none" stroke="#63b8ff" d="M250.28,-115.03C263.08,-105.9 279.52,-94.17 292.22,-85.11"/>
<polygon fill="#63b8ff" stroke="#63b8ff" points="248.21,-112.21 242.1,-120.87 252.27,-117.91 248.21,-112.21"/>
</a>
</g>
</g>
<!-- Node5&#45;&gt;Node4 -->
<g id="edge10_Node000005_Node000004" class="edge">
<title>Node5&#45;&gt;Node4</title>
<g id="a_edge10_Node000005_Node000004"><a xlink:title=" ">
<path fill="none" stroke="#63b8ff" d="M230,-110.86C230,-84.81 230,-38.56 230,-19.3"/>
<polygon fill="#63b8ff" stroke="#63b8ff" points="226.5,-110.94 230,-120.94 233.5,-110.94 226.5,-110.94"/>
</a>
</g>
</g>
<!-- Node6 -->
<g id="Node000006" class="node">
<title>Node6</title>
<g id="a_Node000006"><a xlink:href="iterator_8h.html" target="_top" xlink:title=" ">
<polygon fill="white" stroke="#666666" points="201.5,-79.5 82.5,-79.5 82.5,-60.5 201.5,-60.5 201.5,-79.5"/>
<text text-anchor="middle" x="142" y="-67.5" font-family="Helvetica,sans-Serif" font-size="10.00">include/y3c/iterator.h</text>
</a>
</g>
</g>
<!-- Node5&#45;&gt;Node6 -->
<g id="edge6_Node000005_Node000006" class="edge">
<title>Node5&#45;&gt;Node6</title>
<g id="a_edge6_Node000005_Node000006"><a xlink:title=" ">
<path fill="none" stroke="#63b8ff" d="M208.43,-115.16C191.71,-104.05 169.1,-89.01 155.04,-79.67"/>
<polygon fill="#63b8ff" stroke="#63b8ff" points="206.75,-118.25 217.02,-120.87 210.63,-112.42 206.75,-118.25"/>
</a>
</g>
</g>
<!-- Node6&#45;&gt;Node2 -->
<g id="edge7_Node000006_Node000002" class="edge">
<title>Node6&#45;&gt;Node2</title>
<g id="a_edge7_Node000006_Node000002"><a xlink:title=" ">
<path fill="none" stroke="#63b8ff" d="M120.43,-54.66C103.71,-43.55 81.1,-28.51 67.04,-19.17"/>
<polygon fill="#63b8ff" stroke="#63b8ff" points="118.75,-57.75 129.02,-60.37 122.63,-51.92 118.75,-57.75"/>
</a>
</g>
</g>
<!-- Node6&#45;&gt;Node4 -->
<g id="edge8_Node000006_Node000004" class="edge">
<title>Node6&#45;&gt;Node4</title>
<g id="a_edge8_Node000006_Node000004"><a xlink:title=" ">
<path fill="none" stroke="#63b8ff" d="M163.57,-54.66C180.29,-43.55 202.9,-28.51 216.96,-19.17"/>
<polygon fill="#63b8ff" stroke="#63b8ff" points="161.37,-51.92 154.98,-60.37 165.25,-57.75 161.37,-51.92"/>
</a>
</g>
</g>
</g>
</svg>
