<?xml version="1.0" encoding="UTF-8" standalone="no"?>
<!DOCTYPE svg PUBLIC "-//W3C//DTD SVG 1.1//EN"
 "http://www.w3.org/Graphics/SVG/1.1/DTD/svg11.dtd">
<!-- Generated by graphviz version 2.43.0 (0)
 -->
<!-- Title: include/y3c/vector.h Pages: 1 -->
<svg width="594pt" height="357pt"
 viewBox="0.00 0.00 593.73 357.00" xmlns="http://www.w3.org/2000/svg" xmlns:xlink="http://www.w3.org/1999/xlink">
<g id="graph0" class="graph" transform="scale(1 1) rotate(0) translate(4 353)">
<title>include/y3c/vector.h</title>
<!-- Node1 -->
<g id="Node000001" class="node">
<title>Node1</title>
<g id="a_Node000001"><a xlink:title=" ">
<polygon fill="#999999" stroke="#666666" points="417.72,-349 303.72,-349 303.72,-330 417.72,-330 417.72,-349"/>
<text text-anchor="middle" x="360.72" y="-337" font-family="Helvetica,sans-Serif" font-size="10.00">include/y3c/vector.h</text>
</a>
</g>
</g>
<!-- Node2 -->
<g id="Node000002" class="node">
<title>Node2</title>
<g id="a_Node000002"><a xlink:href="terminate_8h.html" target="_top" xlink:title=" ">
<polygon fill="white" stroke="#666666" points="311.72,-129 217.72,-129 217.72,-110 311.72,-110 311.72,-129"/>
<text text-anchor="middle" x="264.72" y="-117" font-family="Helvetica,sans-Serif" font-size="10.00">y3c/terminate.h</text>
</a>
</g>
</g>
<!-- Node1&#45;&gt;Node2 -->
<g id="edge1_Node000001_Node000002" class="edge">
<title>Node1&#45;&gt;Node2</title>
<g id="a_edge1_Node000001_Node000002"><a xlink:title=" ">
<path fill="none" stroke="#63b8ff" d="M351.4,-329.96C334.58,-313.93 299.34,-277.49 282.72,-239 268.46,-206 265.25,-163.58 264.67,-139.48"/>
<polygon fill="#63b8ff" stroke="#63b8ff" points="268.16,-139.2 264.55,-129.24 261.16,-139.28 268.16,-139.2"/>
</a>
</g>
</g>
<!-- Node7 -->
<g id="Node000007" class="node">
<title>Node7</title>
<g id="a_Node000007"><a xlink:title=" ">
<polygon fill="#e0e0e0" stroke="#999999" points="504.72,-74 446.72,-74 446.72,-55 504.72,-55 504.72,-74"/>
<text text-anchor="middle" x="475.72" y="-62" font-family="Helvetica,sans-Serif" font-size="10.00">memory</text>
</a>
</g>
</g>
<!-- Node1&#45;&gt;Node7 -->
<g id="edge28_Node000001_Node000007" class="edge">
<title>Node1&#45;&gt;Node7</title>
<g id="a_edge28_Node000001_Node000007"><a xlink:title=" ">
<path fill="none" stroke="#63b8ff" d="M417.78,-335.29C484.44,-328.09 585.72,-304.92 585.72,-230.5 585.72,-230.5 585.72,-230.5 585.72,-173.5 585.72,-144.04 585.77,-132.47 566.72,-110 553.22,-94.08 532.68,-83.36 514.53,-76.44"/>
<polygon fill="#63b8ff" stroke="#63b8ff" points="515.62,-73.11 505.03,-73.06 513.28,-79.71 515.62,-73.11"/>
</a>
</g>
</g>
<!-- Node10 -->
<g id="Node000010" class="node">
<title>Node10</title>
<g id="a_Node000010"><a xlink:href="wrap_8h.html" target="_top" xlink:title=" ">
<polygon fill="white" stroke="#666666" points="361.72,-239 291.72,-239 291.72,-220 361.72,-220 361.72,-239"/>
<text text-anchor="middle" x="326.72" y="-227" font-family="Helvetica,sans-Serif" font-size="10.00">y3c/wrap.h</text>
</a>
</g>
</g>
<!-- Node1&#45;&gt;Node10 -->
<g id="edge11_Node000001_Node000010" class="edge">
<title>Node1&#45;&gt;Node10</title>
<g id="a_edge11_Node000001_Node000010"><a xlink:title=" ">
<path fill="none" stroke="#63b8ff" d="M357.75,-330C354.66,-321.06 349.72,-306.59 345.72,-294 340.91,-278.9 335.78,-261.68 332.06,-248.98"/>
<polygon fill="#63b8ff" stroke="#63b8ff" points="335.36,-247.78 329.2,-239.16 328.64,-249.74 335.36,-247.78"/>
</a>
</g>
</g>
<!-- Node12 -->
<g id="Node000012" class="node">
<title>Node12</title>
<g id="a_Node000012"><a xlink:title=" ">
<polygon fill="#e0e0e0" stroke="#999999" points="557.22,-129 510.22,-129 510.22,-110 557.22,-110 557.22,-129"/>
<text text-anchor="middle" x="533.72" y="-117" font-family="Helvetica,sans-Serif" font-size="10.00">vector</text>
</a>
</g>
</g>
<!-- Node1&#45;&gt;Node12 -->
<g id="edge27_Node000001_Node000012" class="edge">
<title>Node1&#45;&gt;Node12</title>
<g id="a_edge27_Node000001_Node000012"><a xlink:title=" ">
<path fill="none" stroke="#63b8ff" d="M385.68,-329.96C403.87,-322.71 428.14,-310.8 444.72,-294 490.42,-247.69 517.66,-173.12 528.4,-138.83"/>
<polygon fill="#63b8ff" stroke="#63b8ff" points="531.77,-139.78 531.31,-129.2 525.07,-137.76 531.77,-139.78"/>
</a>
</g>
</g>
<!-- Node13 -->
<g id="Node000013" class="node">
<title>Node13</title>
<g id="a_Node000013"><a xlink:href="typename_8h.html" target="_top" xlink:title=" ">
<polygon fill="white" stroke="#666666" points="235.22,-184 140.22,-184 140.22,-165 235.22,-165 235.22,-184"/>
<text text-anchor="middle" x="187.72" y="-172" font-family="Helvetica,sans-Serif" font-size="10.00">y3c/typename.h</text>
</a>
</g>
</g>
<!-- Node1&#45;&gt;Node13 -->
<g id="edge21_Node000001_Node000013" class="edge">
<title>Node1&#45;&gt;Node13</title>
<g id="a_edge21_Node000001_Node000013"><a xlink:title=" ">
<path fill="none" stroke="#63b8ff" d="M321.07,-329.93C298.05,-323.29 269.74,-312.1 249.72,-294 218.97,-266.21 200.96,-219.56 192.87,-193.86"/>
<polygon fill="#63b8ff" stroke="#63b8ff" points="196.21,-192.83 190,-184.25 189.51,-194.83 196.21,-192.83"/>
</a>
</g>
</g>
<!-- Node14 -->
<g id="Node000014" class="node">
<title>Node14</title>
<g id="a_Node000014"><a xlink:href="iterator_8h.html" target="_top" xlink:title=" ">
<polygon fill="white" stroke="#666666" points="436.22,-294 355.22,-294 355.22,-275 436.22,-275 436.22,-294"/>
<text text-anchor="middle" x="395.72" y="-282" font-family="Helvetica,sans-Serif" font-size="10.00">y3c/iterator.h</text>
</a>
</g>
</g>
<!-- Node1&#45;&gt;Node14 -->
<g id="edge22_Node000001_Node000014" class="edge">
<title>Node1&#45;&gt;Node14</title>
<g id="a_edge22_Node000001_Node000014"><a xlink:title=" ">
<path fill="none" stroke="#63b8ff" d="M366.49,-329.75C371.34,-322.42 378.39,-311.73 384.36,-302.7"/>
<polygon fill="#63b8ff" stroke="#63b8ff" points="387.45,-304.36 390.04,-294.09 381.61,-300.5 387.45,-304.36"/>
</a>
</g>
</g>
<!-- Node3 -->
<g id="Node000003" class="node">
<title>Node3</title>
<g id="a_Node000003"><a xlink:href="y3c-config_8h.html" target="_top" xlink:title=" ">
<polygon fill="white" stroke="#666666" points="348.72,-19 272.72,-19 272.72,0 348.72,0 348.72,-19"/>
<text text-anchor="middle" x="310.72" y="-7" font-family="Helvetica,sans-Serif" font-size="10.00">y3c&#45;config.h</text>
</a>
</g>
</g>
<!-- Node2&#45;&gt;Node3 -->
<g id="edge2_Node000002_Node000003" class="edge">
<title>Node2&#45;&gt;Node3</title>
<g id="a_edge2_Node000002_Node000003"><a xlink:title=" ">
<path fill="none" stroke="#63b8ff" d="M280.44,-109.88C292.6,-102.23 308.52,-89.83 315.72,-74 322.15,-59.84 320.01,-42.08 316.77,-28.94"/>
<polygon fill="#63b8ff" stroke="#63b8ff" points="320.09,-27.82 313.95,-19.18 313.36,-29.75 320.09,-27.82"/>
</a>
</g>
</g>
<!-- Node4 -->
<g id="Node000004" class="node">
<title>Node4</title>
<g id="a_Node000004"><a xlink:href="what_8h.html" target="_top" xlink:title=" ">
<polygon fill="white" stroke="#666666" points="306.72,-74 236.72,-74 236.72,-55 306.72,-55 306.72,-74"/>
<text text-anchor="middle" x="271.72" y="-62" font-family="Helvetica,sans-Serif" font-size="10.00">y3c/what.h</text>
</a>
</g>
</g>
<!-- Node2&#45;&gt;Node4 -->
<g id="edge3_Node000002_Node000004" class="edge">
<title>Node2&#45;&gt;Node4</title>
<g id="a_edge3_Node000002_Node000004"><a xlink:title=" ">
<path fill="none" stroke="#63b8ff" d="M265.87,-109.75C266.79,-102.8 268.1,-92.85 269.25,-84.13"/>
<polygon fill="#63b8ff" stroke="#63b8ff" points="272.74,-84.46 270.58,-74.09 265.8,-83.54 272.74,-84.46"/>
</a>
</g>
</g>
<!-- Node5 -->
<g id="Node000005" class="node">
<title>Node5</title>
<g id="a_Node000005"><a xlink:title=" ">
<polygon fill="#e0e0e0" stroke="#999999" points="230.72,-19 186.72,-19 186.72,0 230.72,0 230.72,-19"/>
<text text-anchor="middle" x="208.72" y="-7" font-family="Helvetica,sans-Serif" font-size="10.00">string</text>
</a>
</g>
</g>
<!-- Node2&#45;&gt;Node5 -->
<g id="edge7_Node000002_Node000005" class="edge">
<title>Node2&#45;&gt;Node5</title>
<g id="a_edge7_Node000002_Node000005"><a xlink:title=" ">
<path fill="none" stroke="#63b8ff" d="M255.58,-109.76C247.24,-101.32 235.12,-87.81 227.72,-74 220.14,-59.88 215.19,-42.34 212.24,-29.27"/>
<polygon fill="#63b8ff" stroke="#63b8ff" points="215.6,-28.23 210.16,-19.14 208.75,-29.64 215.6,-28.23"/>
</a>
</g>
</g>
<!-- Node6 -->
<g id="Node000006" class="node">
<title>Node6</title>
<g id="a_Node000006"><a xlink:title=" ">
<polygon fill="#e0e0e0" stroke="#999999" points="428.22,-74 363.22,-74 363.22,-55 428.22,-55 428.22,-74"/>
<text text-anchor="middle" x="395.72" y="-62" font-family="Helvetica,sans-Serif" font-size="10.00">stdexcept</text>
</a>
</g>
</g>
<!-- Node2&#45;&gt;Node6 -->
<g id="edge6_Node000002_Node000006" class="edge">
<title>Node2&#45;&gt;Node6</title>
<g id="a_edge6_Node000002_Node000006"><a xlink:title=" ">
<path fill="none" stroke="#63b8ff" d="M285.76,-109.98C307.12,-101.34 340.42,-87.87 364.78,-78.02"/>
<polygon fill="#63b8ff" stroke="#63b8ff" points="366.33,-81.17 374.28,-74.17 363.7,-74.68 366.33,-81.17"/>
</a>
</g>
</g>
<!-- Node2&#45;&gt;Node7 -->
<g id="edge8_Node000002_Node000007" class="edge">
<title>Node2&#45;&gt;Node7</title>
<g id="a_edge8_Node000002_Node000007"><a xlink:title=" ">
<path fill="none" stroke="#63b8ff" d="M298.62,-109.98C336.34,-100.51 397.18,-85.23 436.82,-75.27"/>
<polygon fill="#63b8ff" stroke="#63b8ff" points="437.81,-78.63 446.65,-72.8 436.1,-71.84 437.81,-78.63"/>
</a>
</g>
</g>
<!-- Node8 -->
<g id="Node000008" class="node">
<title>Node8</title>
<g id="a_Node000008"><a xlink:title=" ">
<polygon fill="#e0e0e0" stroke="#999999" points="112.22,-74 19.22,-74 19.22,-55 112.22,-55 112.22,-74"/>
<text text-anchor="middle" x="65.72" y="-62" font-family="Helvetica,sans-Serif" font-size="10.00">unordered_map</text>
</a>
</g>
</g>
<!-- Node2&#45;&gt;Node8 -->
<g id="edge9_Node000002_Node000008" class="edge">
<title>Node2&#45;&gt;Node8</title>
<g id="a_edge9_Node000002_Node000008"><a xlink:title=" ">
<path fill="none" stroke="#63b8ff" d="M232.74,-109.98C198.9,-100.97 145.32,-86.7 108,-76.76"/>
<polygon fill="#63b8ff" stroke="#63b8ff" points="108.5,-73.27 97.94,-74.08 106.7,-80.04 108.5,-73.27"/>
</a>
</g>
</g>
<!-- Node9 -->
<g id="Node000009" class="node">
<title>Node9</title>
<g id="a_Node000009"><a xlink:title=" ">
<polygon fill="#e0e0e0" stroke="#999999" points="180.72,-74 130.72,-74 130.72,-55 180.72,-55 180.72,-74"/>
<text text-anchor="middle" x="155.72" y="-62" font-family="Helvetica,sans-Serif" font-size="10.00">atomic</text>
</a>
</g>
</g>
<!-- Node2&#45;&gt;Node9 -->
<g id="edge10_Node000002_Node000009" class="edge">
<title>Node2&#45;&gt;Node9</title>
<g id="a_edge10_Node000002_Node000009"><a xlink:title=" ">
<path fill="none" stroke="#63b8ff" d="M247.2,-109.98C229.75,-101.5 202.71,-88.35 182.54,-78.54"/>
<polygon fill="#63b8ff" stroke="#63b8ff" points="184.07,-75.4 173.55,-74.17 181.01,-81.69 184.07,-75.4"/>
</a>
</g>
</g>
<!-- Node4&#45;&gt;Node3 -->
<g id="edge4_Node000004_Node000003" class="edge">
<title>Node4&#45;&gt;Node3</title>
<g id="a_edge4_Node000004_Node000003"><a xlink:title=" ">
<path fill="none" stroke="#63b8ff" d="M278.16,-54.75C283.61,-47.34 291.58,-36.5 298.27,-27.41"/>
<polygon fill="#63b8ff" stroke="#63b8ff" points="301.29,-29.22 304.4,-19.09 295.65,-25.07 301.29,-29.22"/>
</a>
</g>
</g>
<!-- Node4&#45;&gt;Node5 -->
<g id="edge5_Node000004_Node000005" class="edge">
<title>Node4&#45;&gt;Node5</title>
<g id="a_edge5_Node000004_Node000005"><a xlink:title=" ">
<path fill="none" stroke="#63b8ff" d="M261.59,-54.98C252.28,-47.15 238.25,-35.34 226.98,-25.86"/>
<polygon fill="#63b8ff" stroke="#63b8ff" points="228.93,-22.93 219.02,-19.17 224.42,-28.29 228.93,-22.93"/>
</a>
</g>
</g>
<!-- Node10&#45;&gt;Node2 -->
<g id="edge12_Node000010_Node000002" class="edge">
<title>Node10&#45;&gt;Node2</title>
<g id="a_edge12_Node000010_Node000002"><a xlink:title=" ">
<path fill="none" stroke="#63b8ff" d="M321.64,-219.66C311.42,-201.85 288.18,-161.37 274.76,-138.01"/>
<polygon fill="#63b8ff" stroke="#63b8ff" points="277.7,-136.09 269.69,-129.16 271.63,-139.57 277.7,-136.09"/>
</a>
</g>
</g>
<!-- Node10&#45;&gt;Node7 -->
<g id="edge20_Node000010_Node000007" class="edge">
<title>Node10&#45;&gt;Node7</title>
<g id="a_edge20_Node000010_Node000007"><a xlink:title=" ">
<path fill="none" stroke="#63b8ff" d="M334.73,-219.74C358.58,-193.65 429.4,-116.17 460.63,-82"/>
<polygon fill="#63b8ff" stroke="#63b8ff" points="463.5,-84.05 467.66,-74.31 458.33,-79.33 463.5,-84.05"/>
</a>
</g>
</g>
<!-- Node11 -->
<g id="Node000011" class="node">
<title>Node11</title>
<g id="a_Node000011"><a xlink:href="life_8h.html" target="_top" xlink:title=" ">
<polygon fill="white" stroke="#666666" points="467.72,-184 405.72,-184 405.72,-165 467.72,-165 467.72,-184"/>
<text text-anchor="middle" x="436.72" y="-172" font-family="Helvetica,sans-Serif" font-size="10.00">y3c/life.h</text>
</a>
</g>
</g>
<!-- Node10&#45;&gt;Node11 -->
<g id="edge13_Node000010_Node000011" class="edge">
<title>Node10&#45;&gt;Node11</title>
<g id="a_edge13_Node000010_Node000011"><a xlink:title=" ">
<path fill="none" stroke="#63b8ff" d="M344.39,-219.98C362,-211.5 389.29,-198.35 409.64,-188.54"/>
<polygon fill="#63b8ff" stroke="#63b8ff" points="411.23,-191.66 418.72,-184.17 408.19,-185.36 411.23,-191.66"/>
</a>
</g>
</g>
<!-- Node10&#45;&gt;Node13 -->
<g id="edge17_Node000010_Node000013" class="edge">
<title>Node10&#45;&gt;Node13</title>
<g id="a_edge17_Node000010_Node000013"><a xlink:title=" ">
<path fill="none" stroke="#63b8ff" d="M304.38,-219.98C281.52,-211.27 245.76,-197.63 219.85,-187.75"/>
<polygon fill="#63b8ff" stroke="#63b8ff" points="221.05,-184.46 210.45,-184.17 218.55,-191 221.05,-184.46"/>
</a>
</g>
</g>
<!-- Node11&#45;&gt;Node2 -->
<g id="edge14_Node000011_Node000002" class="edge">
<title>Node11&#45;&gt;Node2</title>
<g id="a_edge14_Node000011_Node000002"><a xlink:title=" ">
<path fill="none" stroke="#63b8ff" d="M409.08,-164.98C380.2,-156.09 334.7,-142.07 302.51,-132.15"/>
<polygon fill="#63b8ff" stroke="#63b8ff" points="303.15,-128.68 292.57,-129.08 301.09,-135.37 303.15,-128.68"/>
</a>
</g>
</g>
<!-- Node11&#45;&gt;Node7 -->
<g id="edge15_Node000011_Node000007" class="edge">
<title>Node11&#45;&gt;Node7</title>
<g id="a_edge15_Node000011_Node000007"><a xlink:title=" ">
<path fill="none" stroke="#63b8ff" d="M439.91,-164.66C446.28,-147.01 460.7,-107.09 469.17,-83.64"/>
<polygon fill="#63b8ff" stroke="#63b8ff" points="472.48,-84.75 472.59,-74.16 465.9,-82.38 472.48,-84.75"/>
</a>
</g>
</g>
<!-- Node11&#45;&gt;Node12 -->
<g id="edge16_Node000011_Node000012" class="edge">
<title>Node11&#45;&gt;Node12</title>
<g id="a_edge16_Node000011_Node000012"><a xlink:title=" ">
<path fill="none" stroke="#63b8ff" d="M452.3,-164.98C467.48,-156.69 490.81,-143.94 508.61,-134.22"/>
<polygon fill="#63b8ff" stroke="#63b8ff" points="510.75,-137.04 517.85,-129.17 507.39,-130.89 510.75,-137.04"/>
</a>
</g>
</g>
<!-- Node13&#45;&gt;Node2 -->
<g id="edge18_Node000013_Node000002" class="edge">
<title>Node13&#45;&gt;Node2</title>
<g id="a_edge18_Node000013_Node000002"><a xlink:title=" ">
<path fill="none" stroke="#63b8ff" d="M200.09,-164.98C211.8,-156.92 229.64,-144.65 243.6,-135.03"/>
<polygon fill="#63b8ff" stroke="#63b8ff" points="245.87,-137.72 252.12,-129.17 241.9,-131.96 245.87,-137.72"/>
</a>
</g>
</g>
<!-- Node13&#45;&gt;Node5 -->
<g id="edge19_Node000013_Node000005" class="edge">
<title>Node13&#45;&gt;Node5</title>
<g id="a_edge19_Node000013_Node000005"><a xlink:title=" ">
<path fill="none" stroke="#63b8ff" d="M149.78,-164.97C85.34,-148.76 -34.44,-110.12 9.72,-55 30.22,-29.4 125.32,-17.54 176.27,-12.95"/>
<polygon fill="#63b8ff" stroke="#63b8ff" points="176.77,-16.42 186.43,-12.08 176.17,-9.44 176.77,-16.42"/>
</a>
</g>
</g>
<!-- Node14&#45;&gt;Node2 -->
<g id="edge23_Node000014_Node000002" class="edge">
<title>Node14&#45;&gt;Node2</title>
<g id="a_edge23_Node000014_Node000002"><a xlink:title=" ">
<path fill="none" stroke="#63b8ff" d="M393.58,-274.7C390.18,-261.87 382.69,-237.65 370.72,-220 346.84,-184.81 308.48,-152.84 285.04,-135.1"/>
<polygon fill="#63b8ff" stroke="#63b8ff" points="286.97,-132.17 276.85,-129.02 282.79,-137.79 286.97,-132.17"/>
</a>
</g>
</g>
<!-- Node14&#45;&gt;Node7 -->
<g id="edge26_Node000014_Node000007" class="edge">
<title>Node14&#45;&gt;Node7</title>
<g id="a_edge26_Node000014_Node000007"><a xlink:title=" ">
<path fill="none" stroke="#63b8ff" d="M406.56,-274.77C425.18,-259 462.61,-223.67 476.72,-184 488.68,-150.36 483.96,-107.88 479.68,-84"/>
<polygon fill="#63b8ff" stroke="#63b8ff" points="483.11,-83.3 477.75,-74.16 476.25,-84.65 483.11,-83.3"/>
</a>
</g>
</g>
<!-- Node14&#45;&gt;Node10 -->
<g id="edge25_Node000014_Node000010" class="edge">
<title>Node14&#45;&gt;Node10</title>
<g id="a_edge25_Node000014_Node000010"><a xlink:title=" ">
<path fill="none" stroke="#63b8ff" d="M384.63,-274.98C374.23,-267 358.45,-254.88 345.99,-245.31"/>
<polygon fill="#63b8ff" stroke="#63b8ff" points="348.07,-242.49 338,-239.17 343.8,-248.04 348.07,-242.49"/>
</a>
</g>
</g>
<!-- Node14&#45;&gt;Node11 -->
<g id="edge24_Node000014_Node000011" class="edge">
<title>Node14&#45;&gt;Node11</title>
<g id="a_edge24_Node000014_Node000011"><a xlink:title=" ">
<path fill="none" stroke="#63b8ff" d="M399.07,-274.66C405.77,-257.01 420.93,-217.09 429.83,-193.64"/>
<polygon fill="#63b8ff" stroke="#63b8ff" points="433.15,-194.75 433.43,-184.16 426.61,-192.27 433.15,-194.75"/>
</a>
</g>
</g>
</g>
</svg>
