<?xml version="1.0" encoding="UTF-8" standalone="no"?>
<!DOCTYPE svg PUBLIC "-//W3C//DTD SVG 1.1//EN"
 "http://www.w3.org/Graphics/SVG/1.1/DTD/svg11.dtd">
<!-- Generated by graphviz version 2.43.0 (0)
 -->
<!-- Title: include/y3c/wrap.h Pages: 1 -->
<svg width="351pt" height="148pt"
 viewBox="0.00 0.00 351.00 148.00" xmlns="http://www.w3.org/2000/svg" xmlns:xlink="http://www.w3.org/1999/xlink">
<g id="graph0" class="graph" transform="scale(1 1) rotate(0) translate(4 144)">
<title>include/y3c/wrap.h</title>
<!-- Node1 -->
<g id="Node000001" class="node">
<title>Node1</title>
<g id="a_Node000001"><a xlink:title=" ">
<polygon fill="#999999" stroke="#666666" points="217,-140 109,-140 109,-121 217,-121 217,-140"/>
<text text-anchor="middle" x="163" y="-128" font-family="Helvetica,sans-Serif" font-size="10.00">include/y3c/wrap.h</text>
</a>
</g>
</g>
<!-- Node2 -->
<g id="Node000002" class="node">
<title>Node2</title>
<g id="a_Node000002"><a xlink:href="array_8h.html" target="_top" xlink:title=" ">
<polygon fill="white" stroke="#666666" points="108,-19 0,-19 0,0 108,0 108,-19"/>
<text text-anchor="middle" x="54" y="-7" font-family="Helvetica,sans-Serif" font-size="10.00">include/y3c/array.h</text>
</a>
</g>
</g>
<!-- Node1&#45;&gt;Node2 -->
<g id="edge1_Node000001_Node000002" class="edge">
<title>Node1&#45;&gt;Node2</title>
<g id="a_edge1_Node000001_Node000002"><a xlink:title=" ">
<path fill="none" stroke="#63b8ff" d="M99.25,-118.74C80.23,-112.22 61.42,-101.77 50,-85 36.29,-64.87 44.88,-34.13 50.4,-19.22"/>
<polygon fill="#63b8ff" stroke="#63b8ff" points="98.28,-122.1 108.87,-121.71 100.35,-115.41 98.28,-122.1"/>
</a>
</g>
</g>
<!-- Node3 -->
<g id="Node000003" class="node">
<title>Node3</title>
<g id="a_Node000003"><a xlink:href="iterator_8h.html" target="_top" xlink:title=" ">
<polygon fill="white" stroke="#666666" points="178.5,-79.5 59.5,-79.5 59.5,-60.5 178.5,-60.5 178.5,-79.5"/>
<text text-anchor="middle" x="119" y="-67.5" font-family="Helvetica,sans-Serif" font-size="10.00">include/y3c/iterator.h</text>
</a>
</g>
</g>
<!-- Node1&#45;&gt;Node3 -->
<g id="edge2_Node000001_Node000003" class="edge">
<title>Node1&#45;&gt;Node3</title>
<g id="a_edge2_Node000001_Node000003"><a xlink:title=" ">
<path fill="none" stroke="#63b8ff" d="M150.31,-112.63C142.2,-101.85 132.03,-88.32 125.52,-79.67"/>
<polygon fill="#63b8ff" stroke="#63b8ff" points="147.7,-114.98 156.51,-120.87 153.29,-110.77 147.7,-114.98"/>
</a>
</g>
</g>
<!-- Node4 -->
<g id="Node000004" class="node">
<title>Node4</title>
<g id="a_Node000004"><a xlink:href="vector_8h.html" target="_top" xlink:title=" ">
<polygon fill="white" stroke="#666666" points="252,-19 138,-19 138,0 252,0 252,-19"/>
<text text-anchor="middle" x="195" y="-7" font-family="Helvetica,sans-Serif" font-size="10.00">include/y3c/vector.h</text>
</a>
</g>
</g>
<!-- Node1&#45;&gt;Node4 -->
<g id="edge6_Node000001_Node000004" class="edge">
<title>Node1&#45;&gt;Node4</title>
<g id="a_edge6_Node000001_Node000004"><a xlink:title=" ">
<path fill="none" stroke="#63b8ff" d="M174.82,-112.42C179.74,-104.45 185,-94.61 188,-85 195.13,-62.18 195.63,-33.68 195.34,-19.45"/>
<polygon fill="#63b8ff" stroke="#63b8ff" points="171.88,-110.52 169.35,-120.8 177.75,-114.34 171.88,-110.52"/>
</a>
</g>
</g>
<!-- Node5 -->
<g id="Node000005" class="node">
<title>Node5</title>
<g id="a_Node000005"><a xlink:href="shared__ptr_8h.html" target="_top" xlink:title=" ">
<polygon fill="white" stroke="#666666" points="343,-85 235,-85 235,-55 343,-55 343,-85"/>
<text text-anchor="start" x="243" y="-73" font-family="Helvetica,sans-Serif" font-size="10.00">include/y3c/shared</text>
<text text-anchor="middle" x="289" y="-62" font-family="Helvetica,sans-Serif" font-size="10.00">_ptr.h</text>
</a>
</g>
</g>
<!-- Node1&#45;&gt;Node5 -->
<g id="edge5_Node000001_Node000005" class="edge">
<title>Node1&#45;&gt;Node5</title>
<g id="a_edge5_Node000001_Node000005"><a xlink:title=" ">
<path fill="none" stroke="#63b8ff" d="M190.53,-116.72C210.59,-107.41 237.75,-94.8 258.46,-85.18"/>
<polygon fill="#63b8ff" stroke="#63b8ff" points="188.92,-113.61 181.32,-120.99 191.87,-119.96 188.92,-113.61"/>
</a>
</g>
</g>
<!-- Node3&#45;&gt;Node2 -->
<g id="edge3_Node000003_Node000002" class="edge">
<title>Node3&#45;&gt;Node2</title>
<g id="a_edge3_Node000003_Node000002"><a xlink:title=" ">
<path fill="none" stroke="#63b8ff" d="M101.68,-53.41C89.49,-42.44 73.63,-28.17 63.63,-19.17"/>
<polygon fill="#63b8ff" stroke="#63b8ff" points="99.63,-56.28 109.41,-60.37 104.32,-51.08 99.63,-56.28"/>
</a>
</g>
</g>
<!-- Node3&#45;&gt;Node4 -->
<g id="edge4_Node000003_Node000004" class="edge">
<title>Node3&#45;&gt;Node4</title>
<g id="a_edge4_Node000003_Node000004"><a xlink:title=" ">
<path fill="none" stroke="#63b8ff" d="M138.44,-54.04C152.79,-42.99 171.82,-28.34 183.74,-19.17"/>
<polygon fill="#63b8ff" stroke="#63b8ff" points="136,-51.49 130.21,-60.37 140.27,-57.04 136,-51.49"/>
</a>
</g>
</g>
</g>
</svg>
