<?xml version="1.0" encoding="UTF-8" standalone="no"?>
<!DOCTYPE svg PUBLIC "-//W3C//DTD SVG 1.1//EN"
 "http://www.w3.org/Graphics/SVG/1.1/DTD/svg11.dtd">
<!-- Generated by graphviz version 2.43.0 (0)
 -->
<!-- Title: include/y3c/wrap.h Pages: 1 -->
<svg width="505pt" height="247pt"
 viewBox="0.00 0.00 505.00 247.00" xmlns="http://www.w3.org/2000/svg" xmlns:xlink="http://www.w3.org/1999/xlink">
<g id="graph0" class="graph" transform="scale(1 1) rotate(0) translate(4 243)">
<title>include/y3c/wrap.h</title>
<!-- Node1 -->
<g id="Node000001" class="node">
<title>Node1</title>
<g id="a_Node000001"><a xlink:title=" ">
<polygon fill="#999999" stroke="#666666" points="393,-239 285,-239 285,-220 393,-220 393,-239"/>
<text text-anchor="middle" x="339" y="-227" font-family="Helvetica,sans-Serif" font-size="10.00">include/y3c/wrap.h</text>
</a>
</g>
</g>
<!-- Node2 -->
<g id="Node000002" class="node">
<title>Node2</title>
<g id="a_Node000002"><a xlink:href="terminate_8h.html" target="_top" xlink:title=" ">
<polygon fill="white" stroke="#666666" points="318,-129 224,-129 224,-110 318,-110 318,-129"/>
<text text-anchor="middle" x="271" y="-117" font-family="Helvetica,sans-Serif" font-size="10.00">y3c/terminate.h</text>
</a>
</g>
</g>
<!-- Node1&#45;&gt;Node2 -->
<g id="edge1_Node000001_Node000002" class="edge">
<title>Node1&#45;&gt;Node2</title>
<g id="a_edge1_Node000001_Node000002"><a xlink:title=" ">
<path fill="none" stroke="#63b8ff" d="M333.44,-219.66C322.17,-201.77 296.5,-161 281.83,-137.69"/>
<polygon fill="#63b8ff" stroke="#63b8ff" points="284.74,-135.76 276.45,-129.16 278.82,-139.49 284.74,-135.76"/>
</a>
</g>
</g>
<!-- Node7 -->
<g id="Node000007" class="node">
<title>Node7</title>
<g id="a_Node000007"><a xlink:title=" ">
<polygon fill="#e0e0e0" stroke="#999999" points="497,-74 439,-74 439,-55 497,-55 497,-74"/>
<text text-anchor="middle" x="468" y="-62" font-family="Helvetica,sans-Serif" font-size="10.00">memory</text>
</a>
</g>
</g>
<!-- Node1&#45;&gt;Node7 -->
<g id="edge18_Node000001_Node000007" class="edge">
<title>Node1&#45;&gt;Node7</title>
<g id="a_edge18_Node000001_Node000007"><a xlink:title=" ">
<path fill="none" stroke="#63b8ff" d="M358.25,-219.88C373.57,-212.23 394.74,-199.84 409,-184 436.2,-153.8 453.97,-108.78 462.37,-83.83"/>
<polygon fill="#63b8ff" stroke="#63b8ff" points="465.74,-84.77 465.48,-74.18 459.08,-82.62 465.74,-84.77"/>
</a>
</g>
</g>
<!-- Node10 -->
<g id="Node000010" class="node">
<title>Node10</title>
<g id="a_Node000010"><a xlink:href="life_8h.html" target="_top" xlink:title=" ">
<polygon fill="white" stroke="#666666" points="400,-184 338,-184 338,-165 400,-165 400,-184"/>
<text text-anchor="middle" x="369" y="-172" font-family="Helvetica,sans-Serif" font-size="10.00">y3c/life.h</text>
</a>
</g>
</g>
<!-- Node1&#45;&gt;Node10 -->
<g id="edge11_Node000001_Node000010" class="edge">
<title>Node1&#45;&gt;Node10</title>
<g id="a_edge11_Node000001_Node000010"><a xlink:title=" ">
<path fill="none" stroke="#63b8ff" d="M343.95,-219.75C348.06,-212.49 354.03,-201.95 359.1,-192.98"/>
<polygon fill="#63b8ff" stroke="#63b8ff" points="362.26,-194.52 364.14,-184.09 356.17,-191.07 362.26,-194.52"/>
</a>
</g>
</g>
<!-- Node12 -->
<g id="Node000012" class="node">
<title>Node12</title>
<g id="a_Node000012"><a xlink:href="typename_8h.html" target="_top" xlink:title=" ">
<polygon fill="white" stroke="#666666" points="281.5,-184 186.5,-184 186.5,-165 281.5,-165 281.5,-184"/>
<text text-anchor="middle" x="234" y="-172" font-family="Helvetica,sans-Serif" font-size="10.00">y3c/typename.h</text>
</a>
</g>
</g>
<!-- Node1&#45;&gt;Node12 -->
<g id="edge15_Node000001_Node000012" class="edge">
<title>Node1&#45;&gt;Node12</title>
<g id="a_edge15_Node000001_Node000012"><a xlink:title=" ">
<path fill="none" stroke="#63b8ff" d="M322.13,-219.98C305.39,-211.54 279.5,-198.47 260.11,-188.68"/>
<polygon fill="#63b8ff" stroke="#63b8ff" points="261.68,-185.55 251.18,-184.17 258.53,-191.8 261.68,-185.55"/>
</a>
</g>
</g>
<!-- Node3 -->
<g id="Node000003" class="node">
<title>Node3</title>
<g id="a_Node000003"><a xlink:href="y3c-config_8h.html" target="_top" xlink:title=" ">
<polygon fill="white" stroke="#666666" points="417,-19 341,-19 341,0 417,0 417,-19"/>
<text text-anchor="middle" x="379" y="-7" font-family="Helvetica,sans-Serif" font-size="10.00">y3c&#45;config.h</text>
</a>
</g>
</g>
<!-- Node2&#45;&gt;Node3 -->
<g id="edge2_Node000002_Node000003" class="edge">
<title>Node2&#45;&gt;Node3</title>
<g id="a_edge2_Node000002_Node000003"><a xlink:title=" ">
<path fill="none" stroke="#63b8ff" d="M318.29,-114.05C344.65,-108.88 375.41,-97.77 392,-74 401.43,-60.48 395.82,-41.65 389.28,-28.01"/>
<polygon fill="#63b8ff" stroke="#63b8ff" points="392.35,-26.33 384.57,-19.14 386.17,-29.61 392.35,-26.33"/>
</a>
</g>
</g>
<!-- Node4 -->
<g id="Node000004" class="node">
<title>Node4</title>
<g id="a_Node000004"><a xlink:href="what_8h.html" target="_top" xlink:title=" ">
<polygon fill="white" stroke="#666666" points="383,-74 313,-74 313,-55 383,-55 383,-74"/>
<text text-anchor="middle" x="348" y="-62" font-family="Helvetica,sans-Serif" font-size="10.00">y3c/what.h</text>
</a>
</g>
</g>
<!-- Node2&#45;&gt;Node4 -->
<g id="edge3_Node000002_Node000004" class="edge">
<title>Node2&#45;&gt;Node4</title>
<g id="a_edge3_Node000002_Node000004"><a xlink:title=" ">
<path fill="none" stroke="#63b8ff" d="M283.37,-109.98C295.09,-101.92 312.92,-89.65 326.89,-80.03"/>
<polygon fill="#63b8ff" stroke="#63b8ff" points="329.15,-82.72 335.4,-74.17 325.18,-76.96 329.15,-82.72"/>
</a>
</g>
</g>
<!-- Node5 -->
<g id="Node000005" class="node">
<title>Node5</title>
<g id="a_Node000005"><a xlink:title=" ">
<polygon fill="#e0e0e0" stroke="#999999" points="44,-19 0,-19 0,0 44,0 44,-19"/>
<text text-anchor="middle" x="22" y="-7" font-family="Helvetica,sans-Serif" font-size="10.00">string</text>
</a>
</g>
</g>
<!-- Node2&#45;&gt;Node5 -->
<g id="edge7_Node000002_Node000005" class="edge">
<title>Node2&#45;&gt;Node5</title>
<g id="a_edge7_Node000002_Node000005"><a xlink:title=" ">
<path fill="none" stroke="#63b8ff" d="M223.91,-115.08C164.62,-109.84 67.31,-97.81 41,-74 28.61,-62.79 24.16,-43.87 22.64,-29.59"/>
<polygon fill="#63b8ff" stroke="#63b8ff" points="26.11,-29.11 21.94,-19.37 19.13,-29.59 26.11,-29.11"/>
</a>
</g>
</g>
<!-- Node6 -->
<g id="Node000006" class="node">
<title>Node6</title>
<g id="a_Node000006"><a xlink:title=" ">
<polygon fill="#e0e0e0" stroke="#999999" points="115.5,-74 50.5,-74 50.5,-55 115.5,-55 115.5,-74"/>
<text text-anchor="middle" x="83" y="-62" font-family="Helvetica,sans-Serif" font-size="10.00">stdexcept</text>
</a>
</g>
</g>
<!-- Node2&#45;&gt;Node6 -->
<g id="edge6_Node000002_Node000006" class="edge">
<title>Node2&#45;&gt;Node6</title>
<g id="a_edge6_Node000002_Node000006"><a xlink:title=" ">
<path fill="none" stroke="#63b8ff" d="M240.79,-109.98C208.96,-101.01 158.64,-86.82 123.4,-76.89"/>
<polygon fill="#63b8ff" stroke="#63b8ff" points="124.02,-73.43 113.44,-74.08 122.12,-80.16 124.02,-73.43"/>
</a>
</g>
</g>
<!-- Node2&#45;&gt;Node7 -->
<g id="edge8_Node000002_Node000007" class="edge">
<title>Node2&#45;&gt;Node7</title>
<g id="a_edge8_Node000002_Node000007"><a xlink:title=" ">
<path fill="none" stroke="#63b8ff" d="M302.65,-109.98C337.05,-100.73 392.04,-85.94 429.06,-75.98"/>
<polygon fill="#63b8ff" stroke="#63b8ff" points="430.25,-79.28 438.99,-73.3 428.43,-72.52 430.25,-79.28"/>
</a>
</g>
</g>
<!-- Node8 -->
<g id="Node000008" class="node">
<title>Node8</title>
<g id="a_Node000008"><a xlink:title=" ">
<polygon fill="#e0e0e0" stroke="#999999" points="226.5,-74 133.5,-74 133.5,-55 226.5,-55 226.5,-74"/>
<text text-anchor="middle" x="180" y="-62" font-family="Helvetica,sans-Serif" font-size="10.00">unordered_map</text>
</a>
</g>
</g>
<!-- Node2&#45;&gt;Node8 -->
<g id="edge9_Node000002_Node000008" class="edge">
<title>Node2&#45;&gt;Node8</title>
<g id="a_edge9_Node000002_Node000008"><a xlink:title=" ">
<path fill="none" stroke="#63b8ff" d="M256.38,-109.98C242.14,-101.69 220.25,-88.94 203.55,-79.22"/>
<polygon fill="#63b8ff" stroke="#63b8ff" points="205.29,-76.18 194.89,-74.17 201.77,-82.23 205.29,-76.18"/>
</a>
</g>
</g>
<!-- Node9 -->
<g id="Node000009" class="node">
<title>Node9</title>
<g id="a_Node000009"><a xlink:title=" ">
<polygon fill="#e0e0e0" stroke="#999999" points="295,-74 245,-74 245,-55 295,-55 295,-74"/>
<text text-anchor="middle" x="270" y="-62" font-family="Helvetica,sans-Serif" font-size="10.00">atomic</text>
</a>
</g>
</g>
<!-- Node2&#45;&gt;Node9 -->
<g id="edge10_Node000002_Node000009" class="edge">
<title>Node2&#45;&gt;Node9</title>
<g id="a_edge10_Node000002_Node000009"><a xlink:title=" ">
<path fill="none" stroke="#63b8ff" d="M270.83,-109.75C270.7,-102.8 270.52,-92.85 270.35,-84.13"/>
<polygon fill="#63b8ff" stroke="#63b8ff" points="273.85,-84.02 270.16,-74.09 266.85,-84.15 273.85,-84.02"/>
</a>
</g>
</g>
<!-- Node4&#45;&gt;Node3 -->
<g id="edge4_Node000004_Node000003" class="edge">
<title>Node4&#45;&gt;Node3</title>
<g id="a_edge4_Node000004_Node000003"><a xlink:title=" ">
<path fill="none" stroke="#63b8ff" d="M353.12,-54.75C357.36,-47.49 363.53,-36.95 368.78,-27.98"/>
<polygon fill="#63b8ff" stroke="#63b8ff" points="371.95,-29.49 373.98,-19.09 365.91,-25.95 371.95,-29.49"/>
</a>
</g>
</g>
<!-- Node4&#45;&gt;Node5 -->
<g id="edge5_Node000004_Node000005" class="edge">
<title>Node4&#45;&gt;Node5</title>
<g id="a_edge5_Node000004_Node000005"><a xlink:title=" ">
<path fill="none" stroke="#63b8ff" d="M312.96,-56.62C309.93,-56.06 306.91,-55.51 304,-55 213.8,-39.18 106.9,-23.01 54.4,-15.24"/>
<polygon fill="#63b8ff" stroke="#63b8ff" points="54.75,-11.76 44.34,-13.76 53.72,-18.68 54.75,-11.76"/>
</a>
</g>
</g>
<!-- Node10&#45;&gt;Node2 -->
<g id="edge12_Node000010_Node000002" class="edge">
<title>Node10&#45;&gt;Node2</title>
<g id="a_edge12_Node000010_Node000002"><a xlink:title=" ">
<path fill="none" stroke="#63b8ff" d="M353.25,-164.98C337.77,-156.61 313.91,-143.7 295.86,-133.95"/>
<polygon fill="#63b8ff" stroke="#63b8ff" points="297.49,-130.85 287.03,-129.17 294.16,-137.01 297.49,-130.85"/>
</a>
</g>
</g>
<!-- Node10&#45;&gt;Node7 -->
<g id="edge13_Node000010_Node000007" class="edge">
<title>Node10&#45;&gt;Node7</title>
<g id="a_edge13_Node000010_Node000007"><a xlink:title=" ">
<path fill="none" stroke="#63b8ff" d="M377.1,-164.66C393.72,-146.54 431.87,-104.91 453.09,-81.77"/>
<polygon fill="#63b8ff" stroke="#63b8ff" points="455.89,-83.89 460.06,-74.16 450.73,-79.16 455.89,-83.89"/>
</a>
</g>
</g>
<!-- Node11 -->
<g id="Node000011" class="node">
<title>Node11</title>
<g id="a_Node000011"><a xlink:title=" ">
<polygon fill="#e0e0e0" stroke="#999999" points="392.5,-129 345.5,-129 345.5,-110 392.5,-110 392.5,-129"/>
<text text-anchor="middle" x="369" y="-117" font-family="Helvetica,sans-Serif" font-size="10.00">vector</text>
</a>
</g>
</g>
<!-- Node10&#45;&gt;Node11 -->
<g id="edge14_Node000010_Node000011" class="edge">
<title>Node10&#45;&gt;Node11</title>
<g id="a_edge14_Node000010_Node000011"><a xlink:title=" ">
<path fill="none" stroke="#63b8ff" d="M369,-164.75C369,-157.8 369,-147.85 369,-139.13"/>
<polygon fill="#63b8ff" stroke="#63b8ff" points="372.5,-139.09 369,-129.09 365.5,-139.09 372.5,-139.09"/>
</a>
</g>
</g>
<!-- Node12&#45;&gt;Node2 -->
<g id="edge16_Node000012_Node000002" class="edge">
<title>Node12&#45;&gt;Node2</title>
<g id="a_edge16_Node000012_Node000002"><a xlink:title=" ">
<path fill="none" stroke="#63b8ff" d="M240.11,-164.75C245.28,-157.34 252.85,-146.5 259.19,-137.41"/>
<polygon fill="#63b8ff" stroke="#63b8ff" points="262.15,-139.29 265,-129.09 256.41,-135.29 262.15,-139.29"/>
</a>
</g>
</g>
<!-- Node12&#45;&gt;Node5 -->
<g id="edge17_Node000012_Node000005" class="edge">
<title>Node12&#45;&gt;Node5</title>
<g id="a_edge17_Node000012_Node000005"><a xlink:title=" ">
<path fill="none" stroke="#63b8ff" d="M186.5,-165.16C137.31,-153.79 62.62,-128.25 26,-74 17.21,-60.98 16.95,-42.84 18.46,-29.27"/>
<polygon fill="#63b8ff" stroke="#63b8ff" points="21.95,-29.58 19.99,-19.17 15.03,-28.54 21.95,-29.58"/>
</a>
</g>
</g>
</g>
</svg>
