<?xml version="1.0" encoding="UTF-8" standalone="no"?>
<!DOCTYPE svg PUBLIC "-//W3C//DTD SVG 1.1//EN"
 "http://www.w3.org/Graphics/SVG/1.1/DTD/svg11.dtd">
<!-- Generated by graphviz version 2.43.0 (0)
 -->
<!-- Title: include/y3c/wrap.h Pages: 1 -->
<svg width="543pt" height="247pt"
 viewBox="0.00 0.00 543.00 247.00" xmlns="http://www.w3.org/2000/svg" xmlns:xlink="http://www.w3.org/1999/xlink">
<g id="graph0" class="graph" transform="scale(1 1) rotate(0) translate(4 243)">
<title>include/y3c/wrap.h</title>
<!-- Node1 -->
<g id="Node000001" class="node">
<title>Node1</title>
<g id="a_Node000001"><a xlink:title=" ">
<polygon fill="#999999" stroke="#666666" points="473,-239 365,-239 365,-220 473,-220 473,-239"/>
<text text-anchor="middle" x="419" y="-227" font-family="Helvetica,sans-Serif" font-size="10.00">include/y3c/wrap.h</text>
</a>
</g>
</g>
<!-- Node2 -->
<g id="Node000002" class="node">
<title>Node2</title>
<g id="a_Node000002"><a xlink:href="terminate_8h.html" target="_top" xlink:title=" ">
<polygon fill="white" stroke="#666666" points="383,-129 289,-129 289,-110 383,-110 383,-129"/>
<text text-anchor="middle" x="336" y="-117" font-family="Helvetica,sans-Serif" font-size="10.00">y3c/terminate.h</text>
</a>
</g>
</g>
<!-- Node1&#45;&gt;Node2 -->
<g id="edge1_Node000001_Node000002" class="edge">
<title>Node1&#45;&gt;Node2</title>
<g id="a_edge1_Node000001_Node000002"><a xlink:title=" ">
<path fill="none" stroke="#63b8ff" d="M412.21,-219.66C398.4,-201.69 366.85,-160.64 348.98,-137.38"/>
<polygon fill="#63b8ff" stroke="#63b8ff" points="351.52,-134.95 342.65,-129.16 345.97,-139.22 351.52,-134.95"/>
</a>
</g>
</g>
<!-- Node7 -->
<g id="Node000007" class="node">
<title>Node7</title>
<g id="a_Node000007"><a xlink:title=" ">
<polygon fill="#e0e0e0" stroke="#999999" points="535,-74 477,-74 477,-55 535,-55 535,-74"/>
<text text-anchor="middle" x="506" y="-62" font-family="Helvetica,sans-Serif" font-size="10.00">memory</text>
</a>
</g>
</g>
<!-- Node1&#45;&gt;Node7 -->
<g id="edge18_Node000001_Node000007" class="edge">
<title>Node1&#45;&gt;Node7</title>
<g id="a_edge18_Node000001_Node000007"><a xlink:title=" ">
<path fill="none" stroke="#63b8ff" d="M442.02,-219.95C457.87,-212.82 477.98,-201.06 489,-184 508.76,-153.41 509.43,-109.17 507.89,-84.3"/>
<polygon fill="#63b8ff" stroke="#63b8ff" points="511.36,-83.76 507.06,-74.08 504.38,-84.33 511.36,-83.76"/>
</a>
</g>
</g>
<!-- Node10 -->
<g id="Node000010" class="node">
<title>Node10</title>
<g id="a_Node000010"><a xlink:href="life_8h.html" target="_top" xlink:title=" ">
<polygon fill="white" stroke="#666666" points="480,-184 418,-184 418,-165 480,-165 480,-184"/>
<text text-anchor="middle" x="449" y="-172" font-family="Helvetica,sans-Serif" font-size="10.00">y3c/life.h</text>
</a>
</g>
</g>
<!-- Node1&#45;&gt;Node10 -->
<g id="edge11_Node000001_Node000010" class="edge">
<title>Node1&#45;&gt;Node10</title>
<g id="a_edge11_Node000001_Node000010"><a xlink:title=" ">
<path fill="none" stroke="#63b8ff" d="M423.95,-219.75C428.06,-212.49 434.03,-201.95 439.1,-192.98"/>
<polygon fill="#63b8ff" stroke="#63b8ff" points="442.26,-194.52 444.14,-184.09 436.17,-191.07 442.26,-194.52"/>
</a>
</g>
</g>
<!-- Node11 -->
<g id="Node000011" class="node">
<title>Node11</title>
<g id="a_Node000011"><a xlink:href="typename_8h.html" target="_top" xlink:title=" ">
<polygon fill="white" stroke="#666666" points="361.5,-184 266.5,-184 266.5,-165 361.5,-165 361.5,-184"/>
<text text-anchor="middle" x="314" y="-172" font-family="Helvetica,sans-Serif" font-size="10.00">y3c/typename.h</text>
</a>
</g>
</g>
<!-- Node1&#45;&gt;Node11 -->
<g id="edge15_Node000001_Node000011" class="edge">
<title>Node1&#45;&gt;Node11</title>
<g id="a_edge15_Node000001_Node000011"><a xlink:title=" ">
<path fill="none" stroke="#63b8ff" d="M402.13,-219.98C385.39,-211.54 359.5,-198.47 340.11,-188.68"/>
<polygon fill="#63b8ff" stroke="#63b8ff" points="341.68,-185.55 331.18,-184.17 338.53,-191.8 341.68,-185.55"/>
</a>
</g>
</g>
<!-- Node3 -->
<g id="Node000003" class="node">
<title>Node3</title>
<g id="a_Node000003"><a xlink:href="y3c-config_8h.html" target="_top" xlink:title=" ">
<polygon fill="white" stroke="#666666" points="449,-19 373,-19 373,0 449,0 449,-19"/>
<text text-anchor="middle" x="411" y="-7" font-family="Helvetica,sans-Serif" font-size="10.00">y3c&#45;config.h</text>
</a>
</g>
</g>
<!-- Node2&#45;&gt;Node3 -->
<g id="edge2_Node000002_Node000003" class="edge">
<title>Node2&#45;&gt;Node3</title>
<g id="a_edge2_Node000002_Node000003"><a xlink:title=" ">
<path fill="none" stroke="#63b8ff" d="M351.48,-109.86C364.13,-102.05 381.56,-89.43 392,-74 401.17,-60.45 406.02,-42.36 408.51,-28.96"/>
<polygon fill="#63b8ff" stroke="#63b8ff" points="411.98,-29.43 410.1,-19 405.07,-28.33 411.98,-29.43"/>
</a>
</g>
</g>
<!-- Node4 -->
<g id="Node000004" class="node">
<title>Node4</title>
<g id="a_Node000004"><a xlink:href="what_8h.html" target="_top" xlink:title=" ">
<polygon fill="white" stroke="#666666" points="315,-74 245,-74 245,-55 315,-55 315,-74"/>
<text text-anchor="middle" x="280" y="-62" font-family="Helvetica,sans-Serif" font-size="10.00">y3c/what.h</text>
</a>
</g>
</g>
<!-- Node2&#45;&gt;Node4 -->
<g id="edge3_Node000002_Node000004" class="edge">
<title>Node2&#45;&gt;Node4</title>
<g id="a_edge3_Node000002_Node000004"><a xlink:title=" ">
<path fill="none" stroke="#63b8ff" d="M327,-109.98C318.81,-102.23 306.49,-90.58 296.53,-81.14"/>
<polygon fill="#63b8ff" stroke="#63b8ff" points="298.83,-78.5 289.16,-74.17 294.02,-83.59 298.83,-78.5"/>
</a>
</g>
</g>
<!-- Node5 -->
<g id="Node000005" class="node">
<title>Node5</title>
<g id="a_Node000005"><a xlink:title=" ">
<polygon fill="#e0e0e0" stroke="#999999" points="44,-19 0,-19 0,0 44,0 44,-19"/>
<text text-anchor="middle" x="22" y="-7" font-family="Helvetica,sans-Serif" font-size="10.00">string</text>
</a>
</g>
</g>
<!-- Node2&#45;&gt;Node5 -->
<g id="edge7_Node000002_Node000005" class="edge">
<title>Node2&#45;&gt;Node5</title>
<g id="a_edge7_Node000002_Node000005"><a xlink:title=" ">
<path fill="none" stroke="#63b8ff" d="M288.86,-117.38C215.13,-114.66 77.18,-105.41 41,-74 28.38,-63.05 23.97,-44.09 22.51,-29.74"/>
<polygon fill="#63b8ff" stroke="#63b8ff" points="25.98,-29.21 21.87,-19.45 18.99,-29.65 25.98,-29.21"/>
</a>
</g>
</g>
<!-- Node6 -->
<g id="Node000006" class="node">
<title>Node6</title>
<g id="a_Node000006"><a xlink:title=" ">
<polygon fill="#e0e0e0" stroke="#999999" points="115.5,-74 50.5,-74 50.5,-55 115.5,-55 115.5,-74"/>
<text text-anchor="middle" x="83" y="-62" font-family="Helvetica,sans-Serif" font-size="10.00">stdexcept</text>
</a>
</g>
</g>
<!-- Node2&#45;&gt;Node6 -->
<g id="edge6_Node000002_Node000006" class="edge">
<title>Node2&#45;&gt;Node6</title>
<g id="a_edge6_Node000002_Node000006"><a xlink:title=" ">
<path fill="none" stroke="#63b8ff" d="M295.35,-109.98C248.76,-100.23 172.76,-84.3 125.44,-74.39"/>
<polygon fill="#63b8ff" stroke="#63b8ff" points="126.01,-70.93 115.5,-72.31 124.57,-77.79 126.01,-70.93"/>
</a>
</g>
</g>
<!-- Node2&#45;&gt;Node7 -->
<g id="edge8_Node000002_Node000007" class="edge">
<title>Node2&#45;&gt;Node7</title>
<g id="a_edge8_Node000002_Node000007"><a xlink:title=" ">
<path fill="none" stroke="#63b8ff" d="M363.31,-109.98C391.85,-101.09 436.83,-87.07 468.64,-77.15"/>
<polygon fill="#63b8ff" stroke="#63b8ff" points="469.97,-80.4 478.47,-74.08 467.88,-73.72 469.97,-80.4"/>
</a>
</g>
</g>
<!-- Node8 -->
<g id="Node000008" class="node">
<title>Node8</title>
<g id="a_Node000008"><a xlink:title=" ">
<polygon fill="#e0e0e0" stroke="#999999" points="226.5,-74 133.5,-74 133.5,-55 226.5,-55 226.5,-74"/>
<text text-anchor="middle" x="180" y="-62" font-family="Helvetica,sans-Serif" font-size="10.00">unordered_map</text>
</a>
</g>
</g>
<!-- Node2&#45;&gt;Node8 -->
<g id="edge9_Node000002_Node000008" class="edge">
<title>Node2&#45;&gt;Node8</title>
<g id="a_edge9_Node000002_Node000008"><a xlink:title=" ">
<path fill="none" stroke="#63b8ff" d="M310.94,-109.98C284.97,-101.16 244.19,-87.31 215.04,-77.41"/>
<polygon fill="#63b8ff" stroke="#63b8ff" points="215.85,-73.99 205.26,-74.08 213.6,-80.61 215.85,-73.99"/>
</a>
</g>
</g>
<!-- Node9 -->
<g id="Node000009" class="node">
<title>Node9</title>
<g id="a_Node000009"><a xlink:title=" ">
<polygon fill="#e0e0e0" stroke="#999999" points="383,-74 333,-74 333,-55 383,-55 383,-74"/>
<text text-anchor="middle" x="358" y="-62" font-family="Helvetica,sans-Serif" font-size="10.00">atomic</text>
</a>
</g>
</g>
<!-- Node2&#45;&gt;Node9 -->
<g id="edge10_Node000002_Node000009" class="edge">
<title>Node2&#45;&gt;Node9</title>
<g id="a_edge10_Node000002_Node000009"><a xlink:title=" ">
<path fill="none" stroke="#63b8ff" d="M339.63,-109.75C342.58,-102.65 346.83,-92.4 350.51,-83.56"/>
<polygon fill="#63b8ff" stroke="#63b8ff" points="353.83,-84.67 354.43,-74.09 347.37,-81.98 353.83,-84.67"/>
</a>
</g>
</g>
<!-- Node4&#45;&gt;Node3 -->
<g id="edge4_Node000004_Node000003" class="edge">
<title>Node4&#45;&gt;Node3</title>
<g id="a_edge4_Node000004_Node000003"><a xlink:title=" ">
<path fill="none" stroke="#63b8ff" d="M301.05,-54.98C322.41,-46.34 355.7,-32.87 380.06,-23.02"/>
<polygon fill="#63b8ff" stroke="#63b8ff" points="381.61,-26.17 389.57,-19.17 378.99,-19.68 381.61,-26.17"/>
</a>
</g>
</g>
<!-- Node4&#45;&gt;Node5 -->
<g id="edge5_Node000004_Node000005" class="edge">
<title>Node4&#45;&gt;Node5</title>
<g id="a_edge5_Node000004_Node000005"><a xlink:title=" ">
<path fill="none" stroke="#63b8ff" d="M244.94,-56.3C194.62,-45.96 102.66,-27.07 54.06,-17.09"/>
<polygon fill="#63b8ff" stroke="#63b8ff" points="54.6,-13.62 44.1,-15.04 53.19,-20.48 54.6,-13.62"/>
</a>
</g>
</g>
<!-- Node10&#45;&gt;Node2 -->
<g id="edge12_Node000010_Node000002" class="edge">
<title>Node10&#45;&gt;Node2</title>
<g id="a_edge12_Node000010_Node000002"><a xlink:title=" ">
<path fill="none" stroke="#63b8ff" d="M430.84,-164.98C412.75,-156.5 384.72,-143.35 363.81,-133.54"/>
<polygon fill="#63b8ff" stroke="#63b8ff" points="365.03,-130.25 354.49,-129.17 362.05,-136.59 365.03,-130.25"/>
</a>
</g>
</g>
<!-- Node10&#45;&gt;Node3 -->
<g id="edge13_Node000010_Node000003" class="edge">
<title>Node10&#45;&gt;Node3</title>
<g id="a_edge13_Node000010_Node000003"><a xlink:title=" ">
<path fill="none" stroke="#63b8ff" d="M446.96,-164.74C441,-139.2 423.57,-64.43 415.37,-29.23"/>
<polygon fill="#63b8ff" stroke="#63b8ff" points="418.73,-28.25 413.05,-19.31 411.92,-29.84 418.73,-28.25"/>
</a>
</g>
</g>
<!-- Node10&#45;&gt;Node7 -->
<g id="edge14_Node000010_Node000007" class="edge">
<title>Node10&#45;&gt;Node7</title>
<g id="a_edge14_Node000010_Node000007"><a xlink:title=" ">
<path fill="none" stroke="#63b8ff" d="M453.66,-164.66C463.06,-146.85 484.43,-106.37 496.76,-83.01"/>
<polygon fill="#63b8ff" stroke="#63b8ff" points="499.86,-84.64 501.43,-74.16 493.67,-81.37 499.86,-84.64"/>
</a>
</g>
</g>
<!-- Node11&#45;&gt;Node2 -->
<g id="edge16_Node000011_Node000002" class="edge">
<title>Node11&#45;&gt;Node2</title>
<g id="a_edge16_Node000011_Node000002"><a xlink:title=" ">
<path fill="none" stroke="#63b8ff" d="M317.63,-164.75C320.58,-157.65 324.83,-147.4 328.51,-138.56"/>
<polygon fill="#63b8ff" stroke="#63b8ff" points="331.83,-139.67 332.43,-129.09 325.37,-136.98 331.83,-139.67"/>
</a>
</g>
</g>
<!-- Node11&#45;&gt;Node5 -->
<g id="edge17_Node000011_Node000005" class="edge">
<title>Node11&#45;&gt;Node5</title>
<g id="a_edge17_Node000011_Node000005"><a xlink:title=" ">
<path fill="none" stroke="#63b8ff" d="M266.48,-172.52C200.23,-168.32 81.89,-149.9 25,-74 15.59,-61.44 15.71,-43.25 17.67,-29.55"/>
<polygon fill="#63b8ff" stroke="#63b8ff" points="21.19,-29.79 19.59,-19.32 14.3,-28.51 21.19,-29.79"/>
</a>
</g>
</g>
</g>
</svg>
