<?xml version="1.0" encoding="UTF-8" standalone="no"?>
<!DOCTYPE svg PUBLIC "-//W3C//DTD SVG 1.1//EN"
 "http://www.w3.org/Graphics/SVG/1.1/DTD/svg11.dtd">
<!-- Generated by graphviz version 2.43.0 (0)
 -->
<!-- Title: build/y3c&#45;config.h Pages: 1 -->
<svg width="611pt" height="313pt"
 viewBox="0.00 0.00 611.48 313.00" xmlns="http://www.w3.org/2000/svg" xmlns:xlink="http://www.w3.org/1999/xlink">
<g id="graph0" class="graph" transform="scale(1 1) rotate(0) translate(4 309)">
<title>build/y3c&#45;config.h</title>
<!-- Node1 -->
<g id="Node000001" class="node">
<title>Node1</title>
<g id="a_Node000001"><a xlink:title=" ">
<polygon fill="#999999" stroke="#666666" points="512.11,-305 409.11,-305 409.11,-286 512.11,-286 512.11,-305"/>
<text text-anchor="middle" x="460.61" y="-293" font-family="Helvetica,sans-Serif" font-size="10.00">build/y3c&#45;config.h</text>
</a>
</g>
</g>
<!-- Node2 -->
<g id="Node000002" class="node">
<title>Node2</title>
<g id="a_Node000002"><a xlink:href="life_8h.html" target="_top" xlink:title=" ">
<polygon fill="white" stroke="#666666" points="590.61,-140 490.61,-140 490.61,-121 590.61,-121 590.61,-140"/>
<text text-anchor="middle" x="540.61" y="-128" font-family="Helvetica,sans-Serif" font-size="10.00">include/y3c/life.h</text>
</a>
</g>
</g>
<!-- Node1&#45;&gt;Node2 -->
<g id="edge1_Node000001_Node000002" class="edge">
<title>Node1&#45;&gt;Node2</title>
<g id="a_edge1_Node000001_Node000002"><a xlink:title=" ">
<path fill="none" stroke="#63b8ff" d="M489.03,-281.15C501.64,-273.75 515.45,-263.33 523.61,-250 545.63,-214.01 543.41,-160.59 541.55,-140.01"/>
<polygon fill="#63b8ff" stroke="#63b8ff" points="487.25,-278.13 480.15,-286 490.6,-284.27 487.25,-278.13"/>
</a>
</g>
</g>
<!-- Node6 -->
<g id="Node000006" class="node">
<title>Node6</title>
<g id="a_Node000006"><a xlink:href="terminate_8h.html" target="_top" xlink:title=" ">
<polygon fill="white" stroke="#666666" points="429.61,-195 297.61,-195 297.61,-176 429.61,-176 429.61,-195"/>
<text text-anchor="middle" x="363.61" y="-183" font-family="Helvetica,sans-Serif" font-size="10.00">include/y3c/terminate.h</text>
</a>
</g>
</g>
<!-- Node1&#45;&gt;Node6 -->
<g id="edge5_Node000001_Node000006" class="edge">
<title>Node1&#45;&gt;Node6</title>
<g id="a_edge5_Node000001_Node000006"><a xlink:title=" ">
<path fill="none" stroke="#63b8ff" d="M435.88,-280.81C423.31,-272.98 408.45,-262.27 397.61,-250 382.53,-232.95 371.71,-208.05 366.71,-195.08"/>
<polygon fill="#63b8ff" stroke="#63b8ff" points="434.16,-283.86 444.53,-285.99 437.75,-277.85 434.16,-283.86"/>
</a>
</g>
</g>
<!-- Node10 -->
<g id="Node000010" class="node">
<title>Node10</title>
<g id="a_Node000010"><a xlink:href="what_8h.html" target="_top" xlink:title=" ">
<polygon fill="white" stroke="#666666" points="514.61,-250 406.61,-250 406.61,-231 514.61,-231 514.61,-250"/>
<text text-anchor="middle" x="460.61" y="-238" font-family="Helvetica,sans-Serif" font-size="10.00">include/y3c/what.h</text>
</a>
</g>
</g>
<!-- Node1&#45;&gt;Node10 -->
<g id="edge16_Node000001_Node000010" class="edge">
<title>Node1&#45;&gt;Node10</title>
<g id="a_edge16_Node000001_Node000010"><a xlink:title=" ">
<path fill="none" stroke="#63b8ff" d="M460.61,-275.66C460.61,-266.93 460.61,-256.99 460.61,-250.09"/>
<polygon fill="#63b8ff" stroke="#63b8ff" points="457.11,-275.75 460.61,-285.75 464.11,-275.75 457.11,-275.75"/>
</a>
</g>
</g>
<!-- Node3 -->
<g id="Node000003" class="node">
<title>Node3</title>
<g id="a_Node000003"><a xlink:href="wrap_8h.html" target="_top" xlink:title=" ">
<polygon fill="white" stroke="#666666" points="390.61,-85 282.61,-85 282.61,-66 390.61,-66 390.61,-85"/>
<text text-anchor="middle" x="336.61" y="-73" font-family="Helvetica,sans-Serif" font-size="10.00">include/y3c/wrap.h</text>
</a>
</g>
</g>
<!-- Node2&#45;&gt;Node3 -->
<g id="edge2_Node000002_Node000003" class="edge">
<title>Node2&#45;&gt;Node3</title>
<g id="a_edge2_Node000002_Node000003"><a xlink:title=" ">
<path fill="none" stroke="#63b8ff" d="M498.03,-118.44C459.84,-108.52 404.58,-94.16 369.64,-85.08"/>
<polygon fill="#63b8ff" stroke="#63b8ff" points="497.27,-121.86 507.83,-120.98 499.03,-115.08 497.27,-121.86"/>
</a>
</g>
</g>
<!-- Node4 -->
<g id="Node000004" class="node">
<title>Node4</title>
<g id="a_Node000004"><a xlink:href="array_8h.html" target="_top" xlink:title=" ">
<polygon fill="white" stroke="#666666" points="390.61,-24.5 282.61,-24.5 282.61,-5.5 390.61,-5.5 390.61,-24.5"/>
<text text-anchor="middle" x="336.61" y="-12.5" font-family="Helvetica,sans-Serif" font-size="10.00">include/y3c/array.h</text>
</a>
</g>
</g>
<!-- Node3&#45;&gt;Node4 -->
<g id="edge3_Node000003_Node000004" class="edge">
<title>Node3&#45;&gt;Node4</title>
<g id="a_edge3_Node000003_Node000004"><a xlink:title=" ">
<path fill="none" stroke="#63b8ff" d="M336.61,-55.66C336.61,-45.24 336.61,-32.8 336.61,-24.67"/>
<polygon fill="#63b8ff" stroke="#63b8ff" points="333.11,-55.87 336.61,-65.87 340.11,-55.87 333.11,-55.87"/>
</a>
</g>
</g>
<!-- Node5 -->
<g id="Node000005" class="node">
<title>Node5</title>
<g id="a_Node000005"><a xlink:href="shared__ptr_8h.html" target="_top" xlink:title=" ">
<polygon fill="white" stroke="#666666" points="139.61,-30 31.61,-30 31.61,0 139.61,0 139.61,-30"/>
<text text-anchor="start" x="39.61" y="-18" font-family="Helvetica,sans-Serif" font-size="10.00">include/y3c/shared</text>
<text text-anchor="middle" x="85.61" y="-7" font-family="Helvetica,sans-Serif" font-size="10.00">_ptr.h</text>
</a>
</g>
</g>
<!-- Node3&#45;&gt;Node5 -->
<g id="edge4_Node000003_Node000005" class="edge">
<title>Node3&#45;&gt;Node5</title>
<g id="a_edge4_Node000003_Node000005"><a xlink:title=" ">
<path fill="none" stroke="#63b8ff" d="M290.29,-63.7C247.72,-53.78 184.62,-39.08 139.74,-28.62"/>
<polygon fill="#63b8ff" stroke="#63b8ff" points="289.57,-67.13 300.11,-65.99 291.16,-60.32 289.57,-67.13"/>
</a>
</g>
</g>
<!-- Node6&#45;&gt;Node2 -->
<g id="edge7_Node000006_Node000002" class="edge">
<title>Node6&#45;&gt;Node2</title>
<g id="a_edge7_Node000006_Node000002"><a xlink:title=" ">
<path fill="none" stroke="#63b8ff" d="M401.82,-173.06C434.91,-163.15 482.01,-149.04 511.94,-140.08"/>
<polygon fill="#63b8ff" stroke="#63b8ff" points="400.62,-169.76 392.04,-175.98 402.63,-176.47 400.62,-169.76"/>
</a>
</g>
</g>
<!-- Node6&#45;&gt;Node3 -->
<g id="edge13_Node000006_Node000003" class="edge">
<title>Node6&#45;&gt;Node3</title>
<g id="a_edge13_Node000006_Node000003"><a xlink:title=" ">
<path fill="none" stroke="#63b8ff" d="M400.83,-172.3C428.25,-161.19 458.39,-143.17 443.61,-121 431.04,-102.17 408.86,-91.3 387.93,-85.02"/>
<polygon fill="#63b8ff" stroke="#63b8ff" points="399.42,-169.09 391.33,-175.93 401.92,-175.63 399.42,-169.09"/>
</a>
</g>
</g>
<!-- Node6&#45;&gt;Node4 -->
<g id="edge6_Node000006_Node000004" class="edge">
<title>Node6&#45;&gt;Node4</title>
<g id="a_edge6_Node000006_Node000004"><a xlink:title=" ">
<path fill="none" stroke="#63b8ff" d="M440.06,-174.99C505,-166.12 589.3,-152.43 599.61,-140 604.99,-133.5 604.34,-127.99 599.61,-121 552.93,-52.11 453.02,-28.42 390.66,-20.27"/>
<polygon fill="#63b8ff" stroke="#63b8ff" points="439.26,-171.56 429.82,-176.37 440.19,-178.5 439.26,-171.56"/>
</a>
</g>
</g>
<!-- Node6&#45;&gt;Node5 -->
<g id="edge8_Node000006_Node000005" class="edge">
<title>Node6&#45;&gt;Node5</title>
<g id="a_edge8_Node000006_Node000005"><a xlink:title=" ">
<path fill="none" stroke="#63b8ff" d="M287.22,-180.2C188.67,-173.85 27.66,-160.47 9.61,-140 -21.8,-104.4 33.91,-54.21 65.72,-30.06"/>
<polygon fill="#63b8ff" stroke="#63b8ff" points="287.24,-183.7 297.44,-180.84 287.68,-176.72 287.24,-183.7"/>
</a>
</g>
</g>
<!-- Node7 -->
<g id="Node000007" class="node">
<title>Node7</title>
<g id="a_Node000007"><a xlink:href="typename_8h.html" target="_top" xlink:title=" ">
<polygon fill="white" stroke="#666666" points="152.61,-140 18.61,-140 18.61,-121 152.61,-121 152.61,-140"/>
<text text-anchor="middle" x="85.61" y="-128" font-family="Helvetica,sans-Serif" font-size="10.00">include/y3c/typename.h</text>
</a>
</g>
</g>
<!-- Node6&#45;&gt;Node7 -->
<g id="edge9_Node000006_Node000007" class="edge">
<title>Node6&#45;&gt;Node7</title>
<g id="a_edge9_Node000006_Node000007"><a xlink:title=" ">
<path fill="none" stroke="#63b8ff" d="M308.87,-174.07C256.75,-164.13 179.25,-149.35 130.62,-140.08"/>
<polygon fill="#63b8ff" stroke="#63b8ff" points="308.46,-177.55 318.94,-175.98 309.77,-170.67 308.46,-177.55"/>
</a>
</g>
</g>
<!-- Node8 -->
<g id="Node000008" class="node">
<title>Node8</title>
<g id="a_Node000008"><a xlink:href="final__message_8cc.html" target="_top" xlink:title=" ">
<polygon fill="white" stroke="#666666" points="288.61,-140 170.61,-140 170.61,-121 288.61,-121 288.61,-140"/>
<text text-anchor="middle" x="229.61" y="-128" font-family="Helvetica,sans-Serif" font-size="10.00">src/final_message.cc</text>
</a>
</g>
</g>
<!-- Node6&#45;&gt;Node8 -->
<g id="edge14_Node000006_Node000008" class="edge">
<title>Node6&#45;&gt;Node8</title>
<g id="a_edge14_Node000006_Node000008"><a xlink:title=" ">
<path fill="none" stroke="#63b8ff" d="M332.74,-172.29C307.9,-162.47 273.62,-148.91 251.53,-140.17"/>
<polygon fill="#63b8ff" stroke="#63b8ff" points="331.49,-175.56 342.08,-175.98 334.06,-169.05 331.49,-175.56"/>
</a>
</g>
</g>
<!-- Node9 -->
<g id="Node000009" class="node">
<title>Node9</title>
<g id="a_Node000009"><a xlink:href="terminate__detail_8cc.html" target="_top" xlink:title=" ">
<polygon fill="white" stroke="#666666" points="434.61,-140 306.61,-140 306.61,-121 434.61,-121 434.61,-140"/>
<text text-anchor="middle" x="370.61" y="-128" font-family="Helvetica,sans-Serif" font-size="10.00">src/terminate_detail.cc</text>
</a>
</g>
</g>
<!-- Node6&#45;&gt;Node9 -->
<g id="edge15_Node000006_Node000009" class="edge">
<title>Node6&#45;&gt;Node9</title>
<g id="a_edge15_Node000006_Node000009"><a xlink:title=" ">
<path fill="none" stroke="#63b8ff" d="M366.09,-165.66C367.25,-156.93 368.56,-146.99 369.47,-140.09"/>
<polygon fill="#63b8ff" stroke="#63b8ff" points="362.6,-165.38 364.76,-175.75 369.54,-166.29 362.6,-165.38"/>
</a>
</g>
</g>
<!-- Node7&#45;&gt;Node3 -->
<g id="edge12_Node000007_Node000003" class="edge">
<title>Node7&#45;&gt;Node3</title>
<g id="a_edge12_Node000007_Node000003"><a xlink:title=" ">
<path fill="none" stroke="#63b8ff" d="M135.91,-118.88C182.95,-108.94 252.33,-94.3 295.96,-85.08"/>
<polygon fill="#63b8ff" stroke="#63b8ff" points="134.99,-115.49 125.93,-120.98 136.44,-122.34 134.99,-115.49"/>
</a>
</g>
</g>
<!-- Node7&#45;&gt;Node4 -->
<g id="edge10_Node000007_Node000004" class="edge">
<title>Node7&#45;&gt;Node4</title>
<g id="a_edge10_Node000007_Node000004"><a xlink:title=" ">
<path fill="none" stroke="#63b8ff" d="M113.69,-116.8C165.22,-93.5 273.61,-44.49 317.52,-24.63"/>
<polygon fill="#63b8ff" stroke="#63b8ff" points="112.14,-113.66 104.47,-120.97 115.02,-120.04 112.14,-113.66"/>
</a>
</g>
</g>
<!-- Node7&#45;&gt;Node5 -->
<g id="edge11_Node000007_Node000005" class="edge">
<title>Node7&#45;&gt;Node5</title>
<g id="a_edge11_Node000007_Node000005"><a xlink:title=" ">
<path fill="none" stroke="#63b8ff" d="M85.61,-110.96C85.61,-88.34 85.61,-50.61 85.61,-30.18"/>
<polygon fill="#63b8ff" stroke="#63b8ff" points="82.11,-110.97 85.61,-120.97 89.11,-110.97 82.11,-110.97"/>
</a>
</g>
</g>
<!-- Node10&#45;&gt;Node6 -->
<g id="edge17_Node000010_Node000006" class="edge">
<title>Node10&#45;&gt;Node6</title>
<g id="a_edge17_Node000010_Node000006"><a xlink:title=" ">
<path fill="none" stroke="#63b8ff" d="M435.83,-225.97C418.1,-216.28 394.76,-203.52 379.47,-195.17"/>
<polygon fill="#63b8ff" stroke="#63b8ff" points="434.57,-229.26 445.02,-230.98 437.92,-223.12 434.57,-229.26"/>
</a>
</g>
</g>
<!-- Node11 -->
<g id="Node000011" class="node">
<title>Node11</title>
<g id="a_Node000011"><a xlink:href="what_8cc.html" target="_top" xlink:title=" ">
<polygon fill="white" stroke="#666666" points="519.11,-195 448.11,-195 448.11,-176 519.11,-176 519.11,-195"/>
<text text-anchor="middle" x="483.61" y="-183" font-family="Helvetica,sans-Serif" font-size="10.00">src/what.cc</text>
</a>
</g>
</g>
<!-- Node10&#45;&gt;Node11 -->
<g id="edge18_Node000010_Node000011" class="edge">
<title>Node10&#45;&gt;Node11</title>
<g id="a_edge18_Node000010_Node000011"><a xlink:title=" ">
<path fill="none" stroke="#63b8ff" d="M468.4,-221.53C472.28,-212.6 476.78,-202.22 479.88,-195.09"/>
<polygon fill="#63b8ff" stroke="#63b8ff" points="465.17,-220.18 464.4,-230.75 471.59,-222.97 465.17,-220.18"/>
</a>
</g>
</g>
</g>
</svg>
