<?xml version="1.0" encoding="UTF-8" standalone="no"?>
<!DOCTYPE svg PUBLIC "-//W3C//DTD SVG 1.1//EN"
 "http://www.w3.org/Graphics/SVG/1.1/DTD/svg11.dtd">
<!-- Generated by graphviz version 2.43.0 (0)
 -->
<!-- Title: build/y3c&#45;config.h Pages: 1 -->
<svg width="748pt" height="368pt"
 viewBox="0.00 0.00 748.38 368.00" xmlns="http://www.w3.org/2000/svg" xmlns:xlink="http://www.w3.org/1999/xlink">
<g id="graph0" class="graph" transform="scale(1 1) rotate(0) translate(4 364)">
<title>build/y3c&#45;config.h</title>
<!-- Node1 -->
<g id="Node000001" class="node">
<title>Node1</title>
<g id="a_Node000001"><a xlink:title=" ">
<polygon fill="#999999" stroke="#666666" points="350.88,-360 247.88,-360 247.88,-341 350.88,-341 350.88,-360"/>
<text text-anchor="middle" x="299.38" y="-348" font-family="Helvetica,sans-Serif" font-size="10.00">build/y3c&#45;config.h</text>
</a>
</g>
</g>
<!-- Node2 -->
<g id="Node000002" class="node">
<title>Node2</title>
<g id="a_Node000002"><a xlink:href="terminate_8h.html" target="_top" xlink:title=" ">
<polygon fill="white" stroke="#666666" points="324.38,-250 192.38,-250 192.38,-231 324.38,-231 324.38,-250"/>
<text text-anchor="middle" x="258.38" y="-238" font-family="Helvetica,sans-Serif" font-size="10.00">include/y3c/terminate.h</text>
</a>
</g>
</g>
<!-- Node1&#45;&gt;Node2 -->
<g id="edge1_Node000001_Node000002" class="edge">
<title>Node1&#45;&gt;Node2</title>
<g id="a_edge1_Node000001_Node000002"><a xlink:title=" ">
<path fill="none" stroke="#63b8ff" d="M289.74,-331.73C285.61,-323.71 280.93,-314.02 277.38,-305 269.88,-285.94 263.63,-262.69 260.51,-250.28"/>
<polygon fill="#63b8ff" stroke="#63b8ff" points="286.78,-333.63 294.55,-340.83 292.97,-330.36 286.78,-333.63"/>
</a>
</g>
</g>
<!-- Node12 -->
<g id="Node000012" class="node">
<title>Node12</title>
<g id="a_Node000012"><a xlink:href="what_8h.html" target="_top" xlink:title=" ">
<polygon fill="white" stroke="#666666" points="394.38,-305 286.38,-305 286.38,-286 394.38,-286 394.38,-305"/>
<text text-anchor="middle" x="340.38" y="-293" font-family="Helvetica,sans-Serif" font-size="10.00">include/y3c/what.h</text>
</a>
</g>
</g>
<!-- Node1&#45;&gt;Node12 -->
<g id="edge23_Node000001_Node000012" class="edge">
<title>Node1&#45;&gt;Node12</title>
<g id="a_edge23_Node000001_Node000012"><a xlink:title=" ">
<path fill="none" stroke="#63b8ff" d="M312.4,-332.67C319.5,-323.5 327.99,-312.52 333.74,-305.09"/>
<polygon fill="#63b8ff" stroke="#63b8ff" points="309.5,-330.7 306.15,-340.75 315.04,-334.98 309.5,-330.7"/>
</a>
</g>
</g>
<!-- Node3 -->
<g id="Node000003" class="node">
<title>Node3</title>
<g id="a_Node000003"><a xlink:href="array_8h.html" target="_top" xlink:title=" ">
<polygon fill="white" stroke="#666666" points="171.38,-19 63.38,-19 63.38,0 171.38,0 171.38,-19"/>
<text text-anchor="middle" x="117.38" y="-7" font-family="Helvetica,sans-Serif" font-size="10.00">include/y3c/array.h</text>
</a>
</g>
</g>
<!-- Node2&#45;&gt;Node3 -->
<g id="edge2_Node000002_Node000003" class="edge">
<title>Node2&#45;&gt;Node3</title>
<g id="a_edge2_Node000002_Node000003"><a xlink:title=" ">
<path fill="none" stroke="#63b8ff" d="M181.96,-235.37C145.01,-230.11 101.77,-218.82 69.38,-195 23.64,-161.35 19.36,-139.78 4.38,-85 0.87,-72.14 -3.12,-66.02 4.38,-55 17.73,-35.39 41.17,-24.43 63.25,-18.29"/>
<polygon fill="#63b8ff" stroke="#63b8ff" points="181.83,-238.88 192.2,-236.69 182.73,-231.94 181.83,-238.88"/>
</a>
</g>
</g>
<!-- Node4 -->
<g id="Node000004" class="node">
<title>Node4</title>
<g id="a_Node000004"><a xlink:href="iterator_8h.html" target="_top" xlink:title=" ">
<polygon fill="white" stroke="#666666" points="132.88,-79.5 13.88,-79.5 13.88,-60.5 132.88,-60.5 132.88,-79.5"/>
<text text-anchor="middle" x="73.38" y="-67.5" font-family="Helvetica,sans-Serif" font-size="10.00">include/y3c/iterator.h</text>
</a>
</g>
</g>
<!-- Node2&#45;&gt;Node4 -->
<g id="edge3_Node000002_Node000004" class="edge">
<title>Node2&#45;&gt;Node4</title>
<g id="a_edge3_Node000002_Node000004"><a xlink:title=" ">
<path fill="none" stroke="#63b8ff" d="M183.17,-229.21C141.95,-221.93 96.6,-210.66 83.38,-195 54.82,-161.17 65.59,-102.01 71.01,-79.78"/>
<polygon fill="#63b8ff" stroke="#63b8ff" points="182.81,-232.7 193.26,-230.93 183.99,-225.8 182.81,-232.7"/>
</a>
</g>
</g>
<!-- Node5 -->
<g id="Node000005" class="node">
<title>Node5</title>
<g id="a_Node000005"><a xlink:href="vector_8h.html" target="_top" xlink:title=" ">
<polygon fill="white" stroke="#666666" points="380.38,-19 266.38,-19 266.38,0 380.38,0 380.38,-19"/>
<text text-anchor="middle" x="323.38" y="-7" font-family="Helvetica,sans-Serif" font-size="10.00">include/y3c/vector.h</text>
</a>
</g>
</g>
<!-- Node2&#45;&gt;Node5 -->
<g id="edge19_Node000002_Node000005" class="edge">
<title>Node2&#45;&gt;Node5</title>
<g id="a_edge19_Node000002_Node000005"><a xlink:title=" ">
<path fill="none" stroke="#63b8ff" d="M332.77,-229.28C373.11,-222.05 417.16,-210.81 429.38,-195 454.23,-162.86 512.14,-210.01 395.38,-55 382.74,-38.22 361.75,-26.3 345.69,-19.05"/>
<polygon fill="#63b8ff" stroke="#63b8ff" points="332.15,-225.83 322.89,-230.99 333.34,-232.73 332.15,-225.83"/>
</a>
</g>
</g>
<!-- Node6 -->
<g id="Node000006" class="node">
<title>Node6</title>
<g id="a_Node000006"><a xlink:href="life_8h.html" target="_top" xlink:title=" ">
<polygon fill="white" stroke="#666666" points="192.38,-195 92.38,-195 92.38,-176 192.38,-176 192.38,-195"/>
<text text-anchor="middle" x="142.38" y="-183" font-family="Helvetica,sans-Serif" font-size="10.00">include/y3c/life.h</text>
</a>
</g>
</g>
<!-- Node2&#45;&gt;Node6 -->
<g id="edge6_Node000002_Node000006" class="edge">
<title>Node2&#45;&gt;Node6</title>
<g id="a_edge6_Node000002_Node000006"><a xlink:title=" ">
<path fill="none" stroke="#63b8ff" d="M230.51,-226.77C209.11,-216.99 180.14,-203.75 161.36,-195.17"/>
<polygon fill="#63b8ff" stroke="#63b8ff" points="229.19,-230.01 239.74,-230.98 232.1,-223.65 229.19,-230.01"/>
</a>
</g>
</g>
<!-- Node7 -->
<g id="Node000007" class="node">
<title>Node7</title>
<g id="a_Node000007"><a xlink:href="wrap_8h.html" target="_top" xlink:title=" ">
<polygon fill="white" stroke="#666666" points="234.38,-140 126.38,-140 126.38,-121 234.38,-121 234.38,-140"/>
<text text-anchor="middle" x="180.38" y="-128" font-family="Helvetica,sans-Serif" font-size="10.00">include/y3c/wrap.h</text>
</a>
</g>
</g>
<!-- Node2&#45;&gt;Node7 -->
<g id="edge20_Node000002_Node000007" class="edge">
<title>Node2&#45;&gt;Node7</title>
<g id="a_edge20_Node000002_Node000007"><a xlink:title=" ">
<path fill="none" stroke="#63b8ff" d="M246.02,-222.38C229.14,-199.01 199.5,-157.97 186.64,-140.16"/>
<polygon fill="#63b8ff" stroke="#63b8ff" points="243.31,-224.6 252,-230.66 248.98,-220.51 243.31,-224.6"/>
</a>
</g>
</g>
<!-- Node8 -->
<g id="Node000008" class="node">
<title>Node8</title>
<g id="a_Node000008"><a xlink:href="shared__ptr_8h.html" target="_top" xlink:title=" ">
<polygon fill="white" stroke="#666666" points="335.38,-85 227.38,-85 227.38,-55 335.38,-55 335.38,-85"/>
<text text-anchor="start" x="235.38" y="-73" font-family="Helvetica,sans-Serif" font-size="10.00">include/y3c/shared</text>
<text text-anchor="middle" x="281.38" y="-62" font-family="Helvetica,sans-Serif" font-size="10.00">_ptr.h</text>
</a>
</g>
</g>
<!-- Node2&#45;&gt;Node8 -->
<g id="edge13_Node000002_Node000008" class="edge">
<title>Node2&#45;&gt;Node8</title>
<g id="a_edge13_Node000002_Node000008"><a xlink:title=" ">
<path fill="none" stroke="#63b8ff" d="M260.91,-220.95C265.54,-187.02 275.29,-115.65 279.44,-85.22"/>
<polygon fill="#63b8ff" stroke="#63b8ff" points="257.44,-220.53 259.55,-230.91 264.37,-221.48 257.44,-220.53"/>
</a>
</g>
</g>
<!-- Node9 -->
<g id="Node000009" class="node">
<title>Node9</title>
<g id="a_Node000009"><a xlink:href="typename_8h.html" target="_top" xlink:title=" ">
<polygon fill="white" stroke="#666666" points="420.38,-195 286.38,-195 286.38,-176 420.38,-176 420.38,-195"/>
<text text-anchor="middle" x="353.38" y="-183" font-family="Helvetica,sans-Serif" font-size="10.00">include/y3c/typename.h</text>
</a>
</g>
</g>
<!-- Node2&#45;&gt;Node9 -->
<g id="edge14_Node000002_Node000009" class="edge">
<title>Node2&#45;&gt;Node9</title>
<g id="a_edge14_Node000002_Node000009"><a xlink:title=" ">
<path fill="none" stroke="#63b8ff" d="M282.64,-225.97C300.01,-216.28 322.87,-203.52 337.84,-195.17"/>
<polygon fill="#63b8ff" stroke="#63b8ff" points="280.67,-223.06 273.65,-230.98 284.08,-229.17 280.67,-223.06"/>
</a>
</g>
</g>
<!-- Node10 -->
<g id="Node000010" class="node">
<title>Node10</title>
<g id="a_Node000010"><a xlink:href="final__message_8cc.html" target="_top" xlink:title=" ">
<polygon fill="white" stroke="#666666" points="594.38,-195 476.38,-195 476.38,-176 594.38,-176 594.38,-195"/>
<text text-anchor="middle" x="535.38" y="-183" font-family="Helvetica,sans-Serif" font-size="10.00">src/final_message.cc</text>
</a>
</g>
</g>
<!-- Node2&#45;&gt;Node10 -->
<g id="edge21_Node000002_Node000010" class="edge">
<title>Node2&#45;&gt;Node10</title>
<g id="a_edge21_Node000002_Node000010"><a xlink:title=" ">
<path fill="none" stroke="#63b8ff" d="M312.92,-229.07C364.85,-219.13 442.07,-204.35 490.53,-195.08"/>
<polygon fill="#63b8ff" stroke="#63b8ff" points="312.05,-225.67 302.89,-230.98 313.37,-232.54 312.05,-225.67"/>
</a>
</g>
</g>
<!-- Node11 -->
<g id="Node000011" class="node">
<title>Node11</title>
<g id="a_Node000011"><a xlink:href="terminate__detail_8cc.html" target="_top" xlink:title=" ">
<polygon fill="white" stroke="#666666" points="740.38,-195 612.38,-195 612.38,-176 740.38,-176 740.38,-195"/>
<text text-anchor="middle" x="676.38" y="-183" font-family="Helvetica,sans-Serif" font-size="10.00">src/terminate_detail.cc</text>
</a>
</g>
</g>
<!-- Node2&#45;&gt;Node11 -->
<g id="edge22_Node000002_Node000011" class="edge">
<title>Node2&#45;&gt;Node11</title>
<g id="a_edge22_Node000002_Node000011"><a xlink:title=" ">
<path fill="none" stroke="#63b8ff" d="M334.57,-229.84C414.1,-219.76 537.43,-204.12 612.17,-194.64"/>
<polygon fill="#63b8ff" stroke="#63b8ff" points="334.1,-226.37 324.62,-231.1 334.98,-233.32 334.1,-226.37"/>
</a>
</g>
</g>
<!-- Node4&#45;&gt;Node3 -->
<g id="edge4_Node000004_Node000003" class="edge">
<title>Node4&#45;&gt;Node3</title>
<g id="a_edge4_Node000004_Node000003"><a xlink:title=" ">
<path fill="none" stroke="#63b8ff" d="M86.07,-52.13C94.18,-41.35 104.35,-27.82 110.86,-19.17"/>
<polygon fill="#63b8ff" stroke="#63b8ff" points="83.09,-50.27 79.87,-60.37 88.68,-54.48 83.09,-50.27"/>
</a>
</g>
</g>
<!-- Node4&#45;&gt;Node5 -->
<g id="edge5_Node000004_Node000005" class="edge">
<title>Node4&#45;&gt;Node5</title>
<g id="a_edge5_Node000004_Node000005"><a xlink:title=" ">
<path fill="none" stroke="#63b8ff" d="M119.62,-58.18C167.93,-46.88 242.72,-29.38 286.99,-19.02"/>
<polygon fill="#63b8ff" stroke="#63b8ff" points="118.67,-54.81 109.73,-60.49 120.27,-61.62 118.67,-54.81"/>
</a>
</g>
</g>
<!-- Node6&#45;&gt;Node4 -->
<g id="edge7_Node000006_Node000004" class="edge">
<title>Node6&#45;&gt;Node4</title>
<g id="a_edge7_Node000006_Node000004"><a xlink:title=" ">
<path fill="none" stroke="#63b8ff" d="M131.94,-167.32C116.97,-142.69 89.97,-98.29 78.63,-79.63"/>
<polygon fill="#63b8ff" stroke="#63b8ff" points="129.01,-169.24 137.2,-175.97 134.99,-165.61 129.01,-169.24"/>
</a>
</g>
</g>
<!-- Node6&#45;&gt;Node7 -->
<g id="edge8_Node000006_Node000007" class="edge">
<title>Node6&#45;&gt;Node7</title>
<g id="a_edge8_Node000006_Node000007"><a xlink:title=" ">
<path fill="none" stroke="#63b8ff" d="M154.65,-167.39C161.19,-158.27 168.95,-147.45 174.22,-140.09"/>
<polygon fill="#63b8ff" stroke="#63b8ff" points="151.64,-165.58 148.66,-175.75 157.33,-169.66 151.64,-165.58"/>
</a>
</g>
</g>
<!-- Node7&#45;&gt;Node3 -->
<g id="edge9_Node000007_Node000003" class="edge">
<title>Node7&#45;&gt;Node3</title>
<g id="a_edge9_Node000007_Node000003"><a xlink:title=" ">
<path fill="none" stroke="#63b8ff" d="M171.07,-111.55C163.2,-96.44 151.62,-74.27 141.38,-55 134.71,-42.44 126.87,-27.96 122.01,-19.01"/>
<polygon fill="#63b8ff" stroke="#63b8ff" points="168.14,-113.51 175.85,-120.76 174.35,-110.28 168.14,-113.51"/>
</a>
</g>
</g>
<!-- Node7&#45;&gt;Node4 -->
<g id="edge10_Node000007_Node000004" class="edge">
<title>Node7&#45;&gt;Node4</title>
<g id="a_edge10_Node000007_Node000004"><a xlink:title=" ">
<path fill="none" stroke="#63b8ff" d="M155.55,-115.92C135.1,-104.74 106.73,-89.23 89.23,-79.67"/>
<polygon fill="#63b8ff" stroke="#63b8ff" points="154.14,-119.14 164.59,-120.87 157.5,-113 154.14,-119.14"/>
</a>
</g>
</g>
<!-- Node7&#45;&gt;Node5 -->
<g id="edge12_Node000007_Node000005" class="edge">
<title>Node7&#45;&gt;Node5</title>
<g id="a_edge12_Node000007_Node000005"><a xlink:title=" ">
<path fill="none" stroke="#63b8ff" d="M185.68,-111.3C191.34,-94.68 201.82,-70.43 218.38,-55 237.65,-37.05 265.24,-25.74 287.3,-19.02"/>
<polygon fill="#63b8ff" stroke="#63b8ff" points="182.3,-110.36 182.63,-120.95 188.98,-112.46 182.3,-110.36"/>
</a>
</g>
</g>
<!-- Node7&#45;&gt;Node8 -->
<g id="edge11_Node000007_Node000008" class="edge">
<title>Node7&#45;&gt;Node8</title>
<g id="a_edge11_Node000007_Node000008"><a xlink:title=" ">
<path fill="none" stroke="#63b8ff" d="M204.01,-115.81C219.95,-106.58 240.92,-94.43 257.01,-85.11"/>
<polygon fill="#63b8ff" stroke="#63b8ff" points="202.18,-112.83 195.28,-120.87 205.69,-118.88 202.18,-112.83"/>
</a>
</g>
</g>
<!-- Node9&#45;&gt;Node3 -->
<g id="edge15_Node000009_Node000003" class="edge">
<title>Node9&#45;&gt;Node3</title>
<g id="a_edge15_Node000009_Node000003"><a xlink:title=" ">
<path fill="none" stroke="#63b8ff" d="M358.37,-165.97C364.63,-138.19 371.52,-85.74 344.38,-55 322.05,-29.71 231.27,-18.45 171.5,-13.7"/>
<polygon fill="#63b8ff" stroke="#63b8ff" points="354.91,-165.38 355.91,-175.93 361.71,-167.06 354.91,-165.38"/>
</a>
</g>
</g>
<!-- Node9&#45;&gt;Node5 -->
<g id="edge17_Node000009_Node000005" class="edge">
<title>Node9&#45;&gt;Node5</title>
<g id="a_edge17_Node000009_Node000005"><a xlink:title=" ">
<path fill="none" stroke="#63b8ff" d="M365.29,-167.22C370.05,-159.3 374.97,-149.56 377.38,-140 386.63,-103.37 393.5,-89.17 377.38,-55 369.76,-38.85 353.09,-26.57 340.27,-19.05"/>
<polygon fill="#63b8ff" stroke="#63b8ff" points="362.21,-165.54 359.75,-175.84 368.1,-169.32 362.21,-165.54"/>
</a>
</g>
</g>
<!-- Node9&#45;&gt;Node7 -->
<g id="edge18_Node000009_Node000007" class="edge">
<title>Node9&#45;&gt;Node7</title>
<g id="a_edge18_Node000009_Node000007"><a xlink:title=" ">
<path fill="none" stroke="#63b8ff" d="M315.61,-172.93C283.3,-163.03 237.52,-149.01 208.4,-140.08"/>
<polygon fill="#63b8ff" stroke="#63b8ff" points="315,-176.4 325.59,-175.98 317.05,-169.71 315,-176.4"/>
</a>
</g>
</g>
<!-- Node9&#45;&gt;Node8 -->
<g id="edge16_Node000009_Node000008" class="edge">
<title>Node9&#45;&gt;Node8</title>
<g id="a_edge16_Node000009_Node000008"><a xlink:title=" ">
<path fill="none" stroke="#63b8ff" d="M342.59,-167.48C328.37,-145.07 303.63,-106.08 290.38,-85.18"/>
<polygon fill="#63b8ff" stroke="#63b8ff" points="339.66,-169.4 347.97,-175.97 345.57,-165.65 339.66,-169.4"/>
</a>
</g>
</g>
<!-- Node12&#45;&gt;Node2 -->
<g id="edge24_Node000012_Node000002" class="edge">
<title>Node12&#45;&gt;Node2</title>
<g id="a_edge24_Node000012_Node000002"><a xlink:title=" ">
<path fill="none" stroke="#63b8ff" d="M318.6,-280.42C303.72,-270.81 284.48,-258.37 271.8,-250.17"/>
<polygon fill="#63b8ff" stroke="#63b8ff" points="316.91,-283.5 327.21,-285.98 320.71,-277.62 316.91,-283.5"/>
</a>
</g>
</g>
<!-- Node13 -->
<g id="Node000013" class="node">
<title>Node13</title>
<g id="a_Node000013"><a xlink:href="what_8cc.html" target="_top" xlink:title=" ">
<polygon fill="white" stroke="#666666" points="413.88,-250 342.88,-250 342.88,-231 413.88,-231 413.88,-250"/>
<text text-anchor="middle" x="378.38" y="-238" font-family="Helvetica,sans-Serif" font-size="10.00">src/what.cc</text>
</a>
</g>
</g>
<!-- Node12&#45;&gt;Node13 -->
<g id="edge25_Node000012_Node000013" class="edge">
<title>Node12&#45;&gt;Node13</title>
<g id="a_edge25_Node000012_Node000013"><a xlink:title=" ">
<path fill="none" stroke="#63b8ff" d="M352.65,-277.39C359.19,-268.27 366.95,-257.45 372.22,-250.09"/>
<polygon fill="#63b8ff" stroke="#63b8ff" points="349.64,-275.58 346.66,-285.75 355.33,-279.66 349.64,-275.58"/>
</a>
</g>
</g>
</g>
</svg>
